<svg width="585" height="236" viewBox="0 0 585 236" fill="none" xmlns="http://www.w3.org/2000/svg">
<path d="M28.456 29.48C30.504 30.088 32.072 31.08 33.16 32.456C34.248 33.832 34.792 35.528 34.792 37.544C34.792 40.52 33.656 42.84 31.384 44.504C29.144 46.168 25.928 47 21.736 47H5.176V13.4H20.824C24.728 13.4 27.768 14.152 29.944 15.656C32.12 17.16 33.208 19.304 33.208 22.088C33.208 23.752 32.792 25.224 31.96 26.504C31.128 27.752 29.96 28.744 28.456 29.48ZM12.904 27.32H20.152C21.848 27.32 23.128 26.984 23.992 26.312C24.856 25.608 25.288 24.584 25.288 23.24C25.288 21.928 24.84 20.92 23.944 20.216C23.08 19.512 21.816 19.16 20.152 19.16H12.904V27.32ZM21.448 41.24C25.096 41.24 26.92 39.8 26.92 36.92C26.92 34.136 25.096 32.744 21.448 32.744H12.904V41.24H21.448ZM55.5816 20.792C57.9816 20.792 60.1576 21.352 62.1096 22.472C64.0936 23.56 65.6456 25.112 66.7656 27.128C67.8856 29.112 68.4456 31.432 68.4456 34.088C68.4456 36.744 67.8856 39.08 66.7656 41.096C65.6456 43.08 64.0936 44.632 62.1096 45.752C60.1576 46.84 57.9816 47.384 55.5816 47.384C52.2856 47.384 49.6936 46.344 47.8056 44.264V56.312H40.3176V21.176H47.4696V24.152C49.3256 21.912 52.0296 20.792 55.5816 20.792ZM54.2856 41.24C56.2056 41.24 57.7736 40.6 58.9896 39.32C60.2376 38.008 60.8616 36.264 60.8616 34.088C60.8616 31.912 60.2376 30.184 58.9896 28.904C57.7736 27.592 56.2056 26.936 54.2856 26.936C52.3656 26.936 50.7816 27.592 49.5336 28.904C48.3176 30.184 47.7096 31.912 47.7096 34.088C47.7096 36.264 48.3176 38.008 49.5336 39.32C50.7816 40.6 52.3656 41.24 54.2856 41.24ZM98.7978 34.184C98.7978 34.28 98.7498 34.952 98.6538 36.2H79.1178C79.4698 37.8 80.3018 39.064 81.6138 39.992C82.9258 40.92 84.5578 41.384 86.5098 41.384C87.8538 41.384 89.0378 41.192 90.0618 40.808C91.1178 40.392 92.0938 39.752 92.9898 38.888L96.9738 43.208C94.5418 45.992 90.9898 47.384 86.3178 47.384C83.4058 47.384 80.8298 46.824 78.5898 45.704C76.3498 44.552 74.6218 42.968 73.4058 40.952C72.1898 38.936 71.5818 36.648 71.5818 34.088C71.5818 31.56 72.1738 29.288 73.3578 27.272C74.5738 25.224 76.2218 23.64 78.3018 22.52C80.4138 21.368 82.7658 20.792 85.3578 20.792C87.8858 20.792 90.1738 21.336 92.2218 22.424C94.2698 23.512 95.8698 25.08 97.0218 27.128C98.2058 29.144 98.7978 31.496 98.7978 34.184ZM85.4058 26.456C83.7098 26.456 82.2858 26.936 81.1338 27.896C79.9818 28.856 79.2778 30.168 79.0218 31.832H91.7418C91.4858 30.2 90.7818 28.904 89.6298 27.944C88.4778 26.952 87.0698 26.456 85.4058 26.456ZM129.738 47V31.544L122.01 44.504H118.842L111.306 31.496V47H104.538V21.176H112.362L120.618 36.104L129.402 21.176H136.41L136.506 47H129.738ZM168.782 34.184C168.782 34.28 168.734 34.952 168.638 36.2H149.102C149.454 37.8 150.286 39.064 151.598 39.992C152.91 40.92 154.542 41.384 156.494 41.384C157.838 41.384 159.022 41.192 160.046 40.808C161.102 40.392 162.078 39.752 162.974 38.888L166.958 43.208C164.526 45.992 160.974 47.384 156.302 47.384C153.39 47.384 150.814 46.824 148.574 45.704C146.334 44.552 144.606 42.968 143.39 40.952C142.174 38.936 141.566 36.648 141.566 34.088C141.566 31.56 142.158 29.288 143.342 27.272C144.558 25.224 146.206 23.64 148.286 22.52C150.398 21.368 152.75 20.792 155.342 20.792C157.87 20.792 160.158 21.336 162.206 22.424C164.254 23.512 165.854 25.08 167.006 27.128C168.19 29.144 168.782 31.496 168.782 34.184ZM155.39 26.456C153.694 26.456 152.27 26.936 151.118 27.896C149.966 28.856 149.262 30.168 149.006 31.832H161.726C161.47 30.2 160.766 28.904 159.614 27.944C158.462 26.952 157.054 26.456 155.39 26.456ZM174.522 21.176H181.962V31.256H193.194V21.176H200.682V47H193.194V37.352H181.962V47H174.522V21.176ZM217.882 20.792C221.882 20.792 224.954 21.752 227.098 23.672C229.242 25.56 230.314 28.424 230.314 32.264V47H223.306V43.784C221.898 46.184 219.274 47.384 215.434 47.384C213.45 47.384 211.722 47.048 210.25 46.376C208.81 45.704 207.706 44.776 206.938 43.592C206.17 42.408 205.786 41.064 205.786 39.56C205.786 37.16 206.682 35.272 208.474 33.896C210.298 32.52 213.098 31.832 216.874 31.832H222.826C222.826 30.2 222.33 28.952 221.338 28.088C220.346 27.192 218.858 26.744 216.874 26.744C215.498 26.744 214.138 26.968 212.794 27.416C211.482 27.832 210.362 28.408 209.434 29.144L206.746 23.912C208.154 22.92 209.834 22.152 211.786 21.608C213.77 21.064 215.802 20.792 217.882 20.792ZM217.306 42.344C218.586 42.344 219.722 42.056 220.714 41.48C221.706 40.872 222.41 39.992 222.826 38.84V36.2H217.69C214.618 36.2 213.082 37.208 213.082 39.224C213.082 40.184 213.45 40.952 214.186 41.528C214.954 42.072 215.994 42.344 217.306 42.344ZM271.101 27.32H257.853V47H250.413V21.176H271.101V27.32ZM286.087 47.384C283.367 47.384 280.919 46.824 278.743 45.704C276.599 44.552 274.919 42.968 273.703 40.952C272.487 38.936 271.879 36.648 271.879 34.088C271.879 31.528 272.487 29.24 273.703 27.224C274.919 25.208 276.599 23.64 278.743 22.52C280.919 21.368 283.367 20.792 286.087 20.792C288.807 20.792 291.239 21.368 293.383 22.52C295.527 23.64 297.207 25.208 298.423 27.224C299.639 29.24 300.247 31.528 300.247 34.088C300.247 36.648 299.639 38.936 298.423 40.952C297.207 42.968 295.527 44.552 293.383 45.704C291.239 46.824 288.807 47.384 286.087 47.384ZM286.087 41.24C288.007 41.24 289.575 40.6 290.791 39.32C292.039 38.008 292.663 36.264 292.663 34.088C292.663 31.912 292.039 30.184 290.791 28.904C289.575 27.592 288.007 26.936 286.087 26.936C284.167 26.936 282.583 27.592 281.335 28.904C280.087 30.184 279.463 31.912 279.463 34.088C279.463 36.264 280.087 38.008 281.335 39.32C282.583 40.6 284.167 41.24 286.087 41.24ZM333.966 40.856V52.568H327.006V47H308.862V52.568H301.902V40.856H302.958C304.558 40.824 305.662 39.88 306.27 38.024C306.878 36.168 307.262 33.528 307.422 30.104L307.758 21.176H330.27V40.856H333.966ZM314.19 30.632C314.094 33.256 313.886 35.4 313.566 37.064C313.278 38.728 312.718 39.992 311.886 40.856H322.782V27.32H314.334L314.19 30.632ZM348.71 20.792C352.71 20.792 355.782 21.752 357.926 23.672C360.07 25.56 361.142 28.424 361.142 32.264V47H354.134V43.784C352.726 46.184 350.102 47.384 346.262 47.384C344.278 47.384 342.55 47.048 341.078 46.376C339.638 45.704 338.534 44.776 337.766 43.592C336.998 42.408 336.614 41.064 336.614 39.56C336.614 37.16 337.51 35.272 339.302 33.896C341.126 32.52 343.926 31.832 347.702 31.832H353.654C353.654 30.2 353.158 28.952 352.166 28.088C351.174 27.192 349.686 26.744 347.702 26.744C346.326 26.744 344.966 26.968 343.622 27.416C342.31 27.832 341.19 28.408 340.262 29.144L337.574 23.912C338.982 22.92 340.662 22.152 342.614 21.608C344.598 21.064 346.63 20.792 348.71 20.792ZM348.134 42.344C349.414 42.344 350.55 42.056 351.542 41.48C352.534 40.872 353.238 39.992 353.654 38.84V36.2H348.518C345.446 36.2 343.91 37.208 343.91 39.224C343.91 40.184 344.278 40.952 345.014 41.528C345.782 42.072 346.822 42.344 348.134 42.344ZM366.543 13.4H375.471L373.983 35.336H368.031L366.543 13.4ZM371.007 47.384C369.695 47.384 368.591 46.968 367.695 46.136C366.831 45.272 366.399 44.232 366.399 43.016C366.399 41.8 366.831 40.792 367.695 39.992C368.559 39.16 369.663 38.744 371.007 38.744C372.351 38.744 373.455 39.16 374.319 39.992C375.183 40.792 375.615 41.8 375.615 43.016C375.615 44.232 375.167 45.272 374.271 46.136C373.407 46.968 372.319 47.384 371.007 47.384Z" fill="white"/>
<path d="M13.528 100.4V113H12.61V107.006H4.186V113H3.268V100.4H4.186V106.196H12.61V100.4H13.528ZM20.8588 103.532C22.0228 103.532 22.9168 103.832 23.5408 104.432C24.1648 105.02 24.4768 105.89 24.4768 107.042V113H23.6128V111.326C23.3128 111.878 22.8748 112.31 22.2988 112.622C21.7228 112.922 21.0328 113.072 20.2288 113.072C19.1848 113.072 18.3568 112.826 17.7448 112.334C17.1448 111.842 16.8448 111.194 16.8448 110.39C16.8448 109.61 17.1208 108.98 17.6728 108.5C18.2368 108.008 19.1308 107.762 20.3548 107.762H23.5768V107.006C23.5768 106.13 23.3368 105.464 22.8568 105.008C22.3888 104.552 21.6988 104.324 20.7868 104.324C20.1628 104.324 19.5628 104.432 18.9868 104.648C18.4228 104.864 17.9428 105.152 17.5468 105.512L17.0968 104.864C17.5648 104.444 18.1288 104.12 18.7888 103.892C19.4488 103.652 20.1388 103.532 20.8588 103.532ZM20.3548 112.334C21.1348 112.334 21.7948 112.154 22.3348 111.794C22.8868 111.434 23.3008 110.912 23.5768 110.228V108.464H20.3728C19.4488 108.464 18.7768 108.632 18.3568 108.968C17.9488 109.304 17.7448 109.766 17.7448 110.354C17.7448 110.966 17.9728 111.452 18.4288 111.812C18.8848 112.16 19.5268 112.334 20.3548 112.334ZM36.1075 108.644H33.8935V113H32.9935V108.644H30.7975L27.6655 113H26.5675L30.0775 108.176L26.8555 103.604H27.8455L30.7975 107.87H32.9935V103.604H33.8935V107.87H36.1075L39.0595 103.604H40.0495L36.8275 108.176L40.3195 113H39.2395L36.1075 108.644ZM52.877 103.604V113H52.049V105.044L47.963 111.794H47.549L43.481 105.062V113H42.653V103.604H43.535L47.783 110.714L52.049 103.604H52.877ZM56.7682 103.604H57.6682V111.614L64.3642 103.604H65.1562V113H64.2562V104.99L57.5602 113H56.7682V103.604ZM75.3198 104.414H71.6478V113H70.7478V104.414H67.0757V103.604H75.3198V104.414ZM84.8173 108.518H76.7353C76.7593 109.25 76.9453 109.904 77.2933 110.48C77.6413 111.044 78.1093 111.482 78.6973 111.794C79.2973 112.106 79.9693 112.262 80.7133 112.262C81.3253 112.262 81.8893 112.154 82.4053 111.938C82.9333 111.71 83.3713 111.38 83.7193 110.948L84.2413 111.542C83.8333 112.034 83.3173 112.412 82.6933 112.676C82.0813 112.94 81.4153 113.072 80.6953 113.072C79.7593 113.072 78.9253 112.868 78.1933 112.46C77.4613 112.052 76.8853 111.488 76.4653 110.768C76.0573 110.048 75.8533 109.226 75.8533 108.302C75.8533 107.39 76.0453 106.574 76.4293 105.854C76.8253 105.122 77.3653 104.552 78.0493 104.144C78.7333 103.736 79.5013 103.532 80.3533 103.532C81.2053 103.532 81.9673 103.736 82.6393 104.144C83.3233 104.54 83.8573 105.098 84.2413 105.818C84.6373 106.538 84.8353 107.354 84.8353 108.266L84.8173 108.518ZM80.3533 104.324C79.6933 104.324 79.0993 104.474 78.5713 104.774C78.0433 105.062 77.6173 105.476 77.2933 106.016C76.9813 106.544 76.8013 107.144 76.7533 107.816H83.9533C83.9173 107.144 83.7373 106.544 83.4133 106.016C83.0893 105.488 82.6633 105.074 82.1353 104.774C81.6073 104.474 81.0133 104.324 80.3533 104.324ZM95.5851 108.644H93.2991V113H92.3991V103.604H93.2991V107.87H95.5851L99.1311 103.604H100.121L96.3051 108.158L100.409 113H99.3291L95.5851 108.644ZM102.63 103.604H103.53V107.888H109.902V103.604H110.802V113H109.902V108.68H103.53V113H102.63V103.604ZM118.432 113.072C117.544 113.072 116.74 112.868 116.02 112.46C115.312 112.052 114.754 111.488 114.346 110.768C113.938 110.036 113.734 109.214 113.734 108.302C113.734 107.39 113.938 106.574 114.346 105.854C114.754 105.122 115.312 104.552 116.02 104.144C116.74 103.736 117.544 103.532 118.432 103.532C119.32 103.532 120.118 103.736 120.826 104.144C121.546 104.552 122.11 105.122 122.518 105.854C122.926 106.574 123.13 107.39 123.13 108.302C123.13 109.214 122.926 110.036 122.518 110.768C122.11 111.488 121.546 112.052 120.826 112.46C120.118 112.868 119.32 113.072 118.432 113.072ZM118.432 112.262C119.152 112.262 119.794 112.094 120.358 111.758C120.934 111.422 121.384 110.954 121.708 110.354C122.044 109.754 122.212 109.07 122.212 108.302C122.212 107.534 122.044 106.85 121.708 106.25C121.384 105.65 120.934 105.182 120.358 104.846C119.794 104.51 119.152 104.342 118.432 104.342C117.712 104.342 117.064 104.51 116.488 104.846C115.924 105.182 115.474 105.65 115.138 106.25C114.814 106.85 114.652 107.534 114.652 108.302C114.652 109.07 114.814 109.754 115.138 110.354C115.474 110.954 115.924 111.422 116.488 111.758C117.064 112.094 117.712 112.262 118.432 112.262ZM134.269 103.604V113H133.369V104.414H126.961V113H126.061V103.604H134.269ZM141.341 108.644H139.055V113H138.155V103.604H139.055V107.87H141.341L144.887 103.604H145.877L142.061 108.158L146.165 113H145.085L141.341 108.644ZM155.49 103.604L150.666 114.278C150.306 115.106 149.886 115.694 149.406 116.042C148.938 116.39 148.38 116.564 147.732 116.564C147.3 116.564 146.892 116.492 146.508 116.348C146.136 116.204 145.818 115.994 145.554 115.718L146.004 115.034C146.484 115.526 147.066 115.772 147.75 115.772C148.206 115.772 148.596 115.646 148.92 115.394C149.244 115.142 149.544 114.71 149.82 114.098L150.324 112.964L146.094 103.604H147.048L150.81 112.01L154.572 103.604H155.49ZM162.29 103.604H163.19V111.614L169.886 103.604H170.678V113H169.778V104.99L163.082 113H162.29V103.604ZM180.985 104.414H175.459V113H174.559V103.604H180.985V104.414ZM187.643 103.532C188.519 103.532 189.311 103.736 190.019 104.144C190.727 104.552 191.279 105.116 191.675 105.836C192.083 106.556 192.287 107.378 192.287 108.302C192.287 109.226 192.083 110.054 191.675 110.786C191.279 111.506 190.727 112.07 190.019 112.478C189.311 112.874 188.519 113.072 187.643 113.072C186.815 113.072 186.065 112.88 185.393 112.496C184.721 112.1 184.199 111.554 183.827 110.858V116.492H182.927V103.604H183.791V105.818C184.163 105.098 184.685 104.54 185.357 104.144C186.041 103.736 186.803 103.532 187.643 103.532ZM187.589 112.262C188.309 112.262 188.957 112.094 189.533 111.758C190.109 111.422 190.559 110.954 190.883 110.354C191.219 109.754 191.387 109.07 191.387 108.302C191.387 107.534 191.219 106.85 190.883 106.25C190.559 105.65 190.109 105.182 189.533 104.846C188.957 104.51 188.309 104.342 187.589 104.342C186.869 104.342 186.221 104.51 185.645 104.846C185.081 105.182 184.631 105.65 184.295 106.25C183.971 106.85 183.809 107.534 183.809 108.302C183.809 109.07 183.971 109.754 184.295 110.354C184.631 110.954 185.081 111.422 185.645 111.758C186.221 112.094 186.869 112.262 187.589 112.262ZM198.292 103.532C199.456 103.532 200.35 103.832 200.974 104.432C201.598 105.02 201.91 105.89 201.91 107.042V113H201.046V111.326C200.746 111.878 200.308 112.31 199.732 112.622C199.156 112.922 198.466 113.072 197.662 113.072C196.618 113.072 195.79 112.826 195.178 112.334C194.578 111.842 194.278 111.194 194.278 110.39C194.278 109.61 194.554 108.98 195.106 108.5C195.67 108.008 196.564 107.762 197.788 107.762H201.01V107.006C201.01 106.13 200.77 105.464 200.29 105.008C199.822 104.552 199.132 104.324 198.22 104.324C197.596 104.324 196.996 104.432 196.42 104.648C195.856 104.864 195.376 105.152 194.98 105.512L194.53 104.864C194.998 104.444 195.562 104.12 196.222 103.892C196.882 103.652 197.572 103.532 198.292 103.532ZM197.788 112.334C198.568 112.334 199.228 112.154 199.768 111.794C200.32 111.434 200.734 110.912 201.01 110.228V108.464H197.806C196.882 108.464 196.21 108.632 195.79 108.968C195.382 109.304 195.178 109.766 195.178 110.354C195.178 110.966 195.406 111.452 195.862 111.812C196.318 112.16 196.96 112.334 197.788 112.334ZM211.849 104.414H208.177V113H207.277V104.414H203.605V103.604H211.849V104.414ZM217.538 107.024C218.702 107.036 219.59 107.294 220.202 107.798C220.814 108.29 221.12 109.016 221.12 109.976C221.12 110.972 220.796 111.734 220.148 112.262C219.5 112.79 218.558 113.048 217.322 113.036L213.776 113V103.604H214.676V106.988L217.538 107.024ZM217.304 112.316C218.252 112.328 218.972 112.136 219.464 111.74C219.956 111.344 220.202 110.756 220.202 109.976C220.202 109.22 219.962 108.662 219.482 108.302C219.002 107.93 218.276 107.732 217.304 107.708L214.676 107.69V112.28L217.304 112.316ZM223.423 111.542C223.639 111.542 223.819 111.62 223.963 111.776C224.107 111.92 224.179 112.094 224.179 112.298C224.179 112.418 224.161 112.544 224.125 112.676C224.101 112.808 224.065 112.958 224.017 113.126L223.315 115.574H222.667L223.261 113.036C223.081 112.988 222.937 112.904 222.829 112.784C222.721 112.652 222.667 112.49 222.667 112.298C222.667 112.082 222.739 111.902 222.883 111.758C223.027 111.614 223.207 111.542 223.423 111.542ZM237.356 108.158C238.736 108.398 239.426 109.172 239.426 110.48C239.426 111.296 239.126 111.92 238.526 112.352C237.938 112.784 237.05 113 235.862 113H231.794V103.604H235.754C236.798 103.604 237.614 103.814 238.202 104.234C238.802 104.642 239.102 105.23 239.102 105.998C239.102 106.55 238.946 107.012 238.634 107.384C238.334 107.744 237.908 108.002 237.356 108.158ZM232.676 107.888H235.7C236.504 107.888 237.122 107.738 237.554 107.438C237.986 107.126 238.202 106.682 238.202 106.106C238.202 105.518 237.986 105.08 237.554 104.792C237.134 104.492 236.516 104.342 235.7 104.342H232.676V107.888ZM235.844 112.262C237.632 112.262 238.526 111.656 238.526 110.444C238.526 109.808 238.322 109.34 237.914 109.04C237.506 108.74 236.864 108.59 235.988 108.59H232.676V112.262H235.844ZM248.184 108.158C249.564 108.398 250.254 109.172 250.254 110.48C250.254 111.296 249.954 111.92 249.354 112.352C248.766 112.784 247.878 113 246.69 113H242.622V103.604H246.582C247.626 103.604 248.442 103.814 249.03 104.234C249.63 104.642 249.93 105.23 249.93 105.998C249.93 106.55 249.774 107.012 249.462 107.384C249.162 107.744 248.736 108.002 248.184 108.158ZM243.504 107.888H246.528C247.332 107.888 247.95 107.738 248.382 107.438C248.814 107.126 249.03 106.682 249.03 106.106C249.03 105.518 248.814 105.08 248.382 104.792C247.962 104.492 247.344 104.342 246.528 104.342H243.504V107.888ZM246.672 112.262C248.46 112.262 249.354 111.656 249.354 110.444C249.354 109.808 249.15 109.34 248.742 109.04C248.334 108.74 247.692 108.59 246.816 108.59H243.504V112.262H246.672ZM261.46 108.518H253.378C253.402 109.25 253.588 109.904 253.936 110.48C254.284 111.044 254.752 111.482 255.34 111.794C255.94 112.106 256.612 112.262 257.356 112.262C257.968 112.262 258.532 112.154 259.048 111.938C259.576 111.71 260.014 111.38 260.362 110.948L260.884 111.542C260.476 112.034 259.96 112.412 259.336 112.676C258.724 112.94 258.058 113.072 257.338 113.072C256.402 113.072 255.568 112.868 254.836 112.46C254.104 112.052 253.528 111.488 253.108 110.768C252.7 110.048 252.496 109.226 252.496 108.302C252.496 107.39 252.688 106.574 253.072 105.854C253.468 105.122 254.008 104.552 254.692 104.144C255.376 103.736 256.144 103.532 256.996 103.532C257.848 103.532 258.61 103.736 259.282 104.144C259.966 104.54 260.5 105.098 260.884 105.818C261.28 106.538 261.478 107.354 261.478 108.266L261.46 108.518ZM256.996 104.324C256.336 104.324 255.742 104.474 255.214 104.774C254.686 105.062 254.26 105.476 253.936 106.016C253.624 106.544 253.444 107.144 253.396 107.816H260.596C260.56 107.144 260.38 106.544 260.056 106.016C259.732 105.488 259.306 105.074 258.778 104.774C258.25 104.474 257.656 104.324 256.996 104.324ZM273.028 112.208V115.34H272.182V113H263.29V115.34H262.426V112.208H262.984C263.62 112.172 264.052 111.68 264.28 110.732C264.52 109.772 264.688 108.428 264.784 106.7L264.91 103.604H271.516V112.208H273.028ZM265.612 106.754C265.552 108.182 265.432 109.37 265.252 110.318C265.072 111.266 264.748 111.896 264.28 112.208H270.616V104.414H265.72L265.612 106.754ZM275.686 103.604H276.586V111.614L283.282 103.604H284.074V113H283.174V104.99L276.478 113H275.686V103.604ZM294.238 104.414H290.566V113H289.666V104.414H285.994V103.604H294.238V104.414ZM303.735 108.518H295.653C295.677 109.25 295.863 109.904 296.211 110.48C296.559 111.044 297.027 111.482 297.615 111.794C298.215 112.106 298.887 112.262 299.631 112.262C300.243 112.262 300.807 112.154 301.323 111.938C301.851 111.71 302.289 111.38 302.637 110.948L303.159 111.542C302.751 112.034 302.235 112.412 301.611 112.676C300.999 112.94 300.333 113.072 299.613 113.072C298.677 113.072 297.843 112.868 297.111 112.46C296.379 112.052 295.803 111.488 295.383 110.768C294.975 110.048 294.771 109.226 294.771 108.302C294.771 107.39 294.963 106.574 295.347 105.854C295.743 105.122 296.283 104.552 296.967 104.144C297.651 103.736 298.419 103.532 299.271 103.532C300.123 103.532 300.885 103.736 301.557 104.144C302.241 104.54 302.775 105.098 303.159 105.818C303.555 106.538 303.753 107.354 303.753 108.266L303.735 108.518ZM299.271 104.324C298.611 104.324 298.017 104.474 297.489 104.774C296.961 105.062 296.535 105.476 296.211 106.016C295.899 106.544 295.719 107.144 295.671 107.816H302.871C302.835 107.144 302.655 106.544 302.331 106.016C302.007 105.488 301.581 105.074 301.053 104.774C300.525 104.474 299.931 104.324 299.271 104.324ZM311.317 103.604H312.217V107.888H318.589V103.604H319.489V113H318.589V108.68H312.217V113H311.317V103.604ZM327.12 113.072C326.232 113.072 325.428 112.868 324.708 112.46C324 112.052 323.442 111.488 323.034 110.768C322.626 110.036 322.422 109.214 322.422 108.302C322.422 107.39 322.626 106.574 323.034 105.854C323.442 105.122 324 104.552 324.708 104.144C325.428 103.736 326.232 103.532 327.12 103.532C328.008 103.532 328.806 103.736 329.514 104.144C330.234 104.552 330.798 105.122 331.206 105.854C331.614 106.574 331.818 107.39 331.818 108.302C331.818 109.214 331.614 110.036 331.206 110.768C330.798 111.488 330.234 112.052 329.514 112.46C328.806 112.868 328.008 113.072 327.12 113.072ZM327.12 112.262C327.84 112.262 328.482 112.094 329.046 111.758C329.622 111.422 330.072 110.954 330.396 110.354C330.732 109.754 330.9 109.07 330.9 108.302C330.9 107.534 330.732 106.85 330.396 106.25C330.072 105.65 329.622 105.182 329.046 104.846C328.482 104.51 327.84 104.342 327.12 104.342C326.4 104.342 325.752 104.51 325.176 104.846C324.612 105.182 324.162 105.65 323.826 106.25C323.502 106.85 323.34 107.534 323.34 108.302C323.34 109.07 323.502 109.754 323.826 110.354C324.162 110.954 324.612 111.422 325.176 111.758C325.752 112.094 326.4 112.262 327.12 112.262ZM344.973 103.604V113H344.145V105.044L340.059 111.794H339.645L335.577 105.062V113H334.749V103.604H335.631L339.879 110.714L344.145 103.604H344.973ZM356.874 108.518H348.792C348.816 109.25 349.002 109.904 349.35 110.48C349.698 111.044 350.166 111.482 350.754 111.794C351.354 112.106 352.026 112.262 352.77 112.262C353.382 112.262 353.946 112.154 354.462 111.938C354.99 111.71 355.428 111.38 355.776 110.948L356.298 111.542C355.89 112.034 355.374 112.412 354.75 112.676C354.138 112.94 353.472 113.072 352.752 113.072C351.816 113.072 350.982 112.868 350.25 112.46C349.518 112.052 348.942 111.488 348.522 110.768C348.114 110.048 347.91 109.226 347.91 108.302C347.91 107.39 348.102 106.574 348.486 105.854C348.882 105.122 349.422 104.552 350.106 104.144C350.79 103.736 351.558 103.532 352.41 103.532C353.262 103.532 354.024 103.736 354.696 104.144C355.38 104.54 355.914 105.098 356.298 105.818C356.694 106.538 356.892 107.354 356.892 108.266L356.874 108.518ZM352.41 104.324C351.75 104.324 351.156 104.474 350.628 104.774C350.1 105.062 349.674 105.476 349.35 106.016C349.038 106.544 348.858 107.144 348.81 107.816H356.01C355.974 107.144 355.794 106.544 355.47 106.016C355.146 105.488 354.72 105.074 354.192 104.774C353.664 104.474 353.07 104.324 352.41 104.324ZM364.567 103.532C365.443 103.532 366.235 103.736 366.943 104.144C367.651 104.552 368.203 105.116 368.599 105.836C369.007 106.556 369.211 107.378 369.211 108.302C369.211 109.226 369.007 110.054 368.599 110.786C368.203 111.506 367.651 112.07 366.943 112.478C366.235 112.874 365.443 113.072 364.567 113.072C363.739 113.072 362.989 112.88 362.317 112.496C361.645 112.1 361.123 111.554 360.751 110.858V116.492H359.851V103.604H360.715V105.818C361.087 105.098 361.609 104.54 362.281 104.144C362.965 103.736 363.727 103.532 364.567 103.532ZM364.513 112.262C365.233 112.262 365.881 112.094 366.457 111.758C367.033 111.422 367.483 110.954 367.807 110.354C368.143 109.754 368.311 109.07 368.311 108.302C368.311 107.534 368.143 106.85 367.807 106.25C367.483 105.65 367.033 105.182 366.457 104.846C365.881 104.51 365.233 104.342 364.513 104.342C363.793 104.342 363.145 104.51 362.569 104.846C362.005 105.182 361.555 105.65 361.219 106.25C360.895 106.85 360.733 107.534 360.733 108.302C360.733 109.07 360.895 109.754 361.219 110.354C361.555 110.954 362.005 111.422 362.569 111.758C363.145 112.094 363.793 112.262 364.513 112.262ZM386.984 103.604V113H386.156V105.044L382.07 111.794H381.656L377.588 105.062V113H376.76V103.604H377.642L381.89 110.714L386.156 103.604H386.984ZM398.886 108.518H390.804C390.828 109.25 391.014 109.904 391.362 110.48C391.71 111.044 392.178 111.482 392.766 111.794C393.366 112.106 394.038 112.262 394.782 112.262C395.394 112.262 395.958 112.154 396.474 111.938C397.002 111.71 397.44 111.38 397.788 110.948L398.31 111.542C397.902 112.034 397.386 112.412 396.762 112.676C396.15 112.94 395.484 113.072 394.764 113.072C393.828 113.072 392.994 112.868 392.262 112.46C391.53 112.052 390.954 111.488 390.534 110.768C390.126 110.048 389.922 109.226 389.922 108.302C389.922 107.39 390.114 106.574 390.498 105.854C390.894 105.122 391.434 104.552 392.118 104.144C392.802 103.736 393.57 103.532 394.422 103.532C395.274 103.532 396.036 103.736 396.708 104.144C397.392 104.54 397.926 105.098 398.31 105.818C398.706 106.538 398.904 107.354 398.904 108.266L398.886 108.518ZM394.422 104.324C393.762 104.324 393.168 104.474 392.64 104.774C392.112 105.062 391.686 105.476 391.362 106.016C391.05 106.544 390.87 107.144 390.822 107.816H398.022C397.986 107.144 397.806 106.544 397.482 106.016C397.158 105.488 396.732 105.074 396.204 104.774C395.676 104.474 395.082 104.324 394.422 104.324ZM405.642 113.072C404.73 113.072 403.914 112.868 403.194 112.46C402.474 112.052 401.91 111.488 401.502 110.768C401.094 110.036 400.89 109.214 400.89 108.302C400.89 107.378 401.094 106.556 401.502 105.836C401.91 105.104 402.474 104.54 403.194 104.144C403.914 103.736 404.73 103.532 405.642 103.532C406.398 103.532 407.082 103.682 407.694 103.982C408.318 104.27 408.822 104.696 409.206 105.26L408.54 105.746C408.204 105.278 407.784 104.93 407.28 104.702C406.788 104.462 406.242 104.342 405.642 104.342C404.91 104.342 404.25 104.51 403.662 104.846C403.086 105.17 402.63 105.632 402.294 106.232C401.97 106.832 401.808 107.522 401.808 108.302C401.808 109.082 401.97 109.772 402.294 110.372C402.63 110.972 403.086 111.44 403.662 111.776C404.25 112.1 404.91 112.262 405.642 112.262C406.242 112.262 406.788 112.148 407.28 111.92C407.784 111.68 408.204 111.326 408.54 110.858L409.206 111.344C408.822 111.908 408.318 112.34 407.694 112.64C407.082 112.928 406.398 113.072 405.642 113.072ZM418.46 103.604V113H417.632V109.76H414.5C414.284 109.76 414.128 109.754 414.032 109.742L411.71 113H410.72L413.15 109.634C412.382 109.466 411.794 109.136 411.386 108.644C410.978 108.152 410.774 107.516 410.774 106.736C410.774 105.704 411.116 104.924 411.8 104.396C412.496 103.868 413.444 103.604 414.644 103.604H418.46ZM411.674 106.772C411.674 108.308 412.646 109.076 414.59 109.076H417.632V104.396H414.698C412.682 104.396 411.674 105.188 411.674 106.772ZM431.934 112.208V115.448H431.07V113H422.34V103.604H423.24V112.208H429.468V103.604H430.368V112.208H431.934ZM437.671 103.532C438.835 103.532 439.729 103.832 440.353 104.432C440.977 105.02 441.289 105.89 441.289 107.042V113H440.425V111.326C440.125 111.878 439.687 112.31 439.111 112.622C438.535 112.922 437.845 113.072 437.041 113.072C435.997 113.072 435.169 112.826 434.557 112.334C433.957 111.842 433.657 111.194 433.657 110.39C433.657 109.61 433.933 108.98 434.485 108.5C435.049 108.008 435.943 107.762 437.167 107.762H440.389V107.006C440.389 106.13 440.149 105.464 439.669 105.008C439.201 104.552 438.511 104.324 437.599 104.324C436.975 104.324 436.375 104.432 435.799 104.648C435.235 104.864 434.755 105.152 434.359 105.512L433.909 104.864C434.377 104.444 434.941 104.12 435.601 103.892C436.261 103.652 436.951 103.532 437.671 103.532ZM437.167 112.334C437.947 112.334 438.607 112.154 439.147 111.794C439.699 111.434 440.113 110.912 440.389 110.228V108.464H437.185C436.261 108.464 435.589 108.632 435.169 108.968C434.761 109.304 434.557 109.766 434.557 110.354C434.557 110.966 434.785 111.452 435.241 111.812C435.697 112.16 436.339 112.334 437.167 112.334ZM451.693 116.492C451.033 115.388 450.523 114.122 450.163 112.694C449.815 111.266 449.641 109.724 449.641 108.068C449.641 106.412 449.815 104.864 450.163 103.424C450.523 101.972 451.033 100.712 451.693 99.644H452.557C451.201 101.96 450.523 104.768 450.523 108.068C450.523 111.368 451.201 114.176 452.557 116.492H451.693ZM459.096 113.072C458.208 113.072 457.404 112.868 456.684 112.46C455.976 112.052 455.418 111.488 455.01 110.768C454.602 110.036 454.398 109.214 454.398 108.302C454.398 107.39 454.602 106.574 455.01 105.854C455.418 105.122 455.976 104.552 456.684 104.144C457.404 103.736 458.208 103.532 459.096 103.532C459.984 103.532 460.782 103.736 461.49 104.144C462.21 104.552 462.774 105.122 463.182 105.854C463.59 106.574 463.794 107.39 463.794 108.302C463.794 109.214 463.59 110.036 463.182 110.768C462.774 111.488 462.21 112.052 461.49 112.46C460.782 112.868 459.984 113.072 459.096 113.072ZM459.096 112.262C459.816 112.262 460.458 112.094 461.022 111.758C461.598 111.422 462.048 110.954 462.372 110.354C462.708 109.754 462.876 109.07 462.876 108.302C462.876 107.534 462.708 106.85 462.372 106.25C462.048 105.65 461.598 105.182 461.022 104.846C460.458 104.51 459.816 104.342 459.096 104.342C458.376 104.342 457.728 104.51 457.152 104.846C456.588 105.182 456.138 105.65 455.802 106.25C455.478 106.85 455.316 107.534 455.316 108.302C455.316 109.07 455.478 109.754 455.802 110.354C456.138 110.954 456.588 111.422 457.152 111.758C457.728 112.094 458.376 112.262 459.096 112.262ZM472.656 104.414H468.984V113H468.084V104.414H464.412V103.604H472.656V104.414ZM481.42 100.4V113H480.502V101.228H477.424V100.4H481.42ZM499.012 112.208V115.34H498.166V113H489.274V115.34H488.41V112.208H488.968C489.604 112.172 490.036 111.68 490.264 110.732C490.504 109.772 490.672 108.428 490.768 106.7L490.894 103.604H497.5V112.208H499.012ZM491.596 106.754C491.536 108.182 491.416 109.37 491.236 110.318C491.056 111.266 490.732 111.896 490.264 112.208H496.6V104.414H491.704L491.596 106.754ZM505.415 113.072C504.527 113.072 503.723 112.868 503.003 112.46C502.295 112.052 501.737 111.488 501.329 110.768C500.921 110.036 500.717 109.214 500.717 108.302C500.717 107.39 500.921 106.574 501.329 105.854C501.737 105.122 502.295 104.552 503.003 104.144C503.723 103.736 504.527 103.532 505.415 103.532C506.303 103.532 507.101 103.736 507.809 104.144C508.529 104.552 509.093 105.122 509.501 105.854C509.909 106.574 510.113 107.39 510.113 108.302C510.113 109.214 509.909 110.036 509.501 110.768C509.093 111.488 508.529 112.052 507.809 112.46C507.101 112.868 506.303 113.072 505.415 113.072ZM505.415 112.262C506.135 112.262 506.777 112.094 507.341 111.758C507.917 111.422 508.367 110.954 508.691 110.354C509.027 109.754 509.195 109.07 509.195 108.302C509.195 107.534 509.027 106.85 508.691 106.25C508.367 105.65 507.917 105.182 507.341 104.846C506.777 104.51 506.135 104.342 505.415 104.342C504.695 104.342 504.047 104.51 503.471 104.846C502.907 105.182 502.457 105.65 502.121 106.25C501.797 106.85 501.635 107.534 501.635 108.302C501.635 109.07 501.797 109.754 502.121 110.354C502.457 110.954 502.907 111.422 503.471 111.758C504.047 112.094 504.695 112.262 505.415 112.262ZM519.881 100.4V113H518.963V101.228H515.885V100.4H519.881ZM531.464 112.172V113H522.806V112.352L528.134 107.06C528.83 106.364 529.298 105.77 529.538 105.278C529.79 104.774 529.916 104.258 529.916 103.73C529.916 102.926 529.64 102.296 529.088 101.84C528.548 101.384 527.762 101.156 526.73 101.156C525.938 101.156 525.242 101.276 524.642 101.516C524.054 101.756 523.544 102.122 523.112 102.614L522.464 102.038C522.944 101.486 523.55 101.06 524.282 100.76C525.026 100.46 525.866 100.31 526.802 100.31C528.038 100.31 529.022 100.61 529.754 101.21C530.486 101.81 530.852 102.62 530.852 103.64C530.852 104.288 530.708 104.906 530.42 105.494C530.132 106.082 529.592 106.766 528.8 107.546L524.156 112.172H531.464ZM533.075 116.492C533.771 115.316 534.281 114.032 534.605 112.64C534.929 111.248 535.091 109.724 535.091 108.068C535.091 106.412 534.929 104.888 534.605 103.496C534.281 102.104 533.771 100.82 533.075 99.644H533.921C534.593 100.712 535.103 101.972 535.451 103.424C535.811 104.864 535.991 106.412 535.991 108.068C535.991 109.724 535.811 111.272 535.451 112.712C535.103 114.14 534.593 115.4 533.921 116.492H533.075ZM544.579 103.604H545.479V111.614L552.175 103.604H552.967V113H552.067V104.99L545.371 113H544.579V103.604ZM567.033 108.158C568.413 108.398 569.103 109.172 569.103 110.48C569.103 111.296 568.803 111.92 568.203 112.352C567.615 112.784 566.727 113 565.539 113H561.471V103.604H565.431C566.475 103.604 567.291 103.814 567.879 104.234C568.479 104.642 568.779 105.23 568.779 105.998C568.779 106.55 568.623 107.012 568.311 107.384C568.011 107.744 567.585 108.002 567.033 108.158ZM562.353 107.888H565.377C566.181 107.888 566.799 107.738 567.231 107.438C567.663 107.126 567.879 106.682 567.879 106.106C567.879 105.518 567.663 105.08 567.231 104.792C566.811 104.492 566.193 104.342 565.377 104.342H562.353V107.888ZM565.521 112.262C567.309 112.262 568.203 111.656 568.203 110.444C568.203 109.808 567.999 109.34 567.591 109.04C567.183 108.74 566.541 108.59 565.665 108.59H562.353V112.262H565.521ZM576.007 107.024C577.171 107.036 578.059 107.294 578.671 107.798C579.283 108.29 579.589 109.016 579.589 109.976C579.589 110.972 579.265 111.734 578.617 112.262C577.969 112.79 577.033 113.048 575.809 113.036L572.299 113V103.604H573.199V106.988L576.007 107.024ZM581.317 103.604H582.217V113H581.317V103.604ZM575.773 112.316C576.733 112.328 577.459 112.136 577.951 111.74C578.443 111.344 578.689 110.756 578.689 109.976C578.689 109.22 578.449 108.662 577.969 108.302C577.489 107.93 576.757 107.732 575.773 107.708L573.199 107.69V112.28L575.773 112.316ZM10.594 135.604L5.77 146.278C5.41 147.106 4.99 147.694 4.51 148.042C4.042 148.39 3.484 148.564 2.836 148.564C2.404 148.564 1.996 148.492 1.612 148.348C1.24 148.204 0.922 147.994 0.658 147.718L1.108 147.034C1.588 147.526 2.17 147.772 2.854 147.772C3.31 147.772 3.7 147.646 4.024 147.394C4.348 147.142 4.648 146.71 4.924 146.098L5.428 144.964L1.198 135.604H2.152L5.914 144.01L9.676 135.604H10.594ZM16.6821 140.104C17.3781 140.236 17.9121 140.5 18.2841 140.896C18.6681 141.28 18.8601 141.754 18.8601 142.318C18.8601 142.87 18.6741 143.356 18.3021 143.776C17.9421 144.196 17.4501 144.52 16.8261 144.748C16.2021 144.976 15.5241 145.09 14.7921 145.09C14.1201 145.09 13.4601 144.988 12.8121 144.784C12.1761 144.568 11.6181 144.262 11.1381 143.866L11.4981 143.2C11.9181 143.56 12.4161 143.836 12.9921 144.028C13.5801 144.22 14.1741 144.316 14.7741 144.316C15.6621 144.316 16.4121 144.13 17.0241 143.758C17.6361 143.374 17.9421 142.87 17.9421 142.246C17.9421 141.694 17.6841 141.262 17.1681 140.95C16.6641 140.626 15.9801 140.464 15.1161 140.464H13.6041V139.78H15.0801C15.8361 139.78 16.4541 139.63 16.9341 139.33C17.4261 139.03 17.6721 138.628 17.6721 138.124C17.6721 137.536 17.4021 137.086 16.8621 136.774C16.3341 136.45 15.6561 136.288 14.8281 136.288C13.7721 136.288 12.7761 136.558 11.8401 137.098L11.5701 136.378C12.6261 135.79 13.7481 135.496 14.9361 135.496C15.9801 135.496 16.8501 135.724 17.5461 136.18C18.2421 136.624 18.5901 137.23 18.5901 137.998C18.5901 138.49 18.4161 138.922 18.0681 139.294C17.7201 139.666 17.2581 139.936 16.6821 140.104ZM21.9987 135.604H22.8987V139.888H29.2707V135.604H30.1707V145H29.2707V140.68H22.8987V145H21.9987V135.604ZM37.1713 135.532C38.3353 135.532 39.2293 135.832 39.8533 136.432C40.4773 137.02 40.7893 137.89 40.7893 139.042V145H39.9253V143.326C39.6253 143.878 39.1873 144.31 38.6113 144.622C38.0353 144.922 37.3453 145.072 36.5413 145.072C35.4973 145.072 34.6693 144.826 34.0573 144.334C33.4573 143.842 33.1573 143.194 33.1573 142.39C33.1573 141.61 33.4333 140.98 33.9853 140.5C34.5493 140.008 35.4433 139.762 36.6673 139.762H39.8893V139.006C39.8893 138.13 39.6493 137.464 39.1693 137.008C38.7013 136.552 38.0113 136.324 37.0993 136.324C36.4753 136.324 35.8753 136.432 35.2993 136.648C34.7353 136.864 34.2553 137.152 33.8593 137.512L33.4093 136.864C33.8773 136.444 34.4413 136.12 35.1013 135.892C35.7613 135.652 36.4513 135.532 37.1713 135.532ZM36.6673 144.334C37.4473 144.334 38.1073 144.154 38.6473 143.794C39.1993 143.434 39.6133 142.912 39.8893 142.228V140.464H36.6853C35.7613 140.464 35.0893 140.632 34.6693 140.968C34.2613 141.304 34.0573 141.766 34.0573 142.354C34.0573 142.966 34.2853 143.452 34.7413 143.812C35.1973 144.16 35.8393 144.334 36.6673 144.334ZM52.456 140.518H44.374C44.398 141.25 44.584 141.904 44.932 142.48C45.28 143.044 45.748 143.482 46.336 143.794C46.936 144.106 47.608 144.262 48.352 144.262C48.964 144.262 49.528 144.154 50.044 143.938C50.572 143.71 51.01 143.38 51.358 142.948L51.88 143.542C51.472 144.034 50.956 144.412 50.332 144.676C49.72 144.94 49.054 145.072 48.334 145.072C47.398 145.072 46.564 144.868 45.832 144.46C45.1 144.052 44.524 143.488 44.104 142.768C43.696 142.048 43.492 141.226 43.492 140.302C43.492 139.39 43.684 138.574 44.068 137.854C44.464 137.122 45.004 136.552 45.688 136.144C46.372 135.736 47.14 135.532 47.992 135.532C48.844 135.532 49.606 135.736 50.278 136.144C50.962 136.54 51.496 137.098 51.88 137.818C52.276 138.538 52.474 139.354 52.474 140.266L52.456 140.518ZM47.992 136.324C47.332 136.324 46.738 136.474 46.21 136.774C45.682 137.062 45.256 137.476 44.932 138.016C44.62 138.544 44.44 139.144 44.392 139.816H51.592C51.556 139.144 51.376 138.544 51.052 138.016C50.728 137.488 50.302 137.074 49.774 136.774C49.246 136.474 48.652 136.324 47.992 136.324ZM61.2573 136.414H57.5853V145H56.6853V136.414H53.0132V135.604H61.2573V136.414ZM70.7548 140.518H62.6728C62.6968 141.25 62.8828 141.904 63.2308 142.48C63.5788 143.044 64.0468 143.482 64.6348 143.794C65.2348 144.106 65.9068 144.262 66.6508 144.262C67.2628 144.262 67.8268 144.154 68.3428 143.938C68.8708 143.71 69.3088 143.38 69.6568 142.948L70.1788 143.542C69.7708 144.034 69.2548 144.412 68.6308 144.676C68.0188 144.94 67.3528 145.072 66.6328 145.072C65.6968 145.072 64.8628 144.868 64.1308 144.46C63.3988 144.052 62.8228 143.488 62.4028 142.768C61.9948 142.048 61.7908 141.226 61.7908 140.302C61.7908 139.39 61.9828 138.574 62.3668 137.854C62.7628 137.122 63.3028 136.552 63.9868 136.144C64.6708 135.736 65.4388 135.532 66.2908 135.532C67.1428 135.532 67.9048 135.736 68.5768 136.144C69.2608 136.54 69.7948 137.098 70.1788 137.818C70.5748 138.538 70.7728 139.354 70.7728 140.266L70.7548 140.518ZM66.2908 136.324C65.6308 136.324 65.0368 136.474 64.5088 136.774C63.9808 137.062 63.5548 137.476 63.2308 138.016C62.9188 138.544 62.7388 139.144 62.6908 139.816H69.8908C69.8548 139.144 69.6748 138.544 69.3508 138.016C69.0268 137.488 68.6008 137.074 68.0728 136.774C67.5448 136.474 66.9508 136.324 66.2908 136.324ZM81.5226 140.644H79.2366V145H78.3366V135.604H79.2366V139.87H81.5226L85.0686 135.604H86.0586L82.2426 140.158L86.3466 145H85.2666L81.5226 140.644ZM96.3761 140.644H94.0901V145H93.1901V135.604H94.0901V139.87H96.3761L99.9221 135.604H100.912L97.0961 140.158L101.2 145H100.12L96.3761 140.644ZM106.359 135.532C107.523 135.532 108.417 135.832 109.041 136.432C109.665 137.02 109.977 137.89 109.977 139.042V145H109.113V143.326C108.813 143.878 108.375 144.31 107.799 144.622C107.223 144.922 106.533 145.072 105.729 145.072C104.685 145.072 103.857 144.826 103.245 144.334C102.645 143.842 102.345 143.194 102.345 142.39C102.345 141.61 102.621 140.98 103.173 140.5C103.737 140.008 104.631 139.762 105.855 139.762H109.077V139.006C109.077 138.13 108.837 137.464 108.357 137.008C107.889 136.552 107.199 136.324 106.287 136.324C105.663 136.324 105.063 136.432 104.487 136.648C103.923 136.864 103.443 137.152 103.047 137.512L102.597 136.864C103.065 136.444 103.629 136.12 104.289 135.892C104.949 135.652 105.639 135.532 106.359 135.532ZM105.855 144.334C106.635 144.334 107.295 144.154 107.835 143.794C108.387 143.434 108.801 142.912 109.077 142.228V140.464H105.873C104.949 140.464 104.277 140.632 103.857 140.968C103.449 141.304 103.245 141.766 103.245 142.354C103.245 142.966 103.473 143.452 103.929 143.812C104.385 144.16 105.027 144.334 105.855 144.334ZM116.819 140.644H114.533V145H113.633V135.604H114.533V139.87H116.819L120.365 135.604H121.355L117.539 140.158L121.643 145H120.563L116.819 140.644ZM127.274 145.072C126.386 145.072 125.582 144.868 124.862 144.46C124.154 144.052 123.596 143.488 123.188 142.768C122.78 142.036 122.576 141.214 122.576 140.302C122.576 139.39 122.78 138.574 123.188 137.854C123.596 137.122 124.154 136.552 124.862 136.144C125.582 135.736 126.386 135.532 127.274 135.532C128.162 135.532 128.96 135.736 129.668 136.144C130.388 136.552 130.952 137.122 131.36 137.854C131.768 138.574 131.972 139.39 131.972 140.302C131.972 141.214 131.768 142.036 131.36 142.768C130.952 143.488 130.388 144.052 129.668 144.46C128.96 144.868 128.162 145.072 127.274 145.072ZM127.274 144.262C127.994 144.262 128.636 144.094 129.2 143.758C129.776 143.422 130.226 142.954 130.55 142.354C130.886 141.754 131.054 141.07 131.054 140.302C131.054 139.534 130.886 138.85 130.55 138.25C130.226 137.65 129.776 137.182 129.2 136.846C128.636 136.51 127.994 136.342 127.274 136.342C126.554 136.342 125.906 136.51 125.33 136.846C124.766 137.182 124.316 137.65 123.98 138.25C123.656 138.85 123.494 139.534 123.494 140.302C123.494 141.07 123.656 141.754 123.98 142.354C124.316 142.954 124.766 143.422 125.33 143.758C125.906 144.094 126.554 144.262 127.274 144.262ZM145.127 135.604V145H144.299V137.044L140.213 143.794H139.799L135.731 137.062V145H134.903V135.604H135.785L140.033 142.714L144.299 135.604H145.127ZM156.668 135.604L151.844 146.278C151.484 147.106 151.064 147.694 150.584 148.042C150.116 148.39 149.558 148.564 148.91 148.564C148.478 148.564 148.07 148.492 147.686 148.348C147.314 148.204 146.996 147.994 146.732 147.718L147.182 147.034C147.662 147.526 148.244 147.772 148.928 147.772C149.384 147.772 149.774 147.646 150.098 147.394C150.422 147.142 150.722 146.71 150.998 146.098L151.502 144.964L147.272 135.604H148.226L151.988 144.01L155.75 135.604H156.668ZM169.029 140.158C170.409 140.398 171.099 141.172 171.099 142.48C171.099 143.296 170.799 143.92 170.199 144.352C169.611 144.784 168.723 145 167.535 145H163.467V135.604H167.427C168.471 135.604 169.287 135.814 169.875 136.234C170.475 136.642 170.775 137.23 170.775 137.998C170.775 138.55 170.619 139.012 170.307 139.384C170.007 139.744 169.581 140.002 169.029 140.158ZM164.349 139.888H167.373C168.177 139.888 168.795 139.738 169.227 139.438C169.659 139.126 169.875 138.682 169.875 138.106C169.875 137.518 169.659 137.08 169.227 136.792C168.807 136.492 168.189 136.342 167.373 136.342H164.349V139.888ZM167.517 144.262C169.305 144.262 170.199 143.656 170.199 142.444C170.199 141.808 169.995 141.34 169.587 141.04C169.179 140.74 168.537 140.59 167.661 140.59H164.349V144.262H167.517ZM179.03 135.532C179.906 135.532 180.698 135.736 181.406 136.144C182.114 136.552 182.666 137.116 183.062 137.836C183.47 138.556 183.674 139.378 183.674 140.302C183.674 141.226 183.47 142.054 183.062 142.786C182.666 143.506 182.114 144.07 181.406 144.478C180.698 144.874 179.906 145.072 179.03 145.072C178.202 145.072 177.452 144.88 176.78 144.496C176.108 144.1 175.586 143.554 175.214 142.858V148.492H174.314V135.604H175.178V137.818C175.55 137.098 176.072 136.54 176.744 136.144C177.428 135.736 178.19 135.532 179.03 135.532ZM178.976 144.262C179.696 144.262 180.344 144.094 180.92 143.758C181.496 143.422 181.946 142.954 182.27 142.354C182.606 141.754 182.774 141.07 182.774 140.302C182.774 139.534 182.606 138.85 182.27 138.25C181.946 137.65 181.496 137.182 180.92 136.846C180.344 136.51 179.696 136.342 178.976 136.342C178.256 136.342 177.608 136.51 177.032 136.846C176.468 137.182 176.018 137.65 175.682 138.25C175.358 138.85 175.196 139.534 175.196 140.302C175.196 141.07 175.358 141.754 175.682 142.354C176.018 142.954 176.468 143.422 177.032 143.758C177.608 144.094 178.256 144.262 178.976 144.262ZM194.61 140.518H186.528C186.552 141.25 186.738 141.904 187.086 142.48C187.434 143.044 187.902 143.482 188.49 143.794C189.09 144.106 189.762 144.262 190.506 144.262C191.118 144.262 191.682 144.154 192.198 143.938C192.726 143.71 193.164 143.38 193.512 142.948L194.034 143.542C193.626 144.034 193.11 144.412 192.486 144.676C191.874 144.94 191.208 145.072 190.488 145.072C189.552 145.072 188.718 144.868 187.986 144.46C187.254 144.052 186.678 143.488 186.258 142.768C185.85 142.048 185.646 141.226 185.646 140.302C185.646 139.39 185.838 138.574 186.222 137.854C186.618 137.122 187.158 136.552 187.842 136.144C188.526 135.736 189.294 135.532 190.146 135.532C190.998 135.532 191.76 135.736 192.432 136.144C193.116 136.54 193.65 137.098 194.034 137.818C194.43 138.538 194.628 139.354 194.628 140.266L194.61 140.518ZM190.146 136.324C189.486 136.324 188.892 136.474 188.364 136.774C187.836 137.062 187.41 137.476 187.086 138.016C186.774 138.544 186.594 139.144 186.546 139.816H193.746C193.71 139.144 193.53 138.544 193.206 138.016C192.882 137.488 192.456 137.074 191.928 136.774C191.4 136.474 190.806 136.324 190.146 136.324ZM207.793 135.604V145H206.965V137.044L202.879 143.794H202.465L198.397 137.062V145H197.569V135.604H198.451L202.699 142.714L206.965 135.604H207.793ZM219.694 140.518H211.612C211.636 141.25 211.822 141.904 212.17 142.48C212.518 143.044 212.986 143.482 213.574 143.794C214.174 144.106 214.846 144.262 215.59 144.262C216.202 144.262 216.766 144.154 217.282 143.938C217.81 143.71 218.248 143.38 218.596 142.948L219.118 143.542C218.71 144.034 218.194 144.412 217.57 144.676C216.958 144.94 216.292 145.072 215.572 145.072C214.636 145.072 213.802 144.868 213.07 144.46C212.338 144.052 211.762 143.488 211.342 142.768C210.934 142.048 210.73 141.226 210.73 140.302C210.73 139.39 210.922 138.574 211.306 137.854C211.702 137.122 212.242 136.552 212.926 136.144C213.61 135.736 214.378 135.532 215.23 135.532C216.082 135.532 216.844 135.736 217.516 136.144C218.2 136.54 218.734 137.098 219.118 137.818C219.514 138.538 219.712 139.354 219.712 140.266L219.694 140.518ZM215.23 136.324C214.57 136.324 213.976 136.474 213.448 136.774C212.92 137.062 212.494 137.476 212.17 138.016C211.858 138.544 211.678 139.144 211.63 139.816H218.83C218.794 139.144 218.614 138.544 218.29 138.016C217.966 137.488 217.54 137.074 217.012 136.774C216.484 136.474 215.89 136.324 215.23 136.324ZM222.653 135.604H223.553V139.888H229.925V135.604H230.825V145H229.925V140.68H223.553V145H222.653V135.604ZM234.712 135.604H235.612V143.614L242.308 135.604H243.1V145H242.2V136.99L235.504 145H234.712V135.604ZM258.03 136.414H252.504V145H251.604V135.604H258.03V136.414ZM263.258 145.072C262.37 145.072 261.566 144.868 260.846 144.46C260.138 144.052 259.58 143.488 259.172 142.768C258.764 142.036 258.56 141.214 258.56 140.302C258.56 139.39 258.764 138.574 259.172 137.854C259.58 137.122 260.138 136.552 260.846 136.144C261.566 135.736 262.37 135.532 263.258 135.532C264.146 135.532 264.944 135.736 265.652 136.144C266.372 136.552 266.936 137.122 267.344 137.854C267.752 138.574 267.956 139.39 267.956 140.302C267.956 141.214 267.752 142.036 267.344 142.768C266.936 143.488 266.372 144.052 265.652 144.46C264.944 144.868 264.146 145.072 263.258 145.072ZM263.258 144.262C263.978 144.262 264.62 144.094 265.184 143.758C265.76 143.422 266.21 142.954 266.534 142.354C266.87 141.754 267.038 141.07 267.038 140.302C267.038 139.534 266.87 138.85 266.534 138.25C266.21 137.65 265.76 137.182 265.184 136.846C264.62 136.51 263.978 136.342 263.258 136.342C262.538 136.342 261.89 136.51 261.314 136.846C260.75 137.182 260.3 137.65 259.964 138.25C259.64 138.85 259.478 139.534 259.478 140.302C259.478 141.07 259.64 141.754 259.964 142.354C260.3 142.954 260.75 143.422 261.314 143.758C261.89 144.094 262.538 144.262 263.258 144.262ZM279.69 144.208V147.34H278.844V145H269.952V147.34H269.088V144.208H269.646C270.282 144.172 270.714 143.68 270.942 142.732C271.182 141.772 271.35 140.428 271.446 138.7L271.572 135.604H278.178V144.208H279.69ZM272.274 138.754C272.214 140.182 272.094 141.37 271.914 142.318C271.734 143.266 271.41 143.896 270.942 144.208H277.278V136.414H272.382L272.274 138.754ZM285.462 135.532C286.626 135.532 287.52 135.832 288.144 136.432C288.768 137.02 289.08 137.89 289.08 139.042V145H288.216V143.326C287.916 143.878 287.478 144.31 286.902 144.622C286.326 144.922 285.636 145.072 284.832 145.072C283.788 145.072 282.96 144.826 282.348 144.334C281.748 143.842 281.448 143.194 281.448 142.39C281.448 141.61 281.724 140.98 282.276 140.5C282.84 140.008 283.734 139.762 284.958 139.762H288.18V139.006C288.18 138.13 287.94 137.464 287.46 137.008C286.992 136.552 286.302 136.324 285.39 136.324C284.766 136.324 284.166 136.432 283.59 136.648C283.026 136.864 282.546 137.152 282.15 137.512L281.7 136.864C282.168 136.444 282.732 136.12 283.392 135.892C284.052 135.652 284.742 135.532 285.462 135.532ZM284.958 144.334C285.738 144.334 286.398 144.154 286.938 143.794C287.49 143.434 287.904 142.912 288.18 142.228V140.464H284.976C284.052 140.464 283.38 140.632 282.96 140.968C282.552 141.304 282.348 141.766 282.348 142.354C282.348 142.966 282.576 143.452 283.032 143.812C283.488 144.16 284.13 144.334 284.958 144.334ZM301.104 145.072C300.216 145.072 299.412 144.868 298.692 144.46C297.984 144.052 297.426 143.488 297.018 142.768C296.61 142.036 296.406 141.214 296.406 140.302C296.406 139.39 296.61 138.574 297.018 137.854C297.426 137.122 297.984 136.552 298.692 136.144C299.412 135.736 300.216 135.532 301.104 135.532C301.992 135.532 302.79 135.736 303.498 136.144C304.218 136.552 304.782 137.122 305.19 137.854C305.598 138.574 305.802 139.39 305.802 140.302C305.802 141.214 305.598 142.036 305.19 142.768C304.782 143.488 304.218 144.052 303.498 144.46C302.79 144.868 301.992 145.072 301.104 145.072ZM301.104 144.262C301.824 144.262 302.466 144.094 303.03 143.758C303.606 143.422 304.056 142.954 304.38 142.354C304.716 141.754 304.884 141.07 304.884 140.302C304.884 139.534 304.716 138.85 304.38 138.25C304.056 137.65 303.606 137.182 303.03 136.846C302.466 136.51 301.824 136.342 301.104 136.342C300.384 136.342 299.736 136.51 299.16 136.846C298.596 137.182 298.146 137.65 297.81 138.25C297.486 138.85 297.324 139.534 297.324 140.302C297.324 141.07 297.486 141.754 297.81 142.354C298.146 142.954 298.596 143.422 299.16 143.758C299.736 144.094 300.384 144.262 301.104 144.262ZM308.733 135.604H309.633V139.888H316.005V135.604H316.905V145H316.005V140.68H309.633V145H308.733V135.604ZM329.159 145.072C328.271 145.072 327.467 144.868 326.747 144.46C326.039 144.052 325.481 143.488 325.073 142.768C324.665 142.036 324.461 141.214 324.461 140.302C324.461 139.39 324.665 138.574 325.073 137.854C325.481 137.122 326.039 136.552 326.747 136.144C327.467 135.736 328.271 135.532 329.159 135.532C330.047 135.532 330.845 135.736 331.553 136.144C332.273 136.552 332.837 137.122 333.245 137.854C333.653 138.574 333.857 139.39 333.857 140.302C333.857 141.214 333.653 142.036 333.245 142.768C332.837 143.488 332.273 144.052 331.553 144.46C330.845 144.868 330.047 145.072 329.159 145.072ZM329.159 144.262C329.879 144.262 330.521 144.094 331.085 143.758C331.661 143.422 332.111 142.954 332.435 142.354C332.771 141.754 332.939 141.07 332.939 140.302C332.939 139.534 332.771 138.85 332.435 138.25C332.111 137.65 331.661 137.182 331.085 136.846C330.521 136.51 329.879 136.342 329.159 136.342C328.439 136.342 327.791 136.51 327.215 136.846C326.651 137.182 326.201 137.65 325.865 138.25C325.541 138.85 325.379 139.534 325.379 140.302C325.379 141.07 325.541 141.754 325.865 142.354C326.201 142.954 326.651 143.422 327.215 143.758C327.791 144.094 328.439 144.262 329.159 144.262ZM342.718 136.414H339.046V145H338.146V136.414H334.474V135.604H342.718V136.414ZM344.645 135.604H345.545V139.888H351.917V135.604H352.817V145H351.917V140.68H345.545V145H344.645V135.604ZM360.448 145.072C359.56 145.072 358.756 144.868 358.036 144.46C357.328 144.052 356.77 143.488 356.362 142.768C355.954 142.036 355.75 141.214 355.75 140.302C355.75 139.39 355.954 138.574 356.362 137.854C356.77 137.122 357.328 136.552 358.036 136.144C358.756 135.736 359.56 135.532 360.448 135.532C361.336 135.532 362.134 135.736 362.842 136.144C363.562 136.552 364.126 137.122 364.534 137.854C364.942 138.574 365.146 139.39 365.146 140.302C365.146 141.214 364.942 142.036 364.534 142.768C364.126 143.488 363.562 144.052 362.842 144.46C362.134 144.868 361.336 145.072 360.448 145.072ZM360.448 144.262C361.168 144.262 361.81 144.094 362.374 143.758C362.95 143.422 363.4 142.954 363.724 142.354C364.06 141.754 364.228 141.07 364.228 140.302C364.228 139.534 364.06 138.85 363.724 138.25C363.4 137.65 362.95 137.182 362.374 136.846C361.81 136.51 361.168 136.342 360.448 136.342C359.728 136.342 359.08 136.51 358.504 136.846C357.94 137.182 357.49 137.65 357.154 138.25C356.83 138.85 356.668 139.534 356.668 140.302C356.668 141.07 356.83 141.754 357.154 142.354C357.49 142.954 357.94 143.422 358.504 143.758C359.08 144.094 359.728 144.262 360.448 144.262ZM371.875 145.072C370.963 145.072 370.147 144.868 369.427 144.46C368.707 144.052 368.143 143.488 367.735 142.768C367.327 142.036 367.123 141.214 367.123 140.302C367.123 139.378 367.327 138.556 367.735 137.836C368.143 137.104 368.707 136.54 369.427 136.144C370.147 135.736 370.963 135.532 371.875 135.532C372.631 135.532 373.315 135.682 373.927 135.982C374.551 136.27 375.055 136.696 375.439 137.26L374.773 137.746C374.437 137.278 374.017 136.93 373.513 136.702C373.021 136.462 372.475 136.342 371.875 136.342C371.143 136.342 370.483 136.51 369.895 136.846C369.319 137.17 368.863 137.632 368.527 138.232C368.203 138.832 368.041 139.522 368.041 140.302C368.041 141.082 368.203 141.772 368.527 142.372C368.863 142.972 369.319 143.44 369.895 143.776C370.483 144.1 371.143 144.262 371.875 144.262C372.475 144.262 373.021 144.148 373.513 143.92C374.017 143.68 374.437 143.326 374.773 142.858L375.439 143.344C375.055 143.908 374.551 144.34 373.927 144.64C373.315 144.928 372.631 145.072 371.875 145.072ZM378.096 135.604H378.996V143.614L385.692 135.604H386.484V145H385.584V136.99L378.888 145H378.096V135.604ZM396.648 136.414H392.976V145H392.076V136.414H388.404V135.604H396.648V136.414ZM401.933 145.072C401.021 145.072 400.205 144.868 399.485 144.46C398.765 144.052 398.201 143.488 397.793 142.768C397.385 142.036 397.181 141.214 397.181 140.302C397.181 139.378 397.385 138.556 397.793 137.836C398.201 137.104 398.765 136.54 399.485 136.144C400.205 135.736 401.021 135.532 401.933 135.532C402.689 135.532 403.373 135.682 403.985 135.982C404.609 136.27 405.113 136.696 405.497 137.26L404.831 137.746C404.495 137.278 404.075 136.93 403.571 136.702C403.079 136.462 402.533 136.342 401.933 136.342C401.201 136.342 400.541 136.51 399.953 136.846C399.377 137.17 398.921 137.632 398.585 138.232C398.261 138.832 398.099 139.522 398.099 140.302C398.099 141.082 398.261 141.772 398.585 142.372C398.921 142.972 399.377 143.44 399.953 143.776C400.541 144.1 401.201 144.262 401.933 144.262C402.533 144.262 403.079 144.148 403.571 143.92C404.075 143.68 404.495 143.326 404.831 142.858L405.497 143.344C405.113 143.908 404.609 144.34 403.985 144.64C403.373 144.928 402.689 145.072 401.933 145.072ZM414.751 135.604V145H413.923V141.76H410.791C410.575 141.76 410.419 141.754 410.323 141.742L408.001 145H407.011L409.441 141.634C408.673 141.466 408.085 141.136 407.677 140.644C407.269 140.152 407.065 139.516 407.065 138.736C407.065 137.704 407.407 136.924 408.091 136.396C408.787 135.868 409.735 135.604 410.935 135.604H414.751ZM407.965 138.772C407.965 140.308 408.937 141.076 410.881 141.076H413.923V136.396H410.989C408.973 136.396 407.965 137.188 407.965 138.772Z" fill="white"/>
<rect x="1" y="187" width="234.063" height="48.6031" rx="24.3015" fill="#9C0332"/>
<path d="M77.1555 204.702H78.4695V215.142L86.5335 204.702H87.7395V217.302H86.4255V206.88L78.3615 217.302H77.1555V204.702ZM98.3814 208.968H92.9634V217.302H91.6854V207.834H98.3814V208.968ZM105.106 207.762C105.994 207.762 106.798 207.966 107.518 208.374C108.238 208.77 108.802 209.334 109.21 210.066C109.618 210.798 109.822 211.632 109.822 212.568C109.822 213.516 109.618 214.356 109.21 215.088C108.802 215.82 108.238 216.39 107.518 216.798C106.81 217.194 106.006 217.392 105.106 217.392C104.338 217.392 103.642 217.236 103.018 216.924C102.406 216.6 101.902 216.132 101.506 215.52V220.794H100.228V207.834H101.452V209.706C101.836 209.082 102.34 208.602 102.964 208.266C103.6 207.93 104.314 207.762 105.106 207.762ZM105.016 216.258C105.676 216.258 106.276 216.108 106.816 215.808C107.356 215.496 107.776 215.058 108.076 214.494C108.388 213.93 108.544 213.288 108.544 212.568C108.544 211.848 108.388 211.212 108.076 210.66C107.776 210.096 107.356 209.658 106.816 209.346C106.276 209.034 105.676 208.878 105.016 208.878C104.344 208.878 103.738 209.034 103.198 209.346C102.67 209.658 102.25 210.096 101.938 210.66C101.638 211.212 101.488 211.848 101.488 212.568C101.488 213.288 101.638 213.93 101.938 214.494C102.25 215.058 102.67 215.496 103.198 215.808C103.738 216.108 104.344 216.258 105.016 216.258ZM115.774 207.762C117.01 207.762 117.958 208.074 118.618 208.698C119.278 209.31 119.608 210.222 119.608 211.434V217.302H118.384V215.826C118.096 216.318 117.67 216.702 117.106 216.978C116.554 217.254 115.894 217.392 115.126 217.392C114.07 217.392 113.23 217.14 112.606 216.636C111.982 216.132 111.67 215.466 111.67 214.638C111.67 213.834 111.958 213.186 112.534 212.694C113.122 212.202 114.052 211.956 115.324 211.956H118.33V211.38C118.33 210.564 118.102 209.946 117.646 209.526C117.19 209.094 116.524 208.878 115.648 208.878C115.048 208.878 114.472 208.98 113.92 209.184C113.368 209.376 112.894 209.646 112.498 209.994L111.922 209.04C112.402 208.632 112.978 208.32 113.65 208.104C114.322 207.876 115.03 207.762 115.774 207.762ZM115.324 216.384C116.044 216.384 116.662 216.222 117.178 215.898C117.694 215.562 118.078 215.082 118.33 214.458V212.91H115.36C113.74 212.91 112.93 213.474 112.93 214.602C112.93 215.154 113.14 215.592 113.56 215.916C113.98 216.228 114.568 216.384 115.324 216.384ZM129.67 208.968H126.088V217.302H124.81V208.968H121.228V207.834H129.67V208.968ZM135.585 211.182C136.773 211.194 137.673 211.458 138.285 211.974C138.909 212.49 139.221 213.234 139.221 214.206C139.221 215.214 138.885 215.988 138.213 216.528C137.553 217.068 136.593 217.332 135.333 217.32L131.517 217.302V207.834H132.795V211.146L135.585 211.182ZM135.261 216.348C136.137 216.36 136.797 216.186 137.241 215.826C137.697 215.454 137.925 214.914 137.925 214.206C137.925 213.51 137.703 212.994 137.259 212.658C136.815 212.322 136.149 212.148 135.261 212.136L132.795 212.1V216.312L135.261 216.348ZM141.426 204.702H142.938L142.668 213.522H141.678L141.426 204.702ZM142.182 217.392C141.918 217.392 141.69 217.302 141.498 217.122C141.318 216.93 141.228 216.708 141.228 216.456C141.228 216.192 141.318 215.976 141.498 215.808C141.678 215.628 141.906 215.538 142.182 215.538C142.446 215.538 142.668 215.628 142.848 215.808C143.028 215.976 143.118 216.192 143.118 216.456C143.118 216.708 143.028 216.93 142.848 217.122C142.668 217.302 142.446 217.392 142.182 217.392Z" fill="white"/>
</svg>
