<svg width="343" height="218" viewBox="0 0 343 218" fill="none" xmlns="http://www.w3.org/2000/svg">
<path d="M68.7884 19.32C70.1537 19.7253 71.199 20.3867 71.9244 21.304C72.6497 22.2213 73.0124 23.352 73.0124 24.696C73.0124 26.68 72.255 28.2267 70.7404 29.336C69.247 30.4453 67.103 31 64.3084 31H53.2684V8.6H63.7004C66.303 8.6 68.3297 9.10133 69.7804 10.104C71.231 11.1067 71.9564 12.536 71.9564 14.392C71.9564 15.5013 71.679 16.4827 71.1244 17.336C70.5697 18.168 69.791 18.8293 68.7884 19.32ZM58.4204 17.88H63.2524C64.383 17.88 65.2364 17.656 65.8124 17.208C66.3884 16.7387 66.6764 16.056 66.6764 15.16C66.6764 14.2853 66.3777 13.6133 65.7804 13.144C65.2044 12.6747 64.3617 12.44 63.2524 12.44H58.4204V17.88ZM64.1164 27.16C66.5484 27.16 67.7644 26.2 67.7644 24.28C67.7644 22.424 66.5484 21.496 64.1164 21.496H58.4204V27.16H64.1164ZM86.8721 13.528C88.4721 13.528 89.9228 13.9013 91.2241 14.648C92.5468 15.3733 93.5815 16.408 94.3281 17.752C95.0748 19.0747 95.4481 20.6213 95.4481 22.392C95.4481 24.1627 95.0748 25.72 94.3281 27.064C93.5815 28.3867 92.5468 29.4213 91.2241 30.168C89.9228 30.8933 88.4721 31.256 86.8721 31.256C84.6748 31.256 82.9468 30.5627 81.6881 29.176V37.208H76.6961V13.784H81.4641V15.768C82.7015 14.2747 84.5041 13.528 86.8721 13.528ZM86.0081 27.16C87.2881 27.16 88.3335 26.7333 89.1441 25.88C89.9761 25.0053 90.3921 23.8427 90.3921 22.392C90.3921 20.9413 89.9761 19.7893 89.1441 18.936C88.3335 18.0613 87.2881 17.624 86.0081 17.624C84.7281 17.624 83.6721 18.0613 82.8401 18.936C82.0295 19.7893 81.6241 20.9413 81.6241 22.392C81.6241 23.8427 82.0295 25.0053 82.8401 25.88C83.6721 26.7333 84.7281 27.16 86.0081 27.16ZM115.683 22.456C115.683 22.52 115.651 22.968 115.587 23.8H102.563C102.798 24.8667 103.352 25.7093 104.227 26.328C105.102 26.9467 106.19 27.256 107.491 27.256C108.387 27.256 109.176 27.128 109.859 26.872C110.563 26.5947 111.214 26.168 111.811 25.592L114.467 28.472C112.846 30.328 110.478 31.256 107.363 31.256C105.422 31.256 103.704 30.8827 102.211 30.136C100.718 29.368 99.5655 28.312 98.7549 26.968C97.9442 25.624 97.5389 24.0987 97.5389 22.392C97.5389 20.7067 97.9335 19.192 98.7229 17.848C99.5335 16.4827 100.632 15.4267 102.019 14.68C103.427 13.912 104.995 13.528 106.723 13.528C108.408 13.528 109.934 13.8907 111.299 14.616C112.664 15.3413 113.731 16.3867 114.499 17.752C115.288 19.096 115.683 20.664 115.683 22.456ZM106.755 17.304C105.624 17.304 104.675 17.624 103.907 18.264C103.139 18.904 102.67 19.7787 102.499 20.888H110.979C110.808 19.8 110.339 18.936 109.571 18.296C108.803 17.6347 107.864 17.304 106.755 17.304ZM136.309 31V20.696L131.157 29.336H129.045L124.021 20.664V31H119.509V13.784H124.725L130.229 23.736L136.085 13.784H140.757L140.821 31H136.309ZM162.339 22.456C162.339 22.52 162.307 22.968 162.243 23.8H149.219C149.454 24.8667 150.008 25.7093 150.883 26.328C151.758 26.9467 152.846 27.256 154.147 27.256C155.043 27.256 155.832 27.128 156.515 26.872C157.219 26.5947 157.87 26.168 158.467 25.592L161.123 28.472C159.502 30.328 157.134 31.256 154.019 31.256C152.078 31.256 150.36 30.8827 148.867 30.136C147.374 29.368 146.222 28.312 145.411 26.968C144.6 25.624 144.195 24.0987 144.195 22.392C144.195 20.7067 144.59 19.192 145.379 17.848C146.19 16.4827 147.288 15.4267 148.675 14.68C150.083 13.912 151.651 13.528 153.379 13.528C155.064 13.528 156.59 13.8907 157.955 14.616C159.32 15.3413 160.387 16.3867 161.155 17.752C161.944 19.096 162.339 20.664 162.339 22.456ZM153.411 17.304C152.28 17.304 151.331 17.624 150.563 18.264C149.795 18.904 149.326 19.7787 149.155 20.888H157.635C157.464 19.8 156.995 18.936 156.227 18.296C155.459 17.6347 154.52 17.304 153.411 17.304ZM166.166 13.784H171.126V20.504H178.614V13.784H183.606V31H178.614V24.568H171.126V31H166.166V13.784ZM195.072 13.528C197.739 13.528 199.787 14.168 201.216 15.448C202.646 16.7067 203.36 18.616 203.36 21.176V31H198.688V28.856C197.75 30.456 196 31.256 193.44 31.256C192.118 31.256 190.966 31.032 189.984 30.584C189.024 30.136 188.288 29.5173 187.776 28.728C187.264 27.9387 187.008 27.0427 187.008 26.04C187.008 24.44 187.606 23.1813 188.8 22.264C190.016 21.3467 191.883 20.888 194.4 20.888H198.368C198.368 19.8 198.038 18.968 197.376 18.392C196.715 17.7947 195.723 17.496 194.4 17.496C193.483 17.496 192.576 17.6453 191.68 17.944C190.806 18.2213 190.059 18.6053 189.44 19.096L187.648 15.608C188.587 14.9467 189.707 14.4347 191.008 14.072C192.331 13.7093 193.686 13.528 195.072 13.528ZM194.688 27.896C195.542 27.896 196.299 27.704 196.96 27.32C197.622 26.9147 198.091 26.328 198.368 25.56V23.8H194.944C192.896 23.8 191.872 24.472 191.872 25.816C191.872 26.456 192.118 26.968 192.608 27.352C193.12 27.7147 193.814 27.896 194.688 27.896ZM230.551 17.88H221.719V31H216.759V13.784H230.551V17.88ZM240.542 31.256C238.729 31.256 237.097 30.8827 235.646 30.136C234.217 29.368 233.097 28.312 232.286 26.968C231.475 25.624 231.07 24.0987 231.07 22.392C231.07 20.6853 231.475 19.16 232.286 17.816C233.097 16.472 234.217 15.4267 235.646 14.68C237.097 13.912 238.729 13.528 240.542 13.528C242.355 13.528 243.977 13.912 245.406 14.68C246.835 15.4267 247.955 16.472 248.766 17.816C249.577 19.16 249.982 20.6853 249.982 22.392C249.982 24.0987 249.577 25.624 248.766 26.968C247.955 28.312 246.835 29.368 245.406 30.136C243.977 30.8827 242.355 31.256 240.542 31.256ZM240.542 27.16C241.822 27.16 242.867 26.7333 243.678 25.88C244.51 25.0053 244.926 23.8427 244.926 22.392C244.926 20.9413 244.51 19.7893 243.678 18.936C242.867 18.0613 241.822 17.624 240.542 17.624C239.262 17.624 238.206 18.0613 237.374 18.936C236.542 19.7893 236.126 20.9413 236.126 22.392C236.126 23.8427 236.542 25.0053 237.374 25.88C238.206 26.7333 239.262 27.16 240.542 27.16ZM272.462 26.904V34.712H267.822V31H255.726V34.712H251.086V26.904H251.79C252.856 26.8827 253.592 26.2533 253.998 25.016C254.403 23.7787 254.659 22.0187 254.766 19.736L254.99 13.784H269.998V26.904H272.462ZM259.278 20.088C259.214 21.8373 259.075 23.2667 258.862 24.376C258.67 25.4853 258.296 26.328 257.742 26.904H265.006V17.88H259.374L259.278 20.088ZM282.291 13.528C284.958 13.528 287.006 14.168 288.435 15.448C289.864 16.7067 290.579 18.616 290.579 21.176V31H285.907V28.856C284.968 30.456 283.219 31.256 280.659 31.256C279.336 31.256 278.184 31.032 277.203 30.584C276.243 30.136 275.507 29.5173 274.995 28.728C274.483 27.9387 274.227 27.0427 274.227 26.04C274.227 24.44 274.824 23.1813 276.019 22.264C277.235 21.3467 279.102 20.888 281.619 20.888H285.587C285.587 19.8 285.256 18.968 284.595 18.392C283.934 17.7947 282.942 17.496 281.619 17.496C280.702 17.496 279.795 17.6453 278.899 17.944C278.024 18.2213 277.278 18.6053 276.659 19.096L274.867 15.608C275.806 14.9467 276.926 14.4347 278.227 14.072C279.55 13.7093 280.904 13.528 282.291 13.528ZM281.907 27.896C282.76 27.896 283.518 27.704 284.179 27.32C284.84 26.9147 285.31 26.328 285.587 25.56V23.8H282.163C280.115 23.8 279.091 24.472 279.091 25.816C279.091 26.456 279.336 26.968 279.827 27.352C280.339 27.7147 281.032 27.896 281.907 27.896Z" fill="white"/>
<path d="M37.6688 77.2V87H36.9548V82.338H30.4028V87H29.6888V77.2H30.4028V81.708H36.9548V77.2H37.6688ZM43.3705 79.636C44.2759 79.636 44.9712 79.8693 45.4565 80.336C45.9419 80.7933 46.1845 81.47 46.1845 82.366V87H45.5125V85.698C45.2792 86.1273 44.9385 86.4633 44.4905 86.706C44.0425 86.9393 43.5059 87.056 42.8805 87.056C42.0685 87.056 41.4245 86.8647 40.9485 86.482C40.4819 86.0993 40.2485 85.5953 40.2485 84.97C40.2485 84.3633 40.4632 83.8733 40.8925 83.5C41.3312 83.1173 42.0265 82.926 42.9785 82.926H45.4845V82.338C45.4845 81.6567 45.2979 81.1387 44.9245 80.784C44.5605 80.4293 44.0239 80.252 43.3145 80.252C42.8292 80.252 42.3625 80.336 41.9145 80.504C41.4759 80.672 41.1025 80.896 40.7945 81.176L40.4445 80.672C40.8085 80.3453 41.2472 80.0933 41.7605 79.916C42.2739 79.7293 42.8105 79.636 43.3705 79.636ZM42.9785 86.482C43.5852 86.482 44.0985 86.342 44.5185 86.062C44.9479 85.782 45.2699 85.376 45.4845 84.844V83.472H42.9925C42.2739 83.472 41.7512 83.6027 41.4245 83.864C41.1072 84.1253 40.9485 84.4847 40.9485 84.942C40.9485 85.418 41.1259 85.796 41.4805 86.076C41.8352 86.3467 42.3345 86.482 42.9785 86.482ZM55.2306 83.612H53.5086V87H52.8086V83.612H51.1006L48.6646 87H47.8106L50.5406 83.248L48.0346 79.692H48.8046L51.1006 83.01H52.8086V79.692H53.5086V83.01H55.2306L57.5266 79.692H58.2966L55.7906 83.248L58.5066 87H57.6666L55.2306 83.612ZM68.2736 79.692V87H67.6296V80.812L64.4516 86.062H64.1296L60.9656 80.826V87H60.3216V79.692H61.0076L64.3116 85.222L67.6296 79.692H68.2736ZM71.3001 79.692H72.0001V85.922L77.2081 79.692H77.8241V87H77.1241V80.77L71.9161 87H71.3001V79.692ZM85.7291 80.322H82.8731V87H82.1731V80.322H79.3171V79.692H85.7291V80.322ZM93.116 83.514H86.83C86.8487 84.0833 86.9934 84.592 87.264 85.04C87.5347 85.4787 87.8987 85.8193 88.356 86.062C88.8227 86.3047 89.3454 86.426 89.924 86.426C90.4 86.426 90.8387 86.342 91.24 86.174C91.6507 85.9967 91.9914 85.74 92.262 85.404L92.668 85.866C92.3507 86.2487 91.9494 86.5427 91.464 86.748C90.988 86.9533 90.47 87.056 89.91 87.056C89.182 87.056 88.5334 86.8973 87.964 86.58C87.3947 86.2627 86.9467 85.824 86.62 85.264C86.3027 84.704 86.144 84.0647 86.144 83.346C86.144 82.6367 86.2934 82.002 86.592 81.442C86.9 80.8727 87.32 80.4293 87.852 80.112C88.384 79.7947 88.9814 79.636 89.644 79.636C90.3067 79.636 90.8994 79.7947 91.422 80.112C91.954 80.42 92.3694 80.854 92.668 81.414C92.976 81.974 93.13 82.6087 93.13 83.318L93.116 83.514ZM89.644 80.252C89.1307 80.252 88.6687 80.3687 88.258 80.602C87.8474 80.826 87.516 81.148 87.264 81.568C87.0214 81.9787 86.8814 82.4453 86.844 82.968H92.444C92.416 82.4453 92.276 81.9787 92.024 81.568C91.772 81.1573 91.4407 80.8353 91.03 80.602C90.6194 80.3687 90.1574 80.252 89.644 80.252ZM101.491 83.612H99.713V87H99.013V79.692H99.713V83.01H101.491L104.249 79.692H105.019L102.051 83.234L105.243 87H104.403L101.491 83.612ZM106.97 79.692H107.67V83.024H112.626V79.692H113.326V87H112.626V83.64H107.67V87H106.97V79.692ZM119.261 87.056C118.57 87.056 117.945 86.8973 117.385 86.58C116.834 86.2627 116.4 85.824 116.083 85.264C115.766 84.6947 115.607 84.0553 115.607 83.346C115.607 82.6367 115.766 82.002 116.083 81.442C116.4 80.8727 116.834 80.4293 117.385 80.112C117.945 79.7947 118.57 79.636 119.261 79.636C119.952 79.636 120.572 79.7947 121.123 80.112C121.683 80.4293 122.122 80.8727 122.439 81.442C122.756 82.002 122.915 82.6367 122.915 83.346C122.915 84.0553 122.756 84.6947 122.439 85.264C122.122 85.824 121.683 86.2627 121.123 86.58C120.572 86.8973 119.952 87.056 119.261 87.056ZM119.261 86.426C119.821 86.426 120.32 86.2953 120.759 86.034C121.207 85.7727 121.557 85.4087 121.809 84.942C122.07 84.4753 122.201 83.9433 122.201 83.346C122.201 82.7487 122.07 82.2167 121.809 81.75C121.557 81.2833 121.207 80.9193 120.759 80.658C120.32 80.3967 119.821 80.266 119.261 80.266C118.701 80.266 118.197 80.3967 117.749 80.658C117.31 80.9193 116.96 81.2833 116.699 81.75C116.447 82.2167 116.321 82.7487 116.321 83.346C116.321 83.9433 116.447 84.4753 116.699 84.942C116.96 85.4087 117.31 85.7727 117.749 86.034C118.197 86.2953 118.701 86.426 119.261 86.426ZM131.579 79.692V87H130.879V80.322H125.895V87H125.195V79.692H131.579ZM137.079 83.612H135.301V87H134.601V79.692H135.301V83.01H137.079L139.837 79.692H140.607L137.639 83.234L140.831 87H139.991L137.079 83.612ZM148.084 79.692L144.332 87.994C144.052 88.638 143.725 89.0953 143.352 89.366C142.988 89.6367 142.554 89.772 142.05 89.772C141.714 89.772 141.397 89.716 141.098 89.604C140.809 89.492 140.561 89.3287 140.356 89.114L140.706 88.582C141.079 88.9647 141.532 89.156 142.064 89.156C142.419 89.156 142.722 89.058 142.974 88.862C143.226 88.666 143.459 88.33 143.674 87.854L144.066 86.972L140.776 79.692H141.518L144.444 86.23L147.37 79.692H148.084ZM153.372 79.692H154.072V85.922L159.28 79.692H159.896V87H159.196V80.77L153.988 87H153.372V79.692ZM167.913 80.322H163.615V87H162.915V79.692H167.913V80.322ZM173.091 79.636C173.773 79.636 174.389 79.7947 174.939 80.112C175.49 80.4293 175.919 80.868 176.227 81.428C176.545 81.988 176.703 82.6273 176.703 83.346C176.703 84.0647 176.545 84.7087 176.227 85.278C175.919 85.838 175.49 86.2767 174.939 86.594C174.389 86.902 173.773 87.056 173.091 87.056C172.447 87.056 171.864 86.9067 171.341 86.608C170.819 86.3 170.413 85.8753 170.123 85.334V89.716H169.423V79.692H170.095V81.414C170.385 80.854 170.791 80.42 171.313 80.112C171.845 79.7947 172.438 79.636 173.091 79.636ZM173.049 86.426C173.609 86.426 174.113 86.2953 174.561 86.034C175.009 85.7727 175.359 85.4087 175.611 84.942C175.873 84.4753 176.003 83.9433 176.003 83.346C176.003 82.7487 175.873 82.2167 175.611 81.75C175.359 81.2833 175.009 80.9193 174.561 80.658C174.113 80.3967 173.609 80.266 173.049 80.266C172.489 80.266 171.985 80.3967 171.537 80.658C171.099 80.9193 170.749 81.2833 170.487 81.75C170.235 82.2167 170.109 82.7487 170.109 83.346C170.109 83.9433 170.235 84.4753 170.487 84.942C170.749 85.4087 171.099 85.7727 171.537 86.034C171.985 86.2953 172.489 86.426 173.049 86.426ZM181.374 79.636C182.28 79.636 182.975 79.8693 183.46 80.336C183.946 80.7933 184.188 81.47 184.188 82.366V87H183.516V85.698C183.283 86.1273 182.942 86.4633 182.494 86.706C182.046 86.9393 181.51 87.056 180.884 87.056C180.072 87.056 179.428 86.8647 178.952 86.482C178.486 86.0993 178.252 85.5953 178.252 84.97C178.252 84.3633 178.467 83.8733 178.896 83.5C179.335 83.1173 180.03 82.926 180.982 82.926H183.488V82.338C183.488 81.6567 183.302 81.1387 182.928 80.784C182.564 80.4293 182.028 80.252 181.318 80.252C180.833 80.252 180.366 80.336 179.918 80.504C179.48 80.672 179.106 80.896 178.798 81.176L178.448 80.672C178.812 80.3453 179.251 80.0933 179.764 79.916C180.278 79.7293 180.814 79.636 181.374 79.636ZM180.982 86.482C181.589 86.482 182.102 86.342 182.522 86.062C182.952 85.782 183.274 85.376 183.488 84.844V83.472H180.996C180.278 83.472 179.755 83.6027 179.428 83.864C179.111 84.1253 178.952 84.4847 178.952 84.942C178.952 85.418 179.13 85.796 179.484 86.076C179.839 86.3467 180.338 86.482 180.982 86.482ZM191.919 80.322H189.063V87H188.363V80.322H185.507V79.692H191.919V80.322ZM196.343 82.352C197.249 82.3613 197.939 82.562 198.415 82.954C198.891 83.3367 199.129 83.9013 199.129 84.648C199.129 85.4227 198.877 86.0153 198.373 86.426C197.869 86.8367 197.137 87.0373 196.175 87.028L193.417 87V79.692H194.117V82.324L196.343 82.352ZM196.161 86.468C196.899 86.4773 197.459 86.328 197.841 86.02C198.224 85.712 198.415 85.2547 198.415 84.648C198.415 84.06 198.229 83.626 197.855 83.346C197.482 83.0567 196.917 82.9027 196.161 82.884L194.117 82.87V86.44L196.161 86.468ZM200.921 85.866C201.089 85.866 201.229 85.9267 201.341 86.048C201.453 86.16 201.509 86.2953 201.509 86.454C201.509 86.5473 201.495 86.6453 201.467 86.748C201.448 86.8507 201.42 86.9673 201.383 87.098L200.837 89.002H200.333L200.795 87.028C200.655 86.9907 200.543 86.9253 200.459 86.832C200.375 86.7293 200.333 86.6033 200.333 86.454C200.333 86.286 200.389 86.146 200.501 86.034C200.613 85.922 200.753 85.866 200.921 85.866ZM211.757 83.234C212.83 83.4207 213.367 84.0227 213.367 85.04C213.367 85.6747 213.134 86.16 212.667 86.496C212.21 86.832 211.519 87 210.595 87H207.431V79.692H210.511C211.323 79.692 211.958 79.8553 212.415 80.182C212.882 80.4993 213.115 80.9567 213.115 81.554C213.115 81.9833 212.994 82.3427 212.751 82.632C212.518 82.912 212.186 83.1127 211.757 83.234ZM208.117 83.024H210.469C211.094 83.024 211.575 82.9073 211.911 82.674C212.247 82.4313 212.415 82.086 212.415 81.638C212.415 81.1807 212.247 80.84 211.911 80.616C211.584 80.3827 211.104 80.266 210.469 80.266H208.117V83.024ZM210.581 86.426C211.972 86.426 212.667 85.9547 212.667 85.012C212.667 84.5173 212.508 84.1533 212.191 83.92C211.874 83.6867 211.374 83.57 210.693 83.57H208.117V86.426H210.581ZM220.179 83.234C221.252 83.4207 221.789 84.0227 221.789 85.04C221.789 85.6747 221.555 86.16 221.089 86.496C220.631 86.832 219.941 87 219.017 87H215.853V79.692H218.933C219.745 79.692 220.379 79.8553 220.837 80.182C221.303 80.4993 221.537 80.9567 221.537 81.554C221.537 81.9833 221.415 82.3427 221.173 82.632C220.939 82.912 220.608 83.1127 220.179 83.234ZM216.539 83.024H218.891C219.516 83.024 219.997 82.9073 220.333 82.674C220.669 82.4313 220.837 82.086 220.837 81.638C220.837 81.1807 220.669 80.84 220.333 80.616C220.006 80.3827 219.525 80.266 218.891 80.266H216.539V83.024ZM219.003 86.426C220.393 86.426 221.089 85.9547 221.089 85.012C221.089 84.5173 220.93 84.1533 220.613 83.92C220.295 83.6867 219.796 83.57 219.115 83.57H216.539V86.426H219.003ZM230.505 83.514H224.219C224.237 84.0833 224.382 84.592 224.653 85.04C224.923 85.4787 225.287 85.8193 225.745 86.062C226.211 86.3047 226.734 86.426 227.313 86.426C227.789 86.426 228.227 86.342 228.629 86.174C229.039 85.9967 229.38 85.74 229.651 85.404L230.057 85.866C229.739 86.2487 229.338 86.5427 228.853 86.748C228.377 86.9533 227.859 87.056 227.299 87.056C226.571 87.056 225.922 86.8973 225.353 86.58C224.783 86.2627 224.335 85.824 224.009 85.264C223.691 84.704 223.533 84.0647 223.533 83.346C223.533 82.6367 223.682 82.002 223.981 81.442C224.289 80.8727 224.709 80.4293 225.241 80.112C225.773 79.7947 226.37 79.636 227.033 79.636C227.695 79.636 228.288 79.7947 228.811 80.112C229.343 80.42 229.758 80.854 230.057 81.414C230.365 81.974 230.519 82.6087 230.519 83.318L230.505 83.514ZM227.033 80.252C226.519 80.252 226.057 80.3687 225.647 80.602C225.236 80.826 224.905 81.148 224.653 81.568C224.41 81.9787 224.27 82.4453 224.233 82.968H229.833C229.805 82.4453 229.665 81.9787 229.413 81.568C229.161 81.1573 228.829 80.8353 228.419 80.602C228.008 80.3687 227.546 80.252 227.033 80.252ZM239.502 86.384V88.82H238.844V87H231.928V88.82H231.256V86.384H231.69C232.185 86.356 232.521 85.9733 232.698 85.236C232.885 84.4893 233.016 83.444 233.09 82.1L233.188 79.692H238.326V86.384H239.502ZM233.734 82.142C233.688 83.2527 233.594 84.1767 233.454 84.914C233.314 85.6513 233.062 86.1413 232.698 86.384H237.626V80.322H233.818L233.734 82.142ZM241.57 79.692H242.27V85.922L247.478 79.692H248.094V87H247.394V80.77L242.186 87H241.57V79.692ZM255.999 80.322H253.143V87H252.443V80.322H249.587V79.692H255.999V80.322ZM263.386 83.514H257.1C257.118 84.0833 257.263 84.592 257.534 85.04C257.804 85.4787 258.168 85.8193 258.626 86.062C259.092 86.3047 259.615 86.426 260.194 86.426C260.67 86.426 261.108 86.342 261.51 86.174C261.92 85.9967 262.261 85.74 262.532 85.404L262.938 85.866C262.62 86.2487 262.219 86.5427 261.734 86.748C261.258 86.9533 260.74 87.056 260.18 87.056C259.452 87.056 258.803 86.8973 258.234 86.58C257.664 86.2627 257.216 85.824 256.89 85.264C256.572 84.704 256.414 84.0647 256.414 83.346C256.414 82.6367 256.563 82.002 256.862 81.442C257.17 80.8727 257.59 80.4293 258.122 80.112C258.654 79.7947 259.251 79.636 259.914 79.636C260.576 79.636 261.169 79.7947 261.692 80.112C262.224 80.42 262.639 80.854 262.938 81.414C263.246 81.974 263.4 82.6087 263.4 83.318L263.386 83.514ZM259.914 80.252C259.4 80.252 258.938 80.3687 258.528 80.602C258.117 80.826 257.786 81.148 257.534 81.568C257.291 81.9787 257.151 82.4453 257.114 82.968H262.714C262.686 82.4453 262.546 81.9787 262.294 81.568C262.042 81.1573 261.71 80.8353 261.3 80.602C260.889 80.3687 260.427 80.252 259.914 80.252ZM269.283 79.692H269.983V83.024H274.939V79.692H275.639V87H274.939V83.64H269.983V87H269.283V79.692ZM281.573 87.056C280.883 87.056 280.257 86.8973 279.697 86.58C279.147 86.2627 278.713 85.824 278.395 85.264C278.078 84.6947 277.919 84.0553 277.919 83.346C277.919 82.6367 278.078 82.002 278.395 81.442C278.713 80.8727 279.147 80.4293 279.697 80.112C280.257 79.7947 280.883 79.636 281.573 79.636C282.264 79.636 282.885 79.7947 283.435 80.112C283.995 80.4293 284.434 80.8727 284.751 81.442C285.069 82.002 285.227 82.6367 285.227 83.346C285.227 84.0553 285.069 84.6947 284.751 85.264C284.434 85.824 283.995 86.2627 283.435 86.58C282.885 86.8973 282.264 87.056 281.573 87.056ZM281.573 86.426C282.133 86.426 282.633 86.2953 283.071 86.034C283.519 85.7727 283.869 85.4087 284.121 84.942C284.383 84.4753 284.513 83.9433 284.513 83.346C284.513 82.7487 284.383 82.2167 284.121 81.75C283.869 81.2833 283.519 80.9193 283.071 80.658C282.633 80.3967 282.133 80.266 281.573 80.266C281.013 80.266 280.509 80.3967 280.061 80.658C279.623 80.9193 279.273 81.2833 279.011 81.75C278.759 82.2167 278.633 82.7487 278.633 83.346C278.633 83.9433 278.759 84.4753 279.011 84.942C279.273 85.4087 279.623 85.7727 280.061 86.034C280.509 86.2953 281.013 86.426 281.573 86.426ZM295.459 79.692V87H294.815V80.812L291.637 86.062H291.315L288.151 80.826V87H287.507V79.692H288.193L291.497 85.222L294.815 79.692H295.459ZM304.716 83.514H298.43C298.448 84.0833 298.593 84.592 298.864 85.04C299.134 85.4787 299.498 85.8193 299.956 86.062C300.422 86.3047 300.945 86.426 301.524 86.426C302 86.426 302.438 86.342 302.84 86.174C303.25 85.9967 303.591 85.74 303.862 85.404L304.268 85.866C303.95 86.2487 303.549 86.5427 303.064 86.748C302.588 86.9533 302.07 87.056 301.51 87.056C300.782 87.056 300.133 86.8973 299.564 86.58C298.994 86.2627 298.546 85.824 298.22 85.264C297.902 84.704 297.744 84.0647 297.744 83.346C297.744 82.6367 297.893 82.002 298.192 81.442C298.5 80.8727 298.92 80.4293 299.452 80.112C299.984 79.7947 300.581 79.636 301.244 79.636C301.906 79.636 302.499 79.7947 303.022 80.112C303.554 80.42 303.969 80.854 304.268 81.414C304.576 81.974 304.73 82.6087 304.73 83.318L304.716 83.514ZM301.244 80.252C300.73 80.252 300.268 80.3687 299.858 80.602C299.447 80.826 299.116 81.148 298.864 81.568C298.621 81.9787 298.481 82.4453 298.444 82.968H304.044C304.016 82.4453 303.876 81.9787 303.624 81.568C303.372 81.1573 303.04 80.8353 302.63 80.602C302.219 80.3687 301.757 80.252 301.244 80.252ZM310.699 79.636C311.38 79.636 311.996 79.7947 312.547 80.112C313.098 80.4293 313.527 80.868 313.835 81.428C314.152 81.988 314.311 82.6273 314.311 83.346C314.311 84.0647 314.152 84.7087 313.835 85.278C313.527 85.838 313.098 86.2767 312.547 86.594C311.996 86.902 311.38 87.056 310.699 87.056C310.055 87.056 309.472 86.9067 308.949 86.608C308.426 86.3 308.02 85.8753 307.731 85.334V89.716H307.031V79.692H307.703V81.414C307.992 80.854 308.398 80.42 308.921 80.112C309.453 79.7947 310.046 79.636 310.699 79.636ZM310.657 86.426C311.217 86.426 311.721 86.2953 312.169 86.034C312.617 85.7727 312.967 85.4087 313.219 84.942C313.48 84.4753 313.611 83.9433 313.611 83.346C313.611 82.7487 313.48 82.2167 313.219 81.75C312.967 81.2833 312.617 80.9193 312.169 80.658C311.721 80.3967 311.217 80.266 310.657 80.266C310.097 80.266 309.593 80.3967 309.145 80.658C308.706 80.9193 308.356 81.2833 308.095 81.75C307.843 82.2167 307.717 82.7487 307.717 83.346C307.717 83.9433 307.843 84.4753 308.095 84.942C308.356 85.4087 308.706 85.7727 309.145 86.034C309.593 86.2953 310.097 86.426 310.657 86.426ZM37.1359 101.692V109H36.4919V102.812L33.3139 108.062H32.9919L29.8279 102.826V109H29.1839V101.692H29.8699L33.1739 107.222L36.4919 101.692H37.1359ZM46.3924 105.514H40.1064C40.1251 106.083 40.2697 106.592 40.5404 107.04C40.8111 107.479 41.1751 107.819 41.6324 108.062C42.0991 108.305 42.6217 108.426 43.2004 108.426C43.6764 108.426 44.1151 108.342 44.5164 108.174C44.9271 107.997 45.2677 107.74 45.5384 107.404L45.9444 107.866C45.6271 108.249 45.2257 108.543 44.7404 108.748C44.2644 108.953 43.7464 109.056 43.1864 109.056C42.4584 109.056 41.8097 108.897 41.2404 108.58C40.6711 108.263 40.2231 107.824 39.8964 107.264C39.5791 106.704 39.4204 106.065 39.4204 105.346C39.4204 104.637 39.5697 104.002 39.8684 103.442C40.1764 102.873 40.5964 102.429 41.1284 102.112C41.6604 101.795 42.2577 101.636 42.9204 101.636C43.5831 101.636 44.1757 101.795 44.6984 102.112C45.2304 102.42 45.6457 102.854 45.9444 103.414C46.2524 103.974 46.4064 104.609 46.4064 105.318L46.3924 105.514ZM42.9204 102.252C42.4071 102.252 41.9451 102.369 41.5344 102.602C41.1237 102.826 40.7924 103.148 40.5404 103.568C40.2977 103.979 40.1577 104.445 40.1204 104.968H45.7204C45.6924 104.445 45.5524 103.979 45.3004 103.568C45.0484 103.157 44.7171 102.835 44.3064 102.602C43.8957 102.369 43.4337 102.252 42.9204 102.252ZM51.6476 109.056C50.9383 109.056 50.3036 108.897 49.7436 108.58C49.1836 108.263 48.745 107.824 48.4276 107.264C48.1103 106.695 47.9516 106.055 47.9516 105.346C47.9516 104.627 48.1103 103.988 48.4276 103.428C48.745 102.859 49.1836 102.42 49.7436 102.112C50.3036 101.795 50.9383 101.636 51.6476 101.636C52.2356 101.636 52.7676 101.753 53.2436 101.986C53.729 102.21 54.121 102.541 54.4196 102.98L53.9016 103.358C53.6403 102.994 53.3136 102.723 52.9216 102.546C52.539 102.359 52.1143 102.266 51.6476 102.266C51.0783 102.266 50.565 102.397 50.1076 102.658C49.6596 102.91 49.305 103.269 49.0436 103.736C48.7916 104.203 48.6656 104.739 48.6656 105.346C48.6656 105.953 48.7916 106.489 49.0436 106.956C49.305 107.423 49.6596 107.787 50.1076 108.048C50.565 108.3 51.0783 108.426 51.6476 108.426C52.1143 108.426 52.539 108.337 52.9216 108.16C53.3136 107.973 53.6403 107.698 53.9016 107.334L54.4196 107.712C54.121 108.151 53.729 108.487 53.2436 108.72C52.7676 108.944 52.2356 109.056 51.6476 109.056ZM61.6168 101.692V109H60.9728V106.48H58.5368C58.3688 106.48 58.2475 106.475 58.1728 106.466L56.3668 109H55.5968L57.4868 106.382C56.8895 106.251 56.4322 105.995 56.1148 105.612C55.7975 105.229 55.6388 104.735 55.6388 104.128C55.6388 103.325 55.9048 102.719 56.4368 102.308C56.9782 101.897 57.7155 101.692 58.6488 101.692H61.6168ZM56.3388 104.156C56.3388 105.351 57.0948 105.948 58.6068 105.948H60.9728V102.308H58.6908C57.1228 102.308 56.3388 102.924 56.3388 104.156ZM72.097 108.384V110.904H71.425V109H64.635V101.692H65.335V108.384H70.179V101.692H70.879V108.384H72.097ZM76.559 101.636C77.4643 101.636 78.1597 101.869 78.645 102.336C79.1303 102.793 79.373 103.47 79.373 104.366V109H78.701V107.698C78.4677 108.127 78.127 108.463 77.679 108.706C77.231 108.939 76.6943 109.056 76.069 109.056C75.257 109.056 74.613 108.865 74.137 108.482C73.6703 108.099 73.437 107.595 73.437 106.97C73.437 106.363 73.6517 105.873 74.081 105.5C74.5197 105.117 75.215 104.926 76.167 104.926H78.673V104.338C78.673 103.657 78.4863 103.139 78.113 102.784C77.749 102.429 77.2123 102.252 76.503 102.252C76.0177 102.252 75.551 102.336 75.103 102.504C74.6643 102.672 74.291 102.896 73.983 103.176L73.633 102.672C73.997 102.345 74.4357 102.093 74.949 101.916C75.4623 101.729 75.999 101.636 76.559 101.636ZM76.167 108.482C76.7737 108.482 77.287 108.342 77.707 108.062C78.1363 107.782 78.4583 107.376 78.673 106.844V105.472H76.181C75.4623 105.472 74.9397 105.603 74.613 105.864C74.2957 106.125 74.137 106.485 74.137 106.942C74.137 107.418 74.3143 107.796 74.669 108.076C75.0237 108.347 75.523 108.482 76.167 108.482ZM87.4648 111.716C86.9514 110.857 86.5548 109.873 86.2748 108.762C86.0041 107.651 85.8688 106.452 85.8688 105.164C85.8688 103.876 86.0041 102.672 86.2748 101.552C86.5548 100.423 86.9514 99.4427 87.4648 98.612H88.1368C87.0821 100.413 86.5548 102.597 86.5548 105.164C86.5548 107.731 87.0821 109.915 88.1368 111.716H87.4648ZM93.2228 109.056C92.5322 109.056 91.9068 108.897 91.3468 108.58C90.7962 108.263 90.3622 107.824 90.0448 107.264C89.7275 106.695 89.5688 106.055 89.5688 105.346C89.5688 104.637 89.7275 104.002 90.0448 103.442C90.3622 102.873 90.7962 102.429 91.3468 102.112C91.9068 101.795 92.5322 101.636 93.2228 101.636C93.9135 101.636 94.5342 101.795 95.0848 102.112C95.6448 102.429 96.0835 102.873 96.4008 103.442C96.7182 104.002 96.8768 104.637 96.8768 105.346C96.8768 106.055 96.7182 106.695 96.4008 107.264C96.0835 107.824 95.6448 108.263 95.0848 108.58C94.5342 108.897 93.9135 109.056 93.2228 109.056ZM93.2228 108.426C93.7828 108.426 94.2822 108.295 94.7208 108.034C95.1688 107.773 95.5188 107.409 95.7708 106.942C96.0322 106.475 96.1628 105.943 96.1628 105.346C96.1628 104.749 96.0322 104.217 95.7708 103.75C95.5188 103.283 95.1688 102.919 94.7208 102.658C94.2822 102.397 93.7828 102.266 93.2228 102.266C92.6628 102.266 92.1588 102.397 91.7108 102.658C91.2722 102.919 90.9222 103.283 90.6608 103.75C90.4088 104.217 90.2828 104.749 90.2828 105.346C90.2828 105.943 90.4088 106.475 90.6608 106.942C90.9222 107.409 91.2722 107.773 91.7108 108.034C92.1588 108.295 92.6628 108.426 93.2228 108.426ZM103.769 102.322H100.913V109H100.213V102.322H97.3571V101.692H103.769V102.322ZM110.586 99.2V109H109.872V99.844H107.478V99.2H110.586ZM124.269 108.384V110.82H123.611V109H116.695V110.82H116.023V108.384H116.457C116.951 108.356 117.287 107.973 117.465 107.236C117.651 106.489 117.782 105.444 117.857 104.1L117.955 101.692H123.093V108.384H124.269ZM118.501 104.142C118.454 105.253 118.361 106.177 118.221 106.914C118.081 107.651 117.829 108.141 117.465 108.384H122.393V102.322H118.585L118.501 104.142ZM129.248 109.056C128.558 109.056 127.932 108.897 127.372 108.58C126.822 108.263 126.388 107.824 126.07 107.264C125.753 106.695 125.594 106.055 125.594 105.346C125.594 104.637 125.753 104.002 126.07 103.442C126.388 102.873 126.822 102.429 127.372 102.112C127.932 101.795 128.558 101.636 129.248 101.636C129.939 101.636 130.56 101.795 131.11 102.112C131.67 102.429 132.109 102.873 132.426 103.442C132.744 104.002 132.902 104.637 132.902 105.346C132.902 106.055 132.744 106.695 132.426 107.264C132.109 107.824 131.67 108.263 131.11 108.58C130.56 108.897 129.939 109.056 129.248 109.056ZM129.248 108.426C129.808 108.426 130.308 108.295 130.746 108.034C131.194 107.773 131.544 107.409 131.796 106.942C132.058 106.475 132.188 105.943 132.188 105.346C132.188 104.749 132.058 104.217 131.796 103.75C131.544 103.283 131.194 102.919 130.746 102.658C130.308 102.397 129.808 102.266 129.248 102.266C128.688 102.266 128.184 102.397 127.736 102.658C127.298 102.919 126.948 103.283 126.686 103.75C126.434 104.217 126.308 104.749 126.308 105.346C126.308 105.943 126.434 106.475 126.686 106.942C126.948 107.409 127.298 107.773 127.736 108.034C128.184 108.295 128.688 108.426 129.248 108.426ZM140.5 99.2V109H139.786V99.844H137.392V99.2H140.5ZM149.509 108.356V109H142.775V108.496L146.919 104.38C147.461 103.839 147.825 103.377 148.011 102.994C148.207 102.602 148.305 102.201 148.305 101.79C148.305 101.165 148.091 100.675 147.661 100.32C147.241 99.9653 146.63 99.788 145.827 99.788C145.211 99.788 144.67 99.8813 144.203 100.068C143.746 100.255 143.349 100.539 143.013 100.922L142.509 100.474C142.883 100.045 143.354 99.7133 143.923 99.48C144.502 99.2467 145.155 99.13 145.883 99.13C146.845 99.13 147.61 99.3633 148.179 99.83C148.749 100.297 149.033 100.927 149.033 101.72C149.033 102.224 148.921 102.705 148.697 103.162C148.473 103.619 148.053 104.151 147.437 104.758L143.825 108.356H149.509ZM150.762 111.716C151.303 110.801 151.7 109.803 151.952 108.72C152.204 107.637 152.33 106.452 152.33 105.164C152.33 103.876 152.204 102.691 151.952 101.608C151.7 100.525 151.303 99.5267 150.762 98.612H151.42C151.943 99.4427 152.339 100.423 152.61 101.552C152.89 102.672 153.03 103.876 153.03 105.164C153.03 106.452 152.89 107.656 152.61 108.776C152.339 109.887 151.943 110.867 151.42 111.716H150.762ZM159.709 101.692H160.409V107.922L165.617 101.692H166.233V109H165.533V102.77L160.325 109H159.709V101.692ZM177.174 105.234C178.247 105.421 178.784 106.023 178.784 107.04C178.784 107.675 178.551 108.16 178.084 108.496C177.627 108.832 176.936 109 176.012 109H172.848V101.692H175.928C176.74 101.692 177.375 101.855 177.832 102.182C178.299 102.499 178.532 102.957 178.532 103.554C178.532 103.983 178.411 104.343 178.168 104.632C177.935 104.912 177.603 105.113 177.174 105.234ZM173.534 105.024H175.886C176.511 105.024 176.992 104.907 177.328 104.674C177.664 104.431 177.832 104.086 177.832 103.638C177.832 103.181 177.664 102.84 177.328 102.616C177.001 102.383 176.521 102.266 175.886 102.266H173.534V105.024ZM175.998 108.426C177.389 108.426 178.084 107.955 178.084 107.012C178.084 106.517 177.925 106.153 177.608 105.92C177.291 105.687 176.791 105.57 176.11 105.57H173.534V108.426H175.998ZM184.154 104.352C185.059 104.361 185.75 104.562 186.226 104.954C186.702 105.337 186.94 105.901 186.94 106.648C186.94 107.423 186.688 108.015 186.184 108.426C185.68 108.837 184.952 109.037 184 109.028L181.27 109V101.692H181.97V104.324L184.154 104.352ZM188.284 101.692H188.984V109H188.284V101.692ZM183.972 108.468C184.718 108.477 185.283 108.328 185.666 108.02C186.048 107.712 186.24 107.255 186.24 106.648C186.24 106.06 186.053 105.626 185.68 105.346C185.306 105.057 184.737 104.903 183.972 104.884L181.97 104.87V108.44L183.972 108.468ZM201.534 101.692L197.782 109.994C197.502 110.638 197.176 111.095 196.802 111.366C196.438 111.637 196.004 111.772 195.5 111.772C195.164 111.772 194.847 111.716 194.548 111.604C194.259 111.492 194.012 111.329 193.806 111.114L194.156 110.582C194.53 110.965 194.982 111.156 195.514 111.156C195.869 111.156 196.172 111.058 196.424 110.862C196.676 110.666 196.91 110.33 197.124 109.854L197.516 108.972L194.226 101.692H194.968L197.894 108.23L200.82 101.692H201.534ZM206.269 105.192C206.811 105.295 207.226 105.5 207.515 105.808C207.814 106.107 207.963 106.475 207.963 106.914C207.963 107.343 207.819 107.721 207.529 108.048C207.249 108.375 206.867 108.627 206.381 108.804C205.896 108.981 205.369 109.07 204.799 109.07C204.277 109.07 203.763 108.991 203.259 108.832C202.765 108.664 202.331 108.426 201.957 108.118L202.237 107.6C202.564 107.88 202.951 108.095 203.399 108.244C203.857 108.393 204.319 108.468 204.785 108.468C205.476 108.468 206.059 108.323 206.535 108.034C207.011 107.735 207.249 107.343 207.249 106.858C207.249 106.429 207.049 106.093 206.647 105.85C206.255 105.598 205.723 105.472 205.051 105.472H203.875V104.94H205.023C205.611 104.94 206.092 104.823 206.465 104.59C206.848 104.357 207.039 104.044 207.039 103.652C207.039 103.195 206.829 102.845 206.409 102.602C205.999 102.35 205.471 102.224 204.827 102.224C204.006 102.224 203.231 102.434 202.503 102.854L202.293 102.294C203.115 101.837 203.987 101.608 204.911 101.608C205.723 101.608 206.4 101.785 206.941 102.14C207.483 102.485 207.753 102.957 207.753 103.554C207.753 103.937 207.618 104.273 207.347 104.562C207.077 104.851 206.717 105.061 206.269 105.192ZM210.405 101.692H211.105V105.024H216.061V101.692H216.761V109H216.061V105.64H211.105V109H210.405V101.692ZM222.205 101.636C223.111 101.636 223.806 101.869 224.291 102.336C224.777 102.793 225.019 103.47 225.019 104.366V109H224.347V107.698C224.114 108.127 223.773 108.463 223.325 108.706C222.877 108.939 222.341 109.056 221.715 109.056C220.903 109.056 220.259 108.865 219.783 108.482C219.317 108.099 219.083 107.595 219.083 106.97C219.083 106.363 219.298 105.873 219.727 105.5C220.166 105.117 220.861 104.926 221.813 104.926H224.319V104.338C224.319 103.657 224.133 103.139 223.759 102.784C223.395 102.429 222.859 102.252 222.149 102.252C221.664 102.252 221.197 102.336 220.749 102.504C220.311 102.672 219.937 102.896 219.629 103.176L219.279 102.672C219.643 102.345 220.082 102.093 220.595 101.916C221.109 101.729 221.645 101.636 222.205 101.636ZM221.813 108.482C222.42 108.482 222.933 108.342 223.353 108.062C223.783 107.782 224.105 107.376 224.319 106.844V105.472H221.827C221.109 105.472 220.586 105.603 220.259 105.864C219.942 106.125 219.783 106.485 219.783 106.942C219.783 107.418 219.961 107.796 220.315 108.076C220.67 108.347 221.169 108.482 221.813 108.482ZM234.094 105.514H227.808C227.826 106.083 227.971 106.592 228.242 107.04C228.512 107.479 228.876 107.819 229.334 108.062C229.8 108.305 230.323 108.426 230.902 108.426C231.378 108.426 231.816 108.342 232.218 108.174C232.628 107.997 232.969 107.74 233.24 107.404L233.646 107.866C233.328 108.249 232.927 108.543 232.442 108.748C231.966 108.953 231.448 109.056 230.888 109.056C230.16 109.056 229.511 108.897 228.942 108.58C228.372 108.263 227.924 107.824 227.598 107.264C227.28 106.704 227.122 106.065 227.122 105.346C227.122 104.637 227.271 104.002 227.57 103.442C227.878 102.873 228.298 102.429 228.83 102.112C229.362 101.795 229.959 101.636 230.622 101.636C231.284 101.636 231.877 101.795 232.4 102.112C232.932 102.42 233.347 102.854 233.646 103.414C233.954 103.974 234.108 104.609 234.108 105.318L234.094 105.514ZM230.622 102.252C230.108 102.252 229.646 102.369 229.236 102.602C228.825 102.826 228.494 103.148 228.242 103.568C227.999 103.979 227.859 104.445 227.822 104.968H233.422C233.394 104.445 233.254 103.979 233.002 103.568C232.75 103.157 232.418 102.835 232.008 102.602C231.597 102.369 231.135 102.252 230.622 102.252ZM240.939 102.322H238.083V109H237.383V102.322H234.527V101.692H240.939V102.322ZM248.326 105.514H242.04C242.059 106.083 242.203 106.592 242.474 107.04C242.745 107.479 243.109 107.819 243.566 108.062C244.033 108.305 244.555 108.426 245.134 108.426C245.61 108.426 246.049 108.342 246.45 108.174C246.861 107.997 247.201 107.74 247.472 107.404L247.878 107.866C247.561 108.249 247.159 108.543 246.674 108.748C246.198 108.953 245.68 109.056 245.12 109.056C244.392 109.056 243.743 108.897 243.174 108.58C242.605 108.263 242.157 107.824 241.83 107.264C241.513 106.704 241.354 106.065 241.354 105.346C241.354 104.637 241.503 104.002 241.802 103.442C242.11 102.873 242.53 102.429 243.062 102.112C243.594 101.795 244.191 101.636 244.854 101.636C245.517 101.636 246.109 101.795 246.632 102.112C247.164 102.42 247.579 102.854 247.878 103.414C248.186 103.974 248.34 104.609 248.34 105.318L248.326 105.514ZM244.854 102.252C244.341 102.252 243.879 102.369 243.468 102.602C243.057 102.826 242.726 103.148 242.474 103.568C242.231 103.979 242.091 104.445 242.054 104.968H247.654C247.626 104.445 247.486 103.979 247.234 103.568C246.982 103.157 246.651 102.835 246.24 102.602C245.829 102.369 245.367 102.252 244.854 102.252ZM256.701 105.612H254.923V109H254.223V101.692H254.923V105.01H256.701L259.459 101.692H260.229L257.261 105.234L260.453 109H259.613L256.701 105.612ZM268.254 105.612H266.476V109H265.776V101.692H266.476V105.01H268.254L271.012 101.692H271.782L268.814 105.234L272.006 109H271.166L268.254 105.612ZM276.018 101.636C276.923 101.636 277.619 101.869 278.104 102.336C278.589 102.793 278.832 103.47 278.832 104.366V109H278.16V107.698C277.927 108.127 277.586 108.463 277.138 108.706C276.69 108.939 276.153 109.056 275.528 109.056C274.716 109.056 274.072 108.865 273.596 108.482C273.129 108.099 272.896 107.595 272.896 106.97C272.896 106.363 273.111 105.873 273.54 105.5C273.979 105.117 274.674 104.926 275.626 104.926H278.132V104.338C278.132 103.657 277.945 103.139 277.572 102.784C277.208 102.429 276.671 102.252 275.962 102.252C275.477 102.252 275.01 102.336 274.562 102.504C274.123 102.672 273.75 102.896 273.442 103.176L273.092 102.672C273.456 102.345 273.895 102.093 274.408 101.916C274.921 101.729 275.458 101.636 276.018 101.636ZM275.626 108.482C276.233 108.482 276.746 108.342 277.166 108.062C277.595 107.782 277.917 107.376 278.132 106.844V105.472H275.64C274.921 105.472 274.399 105.603 274.072 105.864C273.755 106.125 273.596 106.485 273.596 106.942C273.596 107.418 273.773 107.796 274.128 108.076C274.483 108.347 274.982 108.482 275.626 108.482ZM284.154 105.612H282.376V109H281.676V101.692H282.376V105.01H284.154L286.912 101.692H287.682L284.714 105.234L287.906 109H287.066L284.154 105.612ZM292.285 109.056C291.595 109.056 290.969 108.897 290.409 108.58C289.859 108.263 289.425 107.824 289.107 107.264C288.79 106.695 288.631 106.055 288.631 105.346C288.631 104.637 288.79 104.002 289.107 103.442C289.425 102.873 289.859 102.429 290.409 102.112C290.969 101.795 291.595 101.636 292.285 101.636C292.976 101.636 293.597 101.795 294.147 102.112C294.707 102.429 295.146 102.873 295.463 103.442C295.781 104.002 295.939 104.637 295.939 105.346C295.939 106.055 295.781 106.695 295.463 107.264C295.146 107.824 294.707 108.263 294.147 108.58C293.597 108.897 292.976 109.056 292.285 109.056ZM292.285 108.426C292.845 108.426 293.345 108.295 293.783 108.034C294.231 107.773 294.581 107.409 294.833 106.942C295.095 106.475 295.225 105.943 295.225 105.346C295.225 104.749 295.095 104.217 294.833 103.75C294.581 103.283 294.231 102.919 293.783 102.658C293.345 102.397 292.845 102.266 292.285 102.266C291.725 102.266 291.221 102.397 290.773 102.658C290.335 102.919 289.985 103.283 289.723 103.75C289.471 104.217 289.345 104.749 289.345 105.346C289.345 105.943 289.471 106.475 289.723 106.942C289.985 107.409 290.335 107.773 290.773 108.034C291.221 108.295 291.725 108.426 292.285 108.426ZM306.171 101.692V109H305.527V102.812L302.349 108.062H302.027L298.863 102.826V109H298.219V101.692H298.905L302.209 107.222L305.527 101.692H306.171ZM315.148 101.692L311.396 109.994C311.116 110.638 310.789 111.095 310.416 111.366C310.052 111.637 309.618 111.772 309.114 111.772C308.778 111.772 308.46 111.716 308.162 111.604C307.872 111.492 307.625 111.329 307.42 111.114L307.77 110.582C308.143 110.965 308.596 111.156 309.128 111.156C309.482 111.156 309.786 111.058 310.038 110.862C310.29 110.666 310.523 110.33 310.738 109.854L311.13 108.972L307.84 101.692H308.582L311.508 108.23L314.434 101.692H315.148ZM78.1075 127.234C79.1809 127.421 79.7175 128.023 79.7175 129.04C79.7175 129.675 79.4842 130.16 79.0175 130.496C78.5602 130.832 77.8695 131 76.9455 131H73.7815V123.692H76.8615C77.6735 123.692 78.3082 123.855 78.7655 124.182C79.2322 124.499 79.4655 124.957 79.4655 125.554C79.4655 125.983 79.3442 126.343 79.1015 126.632C78.8682 126.912 78.5369 127.113 78.1075 127.234ZM74.4675 127.024H76.8195C77.4449 127.024 77.9255 126.907 78.2615 126.674C78.5975 126.431 78.7655 126.086 78.7655 125.638C78.7655 125.181 78.5975 124.84 78.2615 124.616C77.9349 124.383 77.4542 124.266 76.8195 124.266H74.4675V127.024ZM76.9315 130.426C78.3222 130.426 79.0175 129.955 79.0175 129.012C79.0175 128.517 78.8589 128.153 78.5415 127.92C78.2242 127.687 77.7249 127.57 77.0435 127.57H74.4675V130.426H76.9315ZM85.8854 123.636C86.5667 123.636 87.1827 123.795 87.7334 124.112C88.2841 124.429 88.7134 124.868 89.0214 125.428C89.3387 125.988 89.4974 126.627 89.4974 127.346C89.4974 128.065 89.3387 128.709 89.0214 129.278C88.7134 129.838 88.2841 130.277 87.7334 130.594C87.1827 130.902 86.5667 131.056 85.8854 131.056C85.2414 131.056 84.6581 130.907 84.1354 130.608C83.6127 130.3 83.2067 129.875 82.9174 129.334V133.716H82.2174V123.692H82.8894V125.414C83.1787 124.854 83.5847 124.42 84.1074 124.112C84.6394 123.795 85.2321 123.636 85.8854 123.636ZM85.8434 130.426C86.4034 130.426 86.9074 130.295 87.3554 130.034C87.8034 129.773 88.1534 129.409 88.4054 128.942C88.6667 128.475 88.7974 127.943 88.7974 127.346C88.7974 126.749 88.6667 126.217 88.4054 125.75C88.1534 125.283 87.8034 124.919 87.3554 124.658C86.9074 124.397 86.4034 124.266 85.8434 124.266C85.2834 124.266 84.7794 124.397 84.3314 124.658C83.8927 124.919 83.5427 125.283 83.2814 125.75C83.0294 126.217 82.9034 126.749 82.9034 127.346C82.9034 127.943 83.0294 128.475 83.2814 128.942C83.5427 129.409 83.8927 129.773 84.3314 130.034C84.7794 130.295 85.2834 130.426 85.8434 130.426ZM98.0037 127.514H91.7177C91.7364 128.083 91.8811 128.592 92.1517 129.04C92.4224 129.479 92.7864 129.819 93.2437 130.062C93.7104 130.305 94.2331 130.426 94.8117 130.426C95.2877 130.426 95.7264 130.342 96.1277 130.174C96.5384 129.997 96.8791 129.74 97.1497 129.404L97.5557 129.866C97.2384 130.249 96.8371 130.543 96.3517 130.748C95.8757 130.953 95.3577 131.056 94.7977 131.056C94.0697 131.056 93.4211 130.897 92.8517 130.58C92.2824 130.263 91.8344 129.824 91.5077 129.264C91.1904 128.704 91.0317 128.065 91.0317 127.346C91.0317 126.637 91.1811 126.002 91.4797 125.442C91.7877 124.873 92.2077 124.429 92.7397 124.112C93.2717 123.795 93.8691 123.636 94.5317 123.636C95.1944 123.636 95.7871 123.795 96.3097 124.112C96.8417 124.42 97.2571 124.854 97.5557 125.414C97.8637 125.974 98.0177 126.609 98.0177 127.318L98.0037 127.514ZM94.5317 124.252C94.0184 124.252 93.5564 124.369 93.1457 124.602C92.7351 124.826 92.4037 125.148 92.1517 125.568C91.9091 125.979 91.7691 126.445 91.7317 126.968H97.3317C97.3037 126.445 97.1637 125.979 96.9117 125.568C96.6597 125.157 96.3284 124.835 95.9177 124.602C95.5071 124.369 95.0451 124.252 94.5317 124.252ZM108.257 123.692V131H107.613V124.812L104.435 130.062H104.113L100.949 124.826V131H100.305V123.692H100.991L104.295 129.222L107.613 123.692H108.257ZM117.513 127.514H111.227C111.246 128.083 111.391 128.592 111.661 129.04C111.932 129.479 112.296 129.819 112.753 130.062C113.22 130.305 113.743 130.426 114.321 130.426C114.797 130.426 115.236 130.342 115.637 130.174C116.048 129.997 116.389 129.74 116.659 129.404L117.065 129.866C116.748 130.249 116.347 130.543 115.861 130.748C115.385 130.953 114.867 131.056 114.307 131.056C113.579 131.056 112.931 130.897 112.361 130.58C111.792 130.263 111.344 129.824 111.017 129.264C110.7 128.704 110.541 128.065 110.541 127.346C110.541 126.637 110.691 126.002 110.989 125.442C111.297 124.873 111.717 124.429 112.249 124.112C112.781 123.795 113.379 123.636 114.041 123.636C114.704 123.636 115.297 123.795 115.819 124.112C116.351 124.42 116.767 124.854 117.065 125.414C117.373 125.974 117.527 126.609 117.527 127.318L117.513 127.514ZM114.041 124.252C113.528 124.252 113.066 124.369 112.655 124.602C112.245 124.826 111.913 125.148 111.661 125.568C111.419 125.979 111.279 126.445 111.241 126.968H116.841C116.813 126.445 116.673 125.979 116.421 125.568C116.169 125.157 115.838 124.835 115.427 124.602C115.017 124.369 114.555 124.252 114.041 124.252ZM119.815 123.692H120.515V127.024H125.471V123.692H126.171V131H125.471V127.64H120.515V131H119.815V123.692ZM129.194 123.692H129.894V129.922L135.102 123.692H135.718V131H135.018V124.77L129.81 131H129.194V123.692ZM147.33 124.322H143.032V131H142.332V123.692H147.33V124.322ZM151.397 131.056C150.706 131.056 150.081 130.897 149.521 130.58C148.97 130.263 148.536 129.824 148.219 129.264C147.901 128.695 147.743 128.055 147.743 127.346C147.743 126.637 147.901 126.002 148.219 125.442C148.536 124.873 148.97 124.429 149.521 124.112C150.081 123.795 150.706 123.636 151.397 123.636C152.087 123.636 152.708 123.795 153.259 124.112C153.819 124.429 154.257 124.873 154.575 125.442C154.892 126.002 155.051 126.637 155.051 127.346C155.051 128.055 154.892 128.695 154.575 129.264C154.257 129.824 153.819 130.263 153.259 130.58C152.708 130.897 152.087 131.056 151.397 131.056ZM151.397 130.426C151.957 130.426 152.456 130.295 152.895 130.034C153.343 129.773 153.693 129.409 153.945 128.942C154.206 128.475 154.337 127.943 154.337 127.346C154.337 126.749 154.206 126.217 153.945 125.75C153.693 125.283 153.343 124.919 152.895 124.658C152.456 124.397 151.957 124.266 151.397 124.266C150.837 124.266 150.333 124.397 149.885 124.658C149.446 124.919 149.096 125.283 148.835 125.75C148.583 126.217 148.457 126.749 148.457 127.346C148.457 127.943 148.583 128.475 148.835 128.942C149.096 129.409 149.446 129.773 149.885 130.034C150.333 130.295 150.837 130.426 151.397 130.426ZM164.177 130.384V132.82H163.519V131H156.603V132.82H155.931V130.384H156.365C156.86 130.356 157.196 129.973 157.373 129.236C157.56 128.489 157.69 127.444 157.765 126.1L157.863 123.692H163.001V130.384H164.177ZM158.409 126.142C158.362 127.253 158.269 128.177 158.129 128.914C157.989 129.651 157.737 130.141 157.373 130.384H162.301V124.322H158.493L158.409 126.142ZM168.666 123.636C169.572 123.636 170.267 123.869 170.752 124.336C171.238 124.793 171.48 125.47 171.48 126.366V131H170.808V129.698C170.575 130.127 170.234 130.463 169.786 130.706C169.338 130.939 168.802 131.056 168.176 131.056C167.364 131.056 166.72 130.865 166.244 130.482C165.778 130.099 165.544 129.595 165.544 128.97C165.544 128.363 165.759 127.873 166.188 127.5C166.627 127.117 167.322 126.926 168.274 126.926H170.78V126.338C170.78 125.657 170.594 125.139 170.22 124.784C169.856 124.429 169.32 124.252 168.61 124.252C168.125 124.252 167.658 124.336 167.21 124.504C166.772 124.672 166.398 124.896 166.09 125.176L165.74 124.672C166.104 124.345 166.543 124.093 167.056 123.916C167.57 123.729 168.106 123.636 168.666 123.636ZM168.274 130.482C168.881 130.482 169.394 130.342 169.814 130.062C170.244 129.782 170.566 129.376 170.78 128.844V127.472H168.288C167.57 127.472 167.047 127.603 166.72 127.864C166.403 128.125 166.244 128.485 166.244 128.942C166.244 129.418 166.422 129.796 166.776 130.076C167.131 130.347 167.63 130.482 168.274 130.482ZM180.832 131.056C180.142 131.056 179.516 130.897 178.956 130.58C178.406 130.263 177.972 129.824 177.654 129.264C177.337 128.695 177.178 128.055 177.178 127.346C177.178 126.637 177.337 126.002 177.654 125.442C177.972 124.873 178.406 124.429 178.956 124.112C179.516 123.795 180.142 123.636 180.832 123.636C181.523 123.636 182.144 123.795 182.694 124.112C183.254 124.429 183.693 124.873 184.01 125.442C184.328 126.002 184.486 126.637 184.486 127.346C184.486 128.055 184.328 128.695 184.01 129.264C183.693 129.824 183.254 130.263 182.694 130.58C182.144 130.897 181.523 131.056 180.832 131.056ZM180.832 130.426C181.392 130.426 181.892 130.295 182.33 130.034C182.778 129.773 183.128 129.409 183.38 128.942C183.642 128.475 183.772 127.943 183.772 127.346C183.772 126.749 183.642 126.217 183.38 125.75C183.128 125.283 182.778 124.919 182.33 124.658C181.892 124.397 181.392 124.266 180.832 124.266C180.272 124.266 179.768 124.397 179.32 124.658C178.882 124.919 178.532 125.283 178.27 125.75C178.018 126.217 177.892 126.749 177.892 127.346C177.892 127.943 178.018 128.475 178.27 128.942C178.532 129.409 178.882 129.773 179.32 130.034C179.768 130.295 180.272 130.426 180.832 130.426ZM186.766 123.692H187.466V127.024H192.422V123.692H193.122V131H192.422V127.64H187.466V131H186.766V123.692ZM202.653 131.056C201.962 131.056 201.337 130.897 200.777 130.58C200.226 130.263 199.792 129.824 199.475 129.264C199.157 128.695 198.999 128.055 198.999 127.346C198.999 126.637 199.157 126.002 199.475 125.442C199.792 124.873 200.226 124.429 200.777 124.112C201.337 123.795 201.962 123.636 202.653 123.636C203.343 123.636 203.964 123.795 204.515 124.112C205.075 124.429 205.513 124.873 205.831 125.442C206.148 126.002 206.307 126.637 206.307 127.346C206.307 128.055 206.148 128.695 205.831 129.264C205.513 129.824 205.075 130.263 204.515 130.58C203.964 130.897 203.343 131.056 202.653 131.056ZM202.653 130.426C203.213 130.426 203.712 130.295 204.151 130.034C204.599 129.773 204.949 129.409 205.201 128.942C205.462 128.475 205.593 127.943 205.593 127.346C205.593 126.749 205.462 126.217 205.201 125.75C204.949 125.283 204.599 124.919 204.151 124.658C203.712 124.397 203.213 124.266 202.653 124.266C202.093 124.266 201.589 124.397 201.141 124.658C200.702 124.919 200.352 125.283 200.091 125.75C199.839 126.217 199.713 126.749 199.713 127.346C199.713 127.943 199.839 128.475 200.091 128.942C200.352 129.409 200.702 129.773 201.141 130.034C201.589 130.295 202.093 130.426 202.653 130.426ZM213.199 124.322H210.343V131H209.643V124.322H206.787V123.692H213.199V124.322ZM214.698 123.692H215.398V127.024H220.354V123.692H221.054V131H220.354V127.64H215.398V131H214.698V123.692ZM226.988 131.056C226.298 131.056 225.672 130.897 225.112 130.58C224.562 130.263 224.128 129.824 223.81 129.264C223.493 128.695 223.334 128.055 223.334 127.346C223.334 126.637 223.493 126.002 223.81 125.442C224.128 124.873 224.562 124.429 225.112 124.112C225.672 123.795 226.298 123.636 226.988 123.636C227.679 123.636 228.3 123.795 228.85 124.112C229.41 124.429 229.849 124.873 230.166 125.442C230.484 126.002 230.642 126.637 230.642 127.346C230.642 128.055 230.484 128.695 230.166 129.264C229.849 129.824 229.41 130.263 228.85 130.58C228.3 130.897 227.679 131.056 226.988 131.056ZM226.988 130.426C227.548 130.426 228.048 130.295 228.486 130.034C228.934 129.773 229.284 129.409 229.536 128.942C229.798 128.475 229.928 127.943 229.928 127.346C229.928 126.749 229.798 126.217 229.536 125.75C229.284 125.283 228.934 124.919 228.486 124.658C228.048 124.397 227.548 124.266 226.988 124.266C226.428 124.266 225.924 124.397 225.476 124.658C225.038 124.919 224.688 125.283 224.426 125.75C224.174 126.217 224.048 126.749 224.048 127.346C224.048 127.943 224.174 128.475 224.426 128.942C224.688 129.409 225.038 129.773 225.476 130.034C225.924 130.295 226.428 130.426 226.988 130.426ZM235.876 131.056C235.167 131.056 234.532 130.897 233.972 130.58C233.412 130.263 232.973 129.824 232.656 129.264C232.339 128.695 232.18 128.055 232.18 127.346C232.18 126.627 232.339 125.988 232.656 125.428C232.973 124.859 233.412 124.42 233.972 124.112C234.532 123.795 235.167 123.636 235.876 123.636C236.464 123.636 236.996 123.753 237.472 123.986C237.957 124.21 238.349 124.541 238.648 124.98L238.13 125.358C237.869 124.994 237.542 124.723 237.15 124.546C236.767 124.359 236.343 124.266 235.876 124.266C235.307 124.266 234.793 124.397 234.336 124.658C233.888 124.91 233.533 125.269 233.272 125.736C233.02 126.203 232.894 126.739 232.894 127.346C232.894 127.953 233.02 128.489 233.272 128.956C233.533 129.423 233.888 129.787 234.336 130.048C234.793 130.3 235.307 130.426 235.876 130.426C236.343 130.426 236.767 130.337 237.15 130.16C237.542 129.973 237.869 129.698 238.13 129.334L238.648 129.712C238.349 130.151 237.957 130.487 237.472 130.72C236.996 130.944 236.464 131.056 235.876 131.056ZM240.715 123.692H241.415V129.922L246.623 123.692H247.239V131H246.539V124.77L241.331 131H240.715V123.692ZM255.144 124.322H252.288V131H251.588V124.322H248.732V123.692H255.144V124.322ZM259.255 131.056C258.546 131.056 257.911 130.897 257.351 130.58C256.791 130.263 256.352 129.824 256.035 129.264C255.718 128.695 255.559 128.055 255.559 127.346C255.559 126.627 255.718 125.988 256.035 125.428C256.352 124.859 256.791 124.42 257.351 124.112C257.911 123.795 258.546 123.636 259.255 123.636C259.843 123.636 260.375 123.753 260.851 123.986C261.336 124.21 261.728 124.541 262.027 124.98L261.509 125.358C261.248 124.994 260.921 124.723 260.529 124.546C260.146 124.359 259.722 124.266 259.255 124.266C258.686 124.266 258.172 124.397 257.715 124.658C257.267 124.91 256.912 125.269 256.651 125.736C256.399 126.203 256.273 126.739 256.273 127.346C256.273 127.953 256.399 128.489 256.651 128.956C256.912 129.423 257.267 129.787 257.715 130.048C258.172 130.3 258.686 130.426 259.255 130.426C259.722 130.426 260.146 130.337 260.529 130.16C260.921 129.973 261.248 129.698 261.509 129.334L262.027 129.712C261.728 130.151 261.336 130.487 260.851 130.72C260.375 130.944 259.843 131.056 259.255 131.056ZM269.224 123.692V131H268.58V128.48H266.144C265.976 128.48 265.855 128.475 265.78 128.466L263.974 131H263.204L265.094 128.382C264.497 128.251 264.04 127.995 263.722 127.612C263.405 127.229 263.246 126.735 263.246 126.128C263.246 125.325 263.512 124.719 264.044 124.308C264.586 123.897 265.323 123.692 266.256 123.692H269.224ZM263.946 126.156C263.946 127.351 264.702 127.948 266.214 127.948H268.58V124.308H266.298C264.73 124.308 263.946 124.924 263.946 126.156Z" fill="white"/>
<rect x="54.4683" y="169" width="234.063" height="48.6031" rx="24.3015" fill="#9C0332"/>
<path d="M130.624 186.702H131.938V197.142L140.002 186.702H141.208V199.302H139.894V188.88L131.83 199.302H130.624V186.702ZM151.85 190.968H146.432V199.302H145.154V189.834H151.85V190.968ZM158.575 189.762C159.463 189.762 160.267 189.966 160.987 190.374C161.707 190.77 162.271 191.334 162.679 192.066C163.087 192.798 163.291 193.632 163.291 194.568C163.291 195.516 163.087 196.356 162.679 197.088C162.271 197.82 161.707 198.39 160.987 198.798C160.279 199.194 159.475 199.392 158.575 199.392C157.807 199.392 157.111 199.236 156.487 198.924C155.875 198.6 155.371 198.132 154.975 197.52V202.794H153.697V189.834H154.921V191.706C155.305 191.082 155.809 190.602 156.433 190.266C157.069 189.93 157.783 189.762 158.575 189.762ZM158.485 198.258C159.145 198.258 159.745 198.108 160.285 197.808C160.825 197.496 161.245 197.058 161.545 196.494C161.857 195.93 162.013 195.288 162.013 194.568C162.013 193.848 161.857 193.212 161.545 192.66C161.245 192.096 160.825 191.658 160.285 191.346C159.745 191.034 159.145 190.878 158.485 190.878C157.813 190.878 157.207 191.034 156.667 191.346C156.139 191.658 155.719 192.096 155.407 192.66C155.107 193.212 154.957 193.848 154.957 194.568C154.957 195.288 155.107 195.93 155.407 196.494C155.719 197.058 156.139 197.496 156.667 197.808C157.207 198.108 157.813 198.258 158.485 198.258ZM169.242 189.762C170.478 189.762 171.426 190.074 172.086 190.698C172.746 191.31 173.076 192.222 173.076 193.434V199.302H171.852V197.826C171.564 198.318 171.138 198.702 170.574 198.978C170.022 199.254 169.362 199.392 168.594 199.392C167.538 199.392 166.698 199.14 166.074 198.636C165.45 198.132 165.138 197.466 165.138 196.638C165.138 195.834 165.426 195.186 166.002 194.694C166.59 194.202 167.52 193.956 168.792 193.956H171.798V193.38C171.798 192.564 171.57 191.946 171.114 191.526C170.658 191.094 169.992 190.878 169.116 190.878C168.516 190.878 167.94 190.98 167.388 191.184C166.836 191.376 166.362 191.646 165.966 191.994L165.39 191.04C165.87 190.632 166.446 190.32 167.118 190.104C167.79 189.876 168.498 189.762 169.242 189.762ZM168.792 198.384C169.512 198.384 170.13 198.222 170.646 197.898C171.162 197.562 171.546 197.082 171.798 196.458V194.91H168.828C167.208 194.91 166.398 195.474 166.398 196.602C166.398 197.154 166.608 197.592 167.028 197.916C167.448 198.228 168.036 198.384 168.792 198.384ZM183.138 190.968H179.556V199.302H178.278V190.968H174.696V189.834H183.138V190.968ZM189.054 193.182C190.242 193.194 191.142 193.458 191.754 193.974C192.378 194.49 192.69 195.234 192.69 196.206C192.69 197.214 192.354 197.988 191.682 198.528C191.022 199.068 190.062 199.332 188.802 199.32L184.986 199.302V189.834H186.264V193.146L189.054 193.182ZM188.73 198.348C189.606 198.36 190.266 198.186 190.71 197.826C191.166 197.454 191.394 196.914 191.394 196.206C191.394 195.51 191.172 194.994 190.728 194.658C190.284 194.322 189.618 194.148 188.73 194.136L186.264 194.1V198.312L188.73 198.348ZM194.894 186.702H196.406L196.136 195.522H195.146L194.894 186.702ZM195.65 199.392C195.386 199.392 195.158 199.302 194.966 199.122C194.786 198.93 194.696 198.708 194.696 198.456C194.696 198.192 194.786 197.976 194.966 197.808C195.146 197.628 195.374 197.538 195.65 197.538C195.914 197.538 196.136 197.628 196.316 197.808C196.496 197.976 196.586 198.192 196.586 198.456C196.586 198.708 196.496 198.93 196.316 199.122C196.136 199.302 195.914 199.392 195.65 199.392Z" fill="white"/>
</svg>
