<svg width="588" height="236" viewBox="0 0 588 236" fill="none" xmlns="http://www.w3.org/2000/svg">
<path d="M23.2801 29.6785C25.2321 30.3505 26.7521 31.4065 27.8401 32.8465C28.9601 34.2545 29.5201 35.9025 29.5201 37.7905C29.5201 39.8385 28.8481 41.6145 27.5041 43.1185C26.1601 44.6225 24.3361 45.7745 22.0321 46.5745C19.7601 47.3745 17.2641 47.7745 14.5441 47.7745C12.2401 47.7745 9.93606 47.4865 7.63206 46.9105C5.36006 46.3345 3.20006 45.4545 1.15206 44.2705L3.55206 38.7025C5.02406 39.5985 6.64006 40.2865 8.40006 40.7665C10.1921 41.2145 11.9361 41.4385 13.6321 41.4385C15.9361 41.4385 17.8401 41.0225 19.3441 40.1905C20.8801 39.3585 21.6481 38.1905 21.6481 36.6865C21.6481 35.4385 21.1201 34.4945 20.0641 33.8545C19.0401 33.2145 17.6321 32.8945 15.8401 32.8945H7.63206V27.0385H15.2641C16.8321 27.0385 18.0481 26.7185 18.9121 26.0785C19.8081 25.4385 20.2561 24.5585 20.2561 23.4385C20.2561 22.1265 19.6161 21.1025 18.3361 20.3665C17.0881 19.6305 15.4721 19.2625 13.4881 19.2625C12.0161 19.2625 10.4961 19.4705 8.92806 19.8865C7.36006 20.2705 5.87206 20.8625 4.46406 21.6625L2.11206 15.6145C5.66406 13.7905 9.50406 12.8785 13.6321 12.8785C16.2561 12.8785 18.6721 13.2625 20.8801 14.0305C23.0881 14.7985 24.8481 15.9185 26.1601 17.3905C27.4721 18.8625 28.1281 20.5745 28.1281 22.5265C28.1281 24.1265 27.6961 25.5505 26.8321 26.7985C25.9681 28.0465 24.7841 29.0065 23.2801 29.6785ZM45.1321 20.9905C49.1321 20.9905 52.2041 21.9505 54.3481 23.8705C56.4921 25.7585 57.5641 28.6225 57.5641 32.4625V47.1985H50.5561V43.9825C49.1481 46.3825 46.5241 47.5825 42.6841 47.5825C40.7001 47.5825 38.9721 47.2465 37.5001 46.5745C36.0601 45.9025 34.9561 44.9745 34.1881 43.7905C33.4201 42.6065 33.0361 41.2625 33.0361 39.7585C33.0361 37.3585 33.9321 35.4705 35.7241 34.0945C37.5481 32.7185 40.3481 32.0305 44.1241 32.0305H50.0761C50.0761 30.3985 49.5801 29.1505 48.5881 28.2865C47.5961 27.3905 46.1081 26.9425 44.1241 26.9425C42.7481 26.9425 41.3881 27.1665 40.0441 27.6145C38.7321 28.0305 37.6121 28.6065 36.6841 29.3425L33.9961 24.1105C35.4041 23.1185 37.0841 22.3505 39.0361 21.8065C41.0201 21.2625 43.0521 20.9905 45.1321 20.9905ZM44.5561 42.5425C45.8361 42.5425 46.9721 42.2545 47.9641 41.6785C48.9561 41.0705 49.6601 40.1905 50.0761 39.0385V36.3985H44.9401C41.8681 36.3985 40.3321 37.4065 40.3321 39.4225C40.3321 40.3825 40.7001 41.1505 41.4361 41.7265C42.2041 42.2705 43.2441 42.5425 44.5561 42.5425ZM89.7488 21.3745V47.1985H82.2608V27.5185H71.5088V47.1985H64.0688V21.3745H89.7488ZM109.024 47.5825C106.304 47.5825 103.856 47.0225 101.68 45.9025C99.5362 44.7505 97.8562 43.1665 96.6402 41.1505C95.4242 39.1345 94.8162 36.8465 94.8162 34.2865C94.8162 31.7265 95.4242 29.4385 96.6402 27.4225C97.8562 25.4065 99.5362 23.8385 101.68 22.7185C103.856 21.5665 106.304 20.9905 109.024 20.9905C111.744 20.9905 114.176 21.5665 116.32 22.7185C118.464 23.8385 120.144 25.4065 121.36 27.4225C122.576 29.4385 123.184 31.7265 123.184 34.2865C123.184 36.8465 122.576 39.1345 121.36 41.1505C120.144 43.1665 118.464 44.7505 116.32 45.9025C114.176 47.0225 111.744 47.5825 109.024 47.5825ZM109.024 41.4385C110.944 41.4385 112.512 40.7985 113.728 39.5185C114.976 38.2065 115.6 36.4625 115.6 34.2865C115.6 32.1105 114.976 30.3825 113.728 29.1025C112.512 27.7905 110.944 27.1345 109.024 27.1345C107.104 27.1345 105.52 27.7905 104.272 29.1025C103.024 30.3825 102.4 32.1105 102.4 34.2865C102.4 36.4625 103.024 38.2065 104.272 39.5185C105.52 40.7985 107.104 41.4385 109.024 41.4385ZM153.534 47.1985V31.7425L145.806 44.7025H142.638L135.102 31.6945V47.1985H128.334V21.3745H136.158L144.414 36.3025L153.198 21.3745H160.206L160.302 47.1985H153.534ZM167.475 21.3745H174.915V31.4545H186.147V21.3745H193.635V47.1985H186.147V37.5505H174.915V47.1985H167.475V21.3745ZM200.803 21.3745H208.243V36.7345L220.819 21.3745H227.683V47.1985H220.243V31.8385L207.715 47.1985H200.803V21.3745ZM260.763 47.5825C258.011 47.5825 255.531 47.0225 253.323 45.9025C251.147 44.7505 249.435 43.1665 248.187 41.1505C246.971 39.1345 246.363 36.8465 246.363 34.2865C246.363 31.7265 246.971 29.4385 248.187 27.4225C249.435 25.4065 251.147 23.8385 253.323 22.7185C255.531 21.5665 258.011 20.9905 260.763 20.9905C263.483 20.9905 265.851 21.5665 267.867 22.7185C269.915 23.8385 271.403 25.4545 272.331 27.5665L266.523 30.6865C265.179 28.3185 263.243 27.1345 260.715 27.1345C258.763 27.1345 257.147 27.7745 255.867 29.0545C254.587 30.3345 253.947 32.0785 253.947 34.2865C253.947 36.4945 254.587 38.2385 255.867 39.5185C257.147 40.7985 258.763 41.4385 260.715 41.4385C263.275 41.4385 265.211 40.2545 266.523 37.8865L272.331 41.0545C271.403 43.1025 269.915 44.7025 267.867 45.8545C265.851 47.0065 263.483 47.5825 260.763 47.5825ZM301.274 21.3745V47.1985H293.786V27.5185H285.626L285.386 32.0785C285.258 35.4705 284.938 38.2865 284.426 40.5265C283.914 42.7665 283.082 44.5265 281.93 45.8065C280.778 47.0865 279.178 47.7265 277.13 47.7265C276.042 47.7265 274.746 47.5345 273.242 47.1505L273.626 41.0065C274.138 41.0705 274.506 41.1025 274.73 41.1025C275.85 41.1025 276.682 40.7025 277.226 39.9025C277.802 39.0705 278.186 38.0305 278.378 36.7825C278.57 35.5025 278.714 33.8225 278.81 31.7425L279.194 21.3745H301.274ZM320.571 47.5825C317.851 47.5825 315.403 47.0225 313.227 45.9025C311.083 44.7505 309.403 43.1665 308.187 41.1505C306.971 39.1345 306.363 36.8465 306.363 34.2865C306.363 31.7265 306.971 29.4385 308.187 27.4225C309.403 25.4065 311.083 23.8385 313.227 22.7185C315.403 21.5665 317.851 20.9905 320.571 20.9905C323.291 20.9905 325.723 21.5665 327.867 22.7185C330.011 23.8385 331.691 25.4065 332.907 27.4225C334.123 29.4385 334.731 31.7265 334.731 34.2865C334.731 36.8465 334.123 39.1345 332.907 41.1505C331.691 43.1665 330.011 44.7505 327.867 45.9025C325.723 47.0225 323.291 47.5825 320.571 47.5825ZM320.571 41.4385C322.491 41.4385 324.059 40.7985 325.275 39.5185C326.523 38.2065 327.147 36.4625 327.147 34.2865C327.147 32.1105 326.523 30.3825 325.275 29.1025C324.059 27.7905 322.491 27.1345 320.571 27.1345C318.651 27.1345 317.067 27.7905 315.819 29.1025C314.571 30.3825 313.947 32.1105 313.947 34.2865C313.947 36.4625 314.571 38.2065 315.819 39.5185C317.067 40.7985 318.651 41.4385 320.571 41.4385ZM359.609 33.7105C362.649 34.7345 364.169 36.7825 364.169 39.8545C364.169 42.1905 363.289 43.9985 361.529 45.2785C359.769 46.5585 357.145 47.1985 353.657 47.1985H339.881V21.3745H353.081C356.313 21.3745 358.841 21.9665 360.665 23.1505C362.489 24.3025 363.401 25.9345 363.401 28.0465C363.401 29.3265 363.065 30.4625 362.393 31.4545C361.753 32.4145 360.825 33.1665 359.609 33.7105ZM346.745 31.9825H352.409C355.033 31.9825 356.345 31.0545 356.345 29.1985C356.345 27.3745 355.033 26.4625 352.409 26.4625H346.745V31.9825ZM353.033 42.1105C355.785 42.1105 357.161 41.1665 357.161 39.2785C357.161 38.2865 356.841 37.5665 356.201 37.1185C355.561 36.6385 354.553 36.3985 353.177 36.3985H346.745V42.1105H353.033ZM379.773 20.9905C383.773 20.9905 386.845 21.9505 388.989 23.8705C391.133 25.7585 392.205 28.6225 392.205 32.4625V47.1985H385.197V43.9825C383.789 46.3825 381.165 47.5825 377.325 47.5825C375.341 47.5825 373.613 47.2465 372.141 46.5745C370.701 45.9025 369.597 44.9745 368.829 43.7905C368.061 42.6065 367.677 41.2625 367.677 39.7585C367.677 37.3585 368.573 35.4705 370.365 34.0945C372.189 32.7185 374.989 32.0305 378.765 32.0305H384.717C384.717 30.3985 384.221 29.1505 383.229 28.2865C382.237 27.3905 380.749 26.9425 378.765 26.9425C377.389 26.9425 376.029 27.1665 374.685 27.6145C373.373 28.0305 372.253 28.6065 371.325 29.3425L368.637 24.1105C370.045 23.1185 371.725 22.3505 373.677 21.8065C375.661 21.2625 377.693 20.9905 379.773 20.9905ZM379.197 42.5425C380.477 42.5425 381.613 42.2545 382.605 41.6785C383.597 41.0705 384.301 40.1905 384.717 39.0385V36.3985H379.581C376.509 36.3985 374.973 37.4065 374.973 39.4225C374.973 40.3825 375.341 41.1505 376.077 41.7265C376.845 42.2705 377.885 42.5425 379.197 42.5425Z" fill="white"/>
<path d="M12.636 100.598V113.198H11.718V101.426H3.186V113.198H2.268V100.598H12.636ZM21.5843 103.73C22.4603 103.73 23.2523 103.934 23.9603 104.342C24.6683 104.75 25.2203 105.314 25.6163 106.034C26.0243 106.754 26.2283 107.576 26.2283 108.5C26.2283 109.424 26.0243 110.252 25.6163 110.984C25.2203 111.704 24.6683 112.268 23.9603 112.676C23.2523 113.072 22.4603 113.27 21.5843 113.27C20.7563 113.27 20.0063 113.078 19.3343 112.694C18.6623 112.298 18.1403 111.752 17.7683 111.056V116.69H16.8683V103.802H17.7323V106.016C18.1043 105.296 18.6263 104.738 19.2983 104.342C19.9823 103.934 20.7443 103.73 21.5843 103.73ZM21.5303 112.46C22.2503 112.46 22.8983 112.292 23.4743 111.956C24.0503 111.62 24.5003 111.152 24.8242 110.552C25.1603 109.952 25.3283 109.268 25.3283 108.5C25.3283 107.732 25.1603 107.048 24.8242 106.448C24.5003 105.848 24.0503 105.38 23.4743 105.044C22.8983 104.708 22.2503 104.54 21.5303 104.54C20.8103 104.54 20.1623 104.708 19.5863 105.044C19.0223 105.38 18.5723 105.848 18.2363 106.448C17.9123 107.048 17.7503 107.732 17.7503 108.5C17.7503 109.268 17.9123 109.952 18.2363 110.552C18.5723 111.152 19.0223 111.62 19.5863 111.956C20.1623 112.292 20.8103 112.46 21.5303 112.46ZM29.1549 103.802H30.0549V111.812L36.7509 103.802H37.5429V113.198H36.6429V105.188L29.9469 113.198H29.1549V103.802ZM46.0475 103.802H46.9475V108.086H53.3195V103.802H54.2195V113.198H53.3195V108.878H46.9475V113.198H46.0475V103.802ZM61.2201 103.73C62.3841 103.73 63.2781 104.03 63.9021 104.63C64.5261 105.218 64.8381 106.088 64.8381 107.24V113.198H63.9741V111.524C63.6741 112.076 63.2361 112.508 62.6601 112.82C62.0841 113.12 61.3941 113.27 60.5901 113.27C59.5461 113.27 58.7181 113.024 58.1061 112.532C57.5061 112.04 57.2061 111.392 57.2061 110.588C57.2061 109.808 57.4821 109.178 58.0341 108.698C58.5981 108.206 59.4921 107.96 60.7161 107.96H63.9381V107.204C63.9381 106.328 63.6981 105.662 63.2181 105.206C62.7501 104.75 62.0601 104.522 61.1481 104.522C60.5241 104.522 59.9241 104.63 59.3481 104.846C58.7841 105.062 58.3041 105.35 57.9081 105.71L57.4581 105.062C57.9261 104.642 58.4901 104.318 59.1501 104.09C59.8101 103.85 60.5001 103.73 61.2201 103.73ZM60.7161 112.532C61.4961 112.532 62.1561 112.352 62.6961 111.992C63.2481 111.632 63.6621 111.11 63.9381 110.426V108.662H60.7341C59.8101 108.662 59.1381 108.83 58.7181 109.166C58.3101 109.502 58.1061 109.964 58.1061 110.552C58.1061 111.164 58.3341 111.65 58.7901 112.01C59.2461 112.358 59.8881 112.532 60.7161 112.532ZM76.4688 108.842H74.2548V113.198H73.3548V108.842H71.1588L68.0268 113.198H66.9288L70.4388 108.374L67.2168 103.802H68.2068L71.1588 108.068H73.3548V103.802H74.2548V108.068H76.4688L79.4208 103.802H80.4108L77.1888 108.374L80.6808 113.198H79.6008L76.4688 108.842ZM85.9525 103.73C87.1165 103.73 88.0105 104.03 88.6345 104.63C89.2585 105.218 89.5705 106.088 89.5705 107.24V113.198H88.7065V111.524C88.4065 112.076 87.9685 112.508 87.3925 112.82C86.8165 113.12 86.1265 113.27 85.3225 113.27C84.2785 113.27 83.4505 113.024 82.8385 112.532C82.2385 112.04 81.9385 111.392 81.9385 110.588C81.9385 109.808 82.2145 109.178 82.7665 108.698C83.3305 108.206 84.2245 107.96 85.4485 107.96H88.6705V107.204C88.6705 106.328 88.4305 105.662 87.9505 105.206C87.4825 104.75 86.7925 104.522 85.8805 104.522C85.2565 104.522 84.6565 104.63 84.0805 104.846C83.5165 105.062 83.0365 105.35 82.6405 105.71L82.1905 105.062C82.6585 104.642 83.2225 104.318 83.8825 104.09C84.5425 103.85 85.2325 103.73 85.9525 103.73ZM85.4485 112.532C86.2285 112.532 86.8885 112.352 87.4285 111.992C87.9805 111.632 88.3945 111.11 88.6705 110.426V108.662H85.4665C84.5425 108.662 83.8705 108.83 83.4505 109.166C83.0425 109.502 82.8385 109.964 82.8385 110.552C82.8385 111.164 83.0665 111.65 83.5225 112.01C83.9785 112.358 84.6205 112.532 85.4485 112.532ZM99.5092 104.612H95.8372V113.198H94.9372V104.612H91.2652V103.802H99.5092V104.612ZM101.436 103.802H102.336V111.812L109.032 103.802H109.824V113.198H108.924V105.188L102.228 113.198H101.436V103.802ZM113.706 103.802H114.606V111.812L121.302 103.802H122.094V113.198H121.194V105.188L114.498 113.198H113.706V103.802ZM130.598 103.802H131.498V108.086H137.87V103.802H138.77V113.198H137.87V108.878H131.498V113.198H130.598V103.802ZM145.771 103.73C146.935 103.73 147.829 104.03 148.453 104.63C149.077 105.218 149.389 106.088 149.389 107.24V113.198H148.525V111.524C148.225 112.076 147.787 112.508 147.211 112.82C146.635 113.12 145.945 113.27 145.141 113.27C144.097 113.27 143.269 113.024 142.657 112.532C142.057 112.04 141.757 111.392 141.757 110.588C141.757 109.808 142.033 109.178 142.585 108.698C143.149 108.206 144.043 107.96 145.267 107.96H148.489V107.204C148.489 106.328 148.249 105.662 147.769 105.206C147.301 104.75 146.611 104.522 145.699 104.522C145.075 104.522 144.475 104.63 143.899 104.846C143.335 105.062 142.855 105.35 142.459 105.71L142.009 105.062C142.477 104.642 143.041 104.318 143.701 104.09C144.361 103.85 145.051 103.73 145.771 103.73ZM145.267 112.532C146.047 112.532 146.707 112.352 147.247 111.992C147.799 111.632 148.213 111.11 148.489 110.426V108.662H145.285C144.361 108.662 143.689 108.83 143.269 109.166C142.861 109.502 142.657 109.964 142.657 110.552C142.657 111.164 142.885 111.65 143.341 112.01C143.797 112.358 144.439 112.532 145.267 112.532ZM160.855 108.842H158.569V113.198H157.669V103.802H158.569V108.068H160.855L164.401 103.802H165.391L161.575 108.356L165.679 113.198H164.599L160.855 108.842ZM167.899 103.802H168.799V108.086H175.171V103.802H176.071V113.198H175.171V108.878H168.799V113.198H167.899V103.802ZM183.702 113.27C182.814 113.27 182.01 113.066 181.29 112.658C180.582 112.25 180.024 111.686 179.616 110.966C179.208 110.234 179.004 109.412 179.004 108.5C179.004 107.588 179.208 106.772 179.616 106.052C180.024 105.32 180.582 104.75 181.29 104.342C182.01 103.934 182.814 103.73 183.702 103.73C184.59 103.73 185.388 103.934 186.096 104.342C186.816 104.75 187.38 105.32 187.788 106.052C188.196 106.772 188.4 107.588 188.4 108.5C188.4 109.412 188.196 110.234 187.788 110.966C187.38 111.686 186.816 112.25 186.096 112.658C185.388 113.066 184.59 113.27 183.702 113.27ZM183.702 112.46C184.422 112.46 185.064 112.292 185.628 111.956C186.204 111.62 186.654 111.152 186.978 110.552C187.314 109.952 187.482 109.268 187.482 108.5C187.482 107.732 187.314 107.048 186.978 106.448C186.654 105.848 186.204 105.38 185.628 105.044C185.064 104.708 184.422 104.54 183.702 104.54C182.982 104.54 182.334 104.708 181.758 105.044C181.194 105.38 180.744 105.848 180.408 106.448C180.084 107.048 179.922 107.732 179.922 108.5C179.922 109.268 180.084 109.952 180.408 110.552C180.744 111.152 181.194 111.62 181.758 111.956C182.334 112.292 182.982 112.46 183.702 112.46ZM199.539 103.802V113.198H198.639V104.612H192.231V113.198H191.331V103.802H199.539ZM206.61 108.842H204.324V113.198H203.424V103.802H204.324V108.068H206.61L210.156 103.802H211.146L207.33 108.356L211.434 113.198H210.354L206.61 108.842ZM220.76 103.802L215.936 114.476C215.576 115.304 215.156 115.892 214.676 116.24C214.208 116.588 213.65 116.762 213.002 116.762C212.57 116.762 212.162 116.69 211.778 116.546C211.406 116.402 211.088 116.192 210.824 115.916L211.274 115.232C211.754 115.724 212.336 115.97 213.02 115.97C213.476 115.97 213.866 115.844 214.19 115.592C214.514 115.34 214.814 114.908 215.09 114.296L215.594 113.162L211.364 103.802H212.318L216.08 112.208L219.842 103.802H220.76ZM227.559 103.802H228.459V111.812L235.155 103.802H235.947V113.198H235.047V105.188L228.351 113.198H227.559V103.802ZM246.255 104.612H240.729V113.198H239.829V103.802H246.255V104.612ZM252.912 103.73C253.788 103.73 254.58 103.934 255.288 104.342C255.996 104.75 256.548 105.314 256.944 106.034C257.352 106.754 257.556 107.576 257.556 108.5C257.556 109.424 257.352 110.252 256.944 110.984C256.548 111.704 255.996 112.268 255.288 112.676C254.58 113.072 253.788 113.27 252.912 113.27C252.084 113.27 251.334 113.078 250.662 112.694C249.99 112.298 249.468 111.752 249.096 111.056V116.69H248.196V103.802H249.06V106.016C249.432 105.296 249.954 104.738 250.626 104.342C251.31 103.934 252.072 103.73 252.912 103.73ZM252.858 112.46C253.578 112.46 254.226 112.292 254.802 111.956C255.378 111.62 255.828 111.152 256.152 110.552C256.488 109.952 256.656 109.268 256.656 108.5C256.656 107.732 256.488 107.048 256.152 106.448C255.828 105.848 255.378 105.38 254.802 105.044C254.226 104.708 253.578 104.54 252.858 104.54C252.138 104.54 251.49 104.708 250.914 105.044C250.35 105.38 249.9 105.848 249.564 106.448C249.24 107.048 249.078 107.732 249.078 108.5C249.078 109.268 249.24 109.952 249.564 110.552C249.9 111.152 250.35 111.62 250.914 111.956C251.49 112.292 252.138 112.46 252.858 112.46ZM263.562 103.73C264.726 103.73 265.62 104.03 266.244 104.63C266.868 105.218 267.18 106.088 267.18 107.24V113.198H266.316V111.524C266.016 112.076 265.578 112.508 265.002 112.82C264.426 113.12 263.736 113.27 262.932 113.27C261.888 113.27 261.06 113.024 260.448 112.532C259.848 112.04 259.548 111.392 259.548 110.588C259.548 109.808 259.824 109.178 260.376 108.698C260.94 108.206 261.834 107.96 263.058 107.96H266.28V107.204C266.28 106.328 266.04 105.662 265.56 105.206C265.092 104.75 264.402 104.522 263.49 104.522C262.866 104.522 262.266 104.63 261.69 104.846C261.126 105.062 260.646 105.35 260.25 105.71L259.8 105.062C260.268 104.642 260.832 104.318 261.492 104.09C262.152 103.85 262.842 103.73 263.562 103.73ZM263.058 112.532C263.838 112.532 264.498 112.352 265.038 111.992C265.59 111.632 266.004 111.11 266.28 110.426V108.662H263.076C262.152 108.662 261.48 108.83 261.06 109.166C260.652 109.502 260.448 109.964 260.448 110.552C260.448 111.164 260.676 111.65 261.132 112.01C261.588 112.358 262.23 112.532 263.058 112.532ZM277.119 104.612H273.447V113.198H272.547V104.612H268.875V103.802H277.119V104.612ZM282.808 107.222C283.972 107.234 284.86 107.492 285.472 107.996C286.084 108.488 286.39 109.214 286.39 110.174C286.39 111.17 286.066 111.932 285.418 112.46C284.77 112.988 283.828 113.246 282.592 113.234L279.046 113.198V103.802H279.946V107.186L282.808 107.222ZM282.574 112.514C283.522 112.526 284.242 112.334 284.734 111.938C285.226 111.542 285.472 110.954 285.472 110.174C285.472 109.418 285.232 108.86 284.752 108.5C284.272 108.128 283.546 107.93 282.574 107.906L279.946 107.888V112.478L282.574 112.514ZM288.693 111.74C288.909 111.74 289.089 111.818 289.233 111.974C289.377 112.118 289.449 112.292 289.449 112.496C289.449 112.616 289.431 112.742 289.395 112.874C289.371 113.006 289.335 113.156 289.287 113.324L288.585 115.772H287.937L288.531 113.234C288.351 113.186 288.207 113.102 288.099 112.982C287.991 112.85 287.937 112.688 287.937 112.496C287.937 112.28 288.009 112.1 288.153 111.956C288.297 111.812 288.477 111.74 288.693 111.74ZM302.625 108.356C304.005 108.596 304.695 109.37 304.695 110.678C304.695 111.494 304.395 112.118 303.795 112.55C303.207 112.982 302.319 113.198 301.131 113.198H297.063V103.802H301.023C302.067 103.802 302.883 104.012 303.471 104.432C304.071 104.84 304.371 105.428 304.371 106.196C304.371 106.748 304.215 107.21 303.903 107.582C303.603 107.942 303.177 108.2 302.625 108.356ZM297.945 108.086H300.969C301.773 108.086 302.391 107.936 302.823 107.636C303.255 107.324 303.471 106.88 303.471 106.304C303.471 105.716 303.255 105.278 302.823 104.99C302.403 104.69 301.785 104.54 300.969 104.54H297.945V108.086ZM301.113 112.46C302.901 112.46 303.795 111.854 303.795 110.642C303.795 110.006 303.591 109.538 303.183 109.238C302.775 108.938 302.133 108.788 301.257 108.788H297.945V112.46H301.113ZM311.599 107.222C312.763 107.234 313.651 107.492 314.263 107.996C314.875 108.488 315.181 109.214 315.181 110.174C315.181 111.17 314.857 111.932 314.209 112.46C313.561 112.988 312.625 113.246 311.401 113.234L307.891 113.198V103.802H308.791V107.186L311.599 107.222ZM316.909 103.802H317.809V113.198H316.909V103.802ZM311.365 112.514C312.325 112.526 313.051 112.334 313.543 111.938C314.035 111.542 314.281 110.954 314.281 110.174C314.281 109.418 314.041 108.86 313.561 108.5C313.081 108.128 312.349 107.93 311.365 107.906L308.791 107.888V112.478L311.365 112.514ZM333.946 103.802L329.122 114.476C328.762 115.304 328.342 115.892 327.862 116.24C327.394 116.588 326.836 116.762 326.188 116.762C325.756 116.762 325.348 116.69 324.964 116.546C324.592 116.402 324.274 116.192 324.01 115.916L324.46 115.232C324.94 115.724 325.522 115.97 326.206 115.97C326.662 115.97 327.052 115.844 327.376 115.592C327.7 115.34 328 114.908 328.276 114.296L328.78 113.162L324.55 103.802H325.504L329.266 112.208L333.028 103.802H333.946ZM341.684 108.356C343.064 108.596 343.754 109.37 343.754 110.678C343.754 111.494 343.454 112.118 342.854 112.55C342.266 112.982 341.378 113.198 340.19 113.198H336.122V103.802H340.082C341.126 103.802 341.942 104.012 342.53 104.432C343.13 104.84 343.43 105.428 343.43 106.196C343.43 106.748 343.274 107.21 342.962 107.582C342.662 107.942 342.236 108.2 341.684 108.356ZM337.004 108.086H340.028C340.832 108.086 341.45 107.936 341.882 107.636C342.314 107.324 342.53 106.88 342.53 106.304C342.53 105.716 342.314 105.278 341.882 104.99C341.462 104.69 340.844 104.54 340.028 104.54H337.004V108.086ZM340.172 112.46C341.96 112.46 342.854 111.854 342.854 110.642C342.854 110.006 342.65 109.538 342.242 109.238C341.834 108.938 341.192 108.788 340.316 108.788H337.004V112.46H340.172ZM346.95 103.802H347.85V111.812L354.546 103.802H355.338V113.198H354.438V105.188L347.742 113.198H346.95V103.802ZM368.057 112.406V115.538H367.211V113.198H358.319V115.538H357.455V112.406H358.013C358.649 112.37 359.081 111.878 359.309 110.93C359.549 109.97 359.717 108.626 359.813 106.898L359.939 103.802H366.545V112.406H368.057ZM360.641 106.952C360.581 108.38 360.461 109.568 360.281 110.516C360.101 111.464 359.777 112.094 359.309 112.406H365.645V104.612H360.749L360.641 106.952ZM370.715 103.802H371.615V111.812L378.311 103.802H379.103V113.198H378.203V105.188L371.507 113.198H370.715V103.802ZM389.267 104.612H385.595V113.198H384.695V104.612H381.023V103.802H389.267V104.612ZM398.765 108.716H390.683C390.707 109.448 390.893 110.102 391.241 110.678C391.589 111.242 392.057 111.68 392.645 111.992C393.245 112.304 393.917 112.46 394.661 112.46C395.273 112.46 395.837 112.352 396.353 112.136C396.881 111.908 397.319 111.578 397.667 111.146L398.189 111.74C397.781 112.232 397.265 112.61 396.641 112.874C396.029 113.138 395.363 113.27 394.643 113.27C393.707 113.27 392.873 113.066 392.141 112.658C391.409 112.25 390.833 111.686 390.413 110.966C390.005 110.246 389.801 109.424 389.801 108.5C389.801 107.588 389.993 106.772 390.377 106.052C390.773 105.32 391.313 104.75 391.997 104.342C392.681 103.934 393.449 103.73 394.301 103.73C395.153 103.73 395.915 103.934 396.587 104.342C397.271 104.738 397.805 105.296 398.189 106.016C398.585 106.736 398.783 107.552 398.783 108.464L398.765 108.716ZM394.301 104.522C393.641 104.522 393.047 104.672 392.519 104.972C391.991 105.26 391.565 105.674 391.241 106.214C390.929 106.742 390.749 107.342 390.701 108.014H397.901C397.865 107.342 397.685 106.742 397.361 106.214C397.037 105.686 396.611 105.272 396.083 104.972C395.555 104.672 394.961 104.522 394.301 104.522ZM406.346 103.802H407.246V108.086H413.618V103.802H414.518V113.198H413.618V108.878H407.246V113.198H406.346V103.802ZM426.415 108.716H418.333C418.357 109.448 418.543 110.102 418.891 110.678C419.239 111.242 419.707 111.68 420.295 111.992C420.895 112.304 421.567 112.46 422.311 112.46C422.923 112.46 423.487 112.352 424.003 112.136C424.531 111.908 424.969 111.578 425.317 111.146L425.839 111.74C425.431 112.232 424.915 112.61 424.291 112.874C423.679 113.138 423.013 113.27 422.293 113.27C421.357 113.27 420.523 113.066 419.791 112.658C419.059 112.25 418.483 111.686 418.063 110.966C417.655 110.246 417.451 109.424 417.451 108.5C417.451 107.588 417.643 106.772 418.027 106.052C418.423 105.32 418.963 104.75 419.647 104.342C420.331 103.934 421.099 103.73 421.951 103.73C422.803 103.73 423.565 103.934 424.237 104.342C424.921 104.738 425.455 105.296 425.839 106.016C426.235 106.736 426.433 107.552 426.433 108.464L426.415 108.716ZM421.951 104.522C421.291 104.522 420.697 104.672 420.169 104.972C419.641 105.26 419.215 105.674 418.891 106.214C418.579 106.742 418.399 107.342 418.351 108.014H425.551C425.515 107.342 425.335 106.742 425.011 106.214C424.687 105.686 424.261 105.272 423.733 104.972C423.205 104.672 422.611 104.522 421.951 104.522ZM433.172 113.27C432.26 113.27 431.444 113.066 430.724 112.658C430.004 112.25 429.44 111.686 429.032 110.966C428.624 110.234 428.42 109.412 428.42 108.5C428.42 107.576 428.624 106.754 429.032 106.034C429.44 105.302 430.004 104.738 430.724 104.342C431.444 103.934 432.26 103.73 433.172 103.73C433.928 103.73 434.612 103.88 435.224 104.18C435.848 104.468 436.352 104.894 436.736 105.458L436.07 105.944C435.734 105.476 435.314 105.128 434.81 104.9C434.318 104.66 433.772 104.54 433.172 104.54C432.44 104.54 431.78 104.708 431.192 105.044C430.616 105.368 430.16 105.83 429.824 106.43C429.5 107.03 429.338 107.72 429.338 108.5C429.338 109.28 429.5 109.97 429.824 110.57C430.16 111.17 430.616 111.638 431.192 111.974C431.78 112.298 432.44 112.46 433.172 112.46C433.772 112.46 434.318 112.346 434.81 112.118C435.314 111.878 435.734 111.524 436.07 111.056L436.736 111.542C436.352 112.106 435.848 112.538 435.224 112.838C434.612 113.126 433.928 113.27 433.172 113.27ZM442.579 108.842H440.293V113.198H439.393V103.802H440.293V108.068H442.579L446.125 103.802H447.115L443.299 108.356L447.403 113.198H446.323L442.579 108.842ZM453.034 113.27C452.146 113.27 451.342 113.066 450.622 112.658C449.914 112.25 449.356 111.686 448.948 110.966C448.54 110.234 448.336 109.412 448.336 108.5C448.336 107.588 448.54 106.772 448.948 106.052C449.356 105.32 449.914 104.75 450.622 104.342C451.342 103.934 452.146 103.73 453.034 103.73C453.922 103.73 454.72 103.934 455.428 104.342C456.148 104.75 456.712 105.32 457.12 106.052C457.528 106.772 457.732 107.588 457.732 108.5C457.732 109.412 457.528 110.234 457.12 110.966C456.712 111.686 456.148 112.25 455.428 112.658C454.72 113.066 453.922 113.27 453.034 113.27ZM453.034 112.46C453.754 112.46 454.396 112.292 454.96 111.956C455.536 111.62 455.986 111.152 456.31 110.552C456.646 109.952 456.814 109.268 456.814 108.5C456.814 107.732 456.646 107.048 456.31 106.448C455.986 105.848 455.536 105.38 454.96 105.044C454.396 104.708 453.754 104.54 453.034 104.54C452.314 104.54 451.666 104.708 451.09 105.044C450.526 105.38 450.076 105.848 449.74 106.448C449.416 107.048 449.254 107.732 449.254 108.5C449.254 109.268 449.416 109.952 449.74 110.552C450.076 111.152 450.526 111.62 451.09 111.956C451.666 112.292 452.314 112.46 453.034 112.46ZM467.972 103.802V113.198H467.072V104.612H462.176L462.05 107.114C461.978 108.41 461.87 109.496 461.726 110.372C461.582 111.248 461.336 111.956 460.988 112.496C460.64 113.036 460.16 113.306 459.548 113.306C459.368 113.306 459.11 113.264 458.774 113.18L458.864 112.406C459.056 112.454 459.2 112.478 459.296 112.478C459.8 112.478 460.184 112.232 460.448 111.74C460.712 111.248 460.892 110.636 460.988 109.904C461.084 109.172 461.162 108.218 461.222 107.042L461.384 103.802H467.972ZM475.622 107.222C476.786 107.234 477.674 107.492 478.286 107.996C478.898 108.488 479.204 109.214 479.204 110.174C479.204 111.17 478.88 111.932 478.232 112.46C477.584 112.988 476.642 113.246 475.406 113.234L471.86 113.198V103.802H472.76V107.186L475.622 107.222ZM475.388 112.514C476.336 112.526 477.056 112.334 477.548 111.938C478.04 111.542 478.286 110.954 478.286 110.174C478.286 109.418 478.046 108.86 477.566 108.5C477.086 108.128 476.36 107.93 475.388 107.906L472.76 107.888V112.478L475.388 112.514ZM484.995 108.842H482.709V113.198H481.809V103.802H482.709V108.068H484.995L488.541 103.802H489.531L485.715 108.356L489.819 113.198H488.739L484.995 108.842ZM495.45 113.27C494.562 113.27 493.758 113.066 493.038 112.658C492.33 112.25 491.772 111.686 491.364 110.966C490.956 110.234 490.752 109.412 490.752 108.5C490.752 107.588 490.956 106.772 491.364 106.052C491.772 105.32 492.33 104.75 493.038 104.342C493.758 103.934 494.562 103.73 495.45 103.73C496.338 103.73 497.136 103.934 497.844 104.342C498.564 104.75 499.128 105.32 499.536 106.052C499.944 106.772 500.148 107.588 500.148 108.5C500.148 109.412 499.944 110.234 499.536 110.966C499.128 111.686 498.564 112.25 497.844 112.658C497.136 113.066 496.338 113.27 495.45 113.27ZM495.45 112.46C496.17 112.46 496.812 112.292 497.376 111.956C497.952 111.62 498.402 111.152 498.726 110.552C499.062 109.952 499.23 109.268 499.23 108.5C499.23 107.732 499.062 107.048 498.726 106.448C498.402 105.848 497.952 105.38 497.376 105.044C496.812 104.708 496.17 104.54 495.45 104.54C494.73 104.54 494.082 104.708 493.506 105.044C492.942 105.38 492.492 105.848 492.156 106.448C491.832 107.048 491.67 107.732 491.67 108.5C491.67 109.268 491.832 109.952 492.156 110.552C492.492 111.152 492.942 111.62 493.506 111.956C494.082 112.292 494.73 112.46 495.45 112.46ZM511.5 113.27C510.588 113.27 509.772 113.066 509.052 112.658C508.332 112.25 507.768 111.686 507.36 110.966C506.952 110.234 506.748 109.412 506.748 108.5C506.748 107.576 506.952 106.754 507.36 106.034C507.768 105.302 508.332 104.738 509.052 104.342C509.772 103.934 510.588 103.73 511.5 103.73C512.256 103.73 512.94 103.88 513.552 104.18C514.176 104.468 514.68 104.894 515.064 105.458L514.398 105.944C514.062 105.476 513.642 105.128 513.138 104.9C512.646 104.66 512.1 104.54 511.5 104.54C510.768 104.54 510.108 104.708 509.52 105.044C508.944 105.368 508.488 105.83 508.152 106.43C507.828 107.03 507.666 107.72 507.666 108.5C507.666 109.28 507.828 109.97 508.152 110.57C508.488 111.17 508.944 111.638 509.52 111.974C510.108 112.298 510.768 112.46 511.5 112.46C512.1 112.46 512.646 112.346 513.138 112.118C513.642 111.878 514.062 111.524 514.398 111.056L515.064 111.542C514.68 112.106 514.176 112.538 513.552 112.838C512.94 113.126 512.256 113.27 511.5 113.27ZM524.679 103.802V113.198H523.779V104.612H518.883L518.757 107.114C518.685 108.41 518.577 109.496 518.433 110.372C518.289 111.248 518.043 111.956 517.695 112.496C517.347 113.036 516.867 113.306 516.255 113.306C516.075 113.306 515.817 113.264 515.481 113.18L515.571 112.406C515.763 112.454 515.907 112.478 516.003 112.478C516.507 112.478 516.891 112.232 517.155 111.74C517.419 111.248 517.599 110.636 517.695 109.904C517.791 109.172 517.869 108.218 517.929 107.042L518.091 103.802H524.679ZM532.311 113.27C531.423 113.27 530.619 113.066 529.899 112.658C529.191 112.25 528.633 111.686 528.225 110.966C527.817 110.234 527.613 109.412 527.613 108.5C527.613 107.588 527.817 106.772 528.225 106.052C528.633 105.32 529.191 104.75 529.899 104.342C530.619 103.934 531.423 103.73 532.311 103.73C533.199 103.73 533.997 103.934 534.705 104.342C535.425 104.75 535.989 105.32 536.397 106.052C536.805 106.772 537.009 107.588 537.009 108.5C537.009 109.412 536.805 110.234 536.397 110.966C535.989 111.686 535.425 112.25 534.705 112.658C533.997 113.066 533.199 113.27 532.311 113.27ZM532.311 112.46C533.031 112.46 533.673 112.292 534.237 111.956C534.813 111.62 535.263 111.152 535.587 110.552C535.923 109.952 536.091 109.268 536.091 108.5C536.091 107.732 535.923 107.048 535.587 106.448C535.263 105.848 534.813 105.38 534.237 105.044C533.673 104.708 533.031 104.54 532.311 104.54C531.591 104.54 530.943 104.708 530.367 105.044C529.803 105.38 529.353 105.848 529.017 106.448C528.693 107.048 528.531 107.732 528.531 108.5C528.531 109.268 528.693 109.952 529.017 110.552C529.353 111.152 529.803 111.62 530.367 111.956C530.943 112.292 531.591 112.46 532.311 112.46ZM545.502 108.356C546.882 108.596 547.572 109.37 547.572 110.678C547.572 111.494 547.272 112.118 546.672 112.55C546.084 112.982 545.196 113.198 544.008 113.198H539.94V103.802H543.9C544.944 103.802 545.76 104.012 546.348 104.432C546.948 104.84 547.248 105.428 547.248 106.196C547.248 106.748 547.092 107.21 546.78 107.582C546.48 107.942 546.054 108.2 545.502 108.356ZM540.822 108.086H543.846C544.65 108.086 545.268 107.936 545.7 107.636C546.132 107.324 546.348 106.88 546.348 106.304C546.348 105.716 546.132 105.278 545.7 104.99C545.28 104.69 544.662 104.54 543.846 104.54H540.822V108.086ZM543.99 112.46C545.778 112.46 546.672 111.854 546.672 110.642C546.672 110.006 546.468 109.538 546.06 109.238C545.652 108.938 545.01 108.788 544.134 108.788H540.822V112.46H543.99ZM550.624 111.74C550.84 111.74 551.02 111.818 551.164 111.974C551.308 112.118 551.38 112.292 551.38 112.496C551.38 112.616 551.362 112.742 551.326 112.874C551.302 113.006 551.266 113.156 551.218 113.324L550.516 115.772H549.868L550.462 113.234C550.282 113.186 550.138 113.102 550.03 112.982C549.922 112.85 549.868 112.688 549.868 112.496C549.868 112.28 549.94 112.1 550.084 111.956C550.228 111.812 550.408 111.74 550.624 111.74ZM5.13 140.842H2.844V145.198H1.944V135.802H2.844V140.068H5.13L8.676 135.802H9.666L5.85 140.356L9.954 145.198H8.874L5.13 140.842ZM15.5845 145.27C14.6965 145.27 13.8925 145.066 13.1725 144.658C12.4645 144.25 11.9065 143.686 11.4985 142.966C11.0905 142.234 10.8865 141.412 10.8865 140.5C10.8865 139.588 11.0905 138.772 11.4985 138.052C11.9065 137.32 12.4645 136.75 13.1725 136.342C13.8925 135.934 14.6965 135.73 15.5845 135.73C16.4725 135.73 17.2705 135.934 17.9785 136.342C18.6985 136.75 19.2625 137.32 19.6705 138.052C20.0785 138.772 20.2825 139.588 20.2825 140.5C20.2825 141.412 20.0785 142.234 19.6705 142.966C19.2625 143.686 18.6985 144.25 17.9785 144.658C17.2705 145.066 16.4725 145.27 15.5845 145.27ZM15.5845 144.46C16.3045 144.46 16.9465 144.292 17.5105 143.956C18.0865 143.62 18.5365 143.152 18.8605 142.552C19.1965 141.952 19.3645 141.268 19.3645 140.5C19.3645 139.732 19.1965 139.048 18.8605 138.448C18.5365 137.848 18.0865 137.38 17.5105 137.044C16.9465 136.708 16.3045 136.54 15.5845 136.54C14.8645 136.54 14.2165 136.708 13.6405 137.044C13.0765 137.38 12.6265 137.848 12.2905 138.448C11.9665 139.048 11.8045 139.732 11.8045 140.5C11.8045 141.268 11.9665 141.952 12.2905 142.552C12.6265 143.152 13.0765 143.62 13.6405 143.956C14.2165 144.292 14.8645 144.46 15.5845 144.46ZM29.144 136.612H25.472V145.198H24.572V136.612H20.9V135.802H29.144V136.612ZM34.3755 145.27C33.4875 145.27 32.6835 145.066 31.9635 144.658C31.2555 144.25 30.6975 143.686 30.2895 142.966C29.8815 142.234 29.6775 141.412 29.6775 140.5C29.6775 139.588 29.8815 138.772 30.2895 138.052C30.6975 137.32 31.2555 136.75 31.9635 136.342C32.6835 135.934 33.4875 135.73 34.3755 135.73C35.2635 135.73 36.0615 135.934 36.7695 136.342C37.4895 136.75 38.0535 137.32 38.4615 138.052C38.8695 138.772 39.0735 139.588 39.0735 140.5C39.0735 141.412 38.8695 142.234 38.4615 142.966C38.0535 143.686 37.4895 144.25 36.7695 144.658C36.0615 145.066 35.2635 145.27 34.3755 145.27ZM34.3755 144.46C35.0955 144.46 35.7375 144.292 36.3015 143.956C36.8775 143.62 37.3275 143.152 37.6515 142.552C37.9875 141.952 38.1555 141.268 38.1555 140.5C38.1555 139.732 37.9875 139.048 37.6515 138.448C37.3275 137.848 36.8775 137.38 36.3015 137.044C35.7375 136.708 35.0955 136.54 34.3755 136.54C33.6555 136.54 33.0075 136.708 32.4315 137.044C31.8675 137.38 31.4175 137.848 31.0815 138.448C30.7575 139.048 30.5955 139.732 30.5955 140.5C30.5955 141.268 30.7575 141.952 31.0815 142.552C31.4175 143.152 31.8675 143.62 32.4315 143.956C33.0075 144.292 33.6555 144.46 34.3755 144.46ZM46.7385 135.73C47.6145 135.73 48.4065 135.934 49.1145 136.342C49.8225 136.75 50.3745 137.314 50.7705 138.034C51.1785 138.754 51.3825 139.576 51.3825 140.5C51.3825 141.424 51.1785 142.252 50.7705 142.984C50.3745 143.704 49.8225 144.268 49.1145 144.676C48.4065 145.072 47.6145 145.27 46.7385 145.27C45.9105 145.27 45.1605 145.078 44.4885 144.694C43.8165 144.298 43.2945 143.752 42.9225 143.056V148.69H42.0225V135.802H42.8865V138.016C43.2585 137.296 43.7805 136.738 44.4525 136.342C45.1365 135.934 45.8985 135.73 46.7385 135.73ZM46.6845 144.46C47.4045 144.46 48.0525 144.292 48.6285 143.956C49.2045 143.62 49.6545 143.152 49.9785 142.552C50.3145 141.952 50.4825 141.268 50.4825 140.5C50.4825 139.732 50.3145 139.048 49.9785 138.448C49.6545 137.848 49.2045 137.38 48.6285 137.044C48.0525 136.708 47.4045 136.54 46.6845 136.54C45.9645 136.54 45.3165 136.708 44.7405 137.044C44.1765 137.38 43.7265 137.848 43.3905 138.448C43.0665 139.048 42.9045 139.732 42.9045 140.5C42.9045 141.268 43.0665 141.952 43.3905 142.552C43.7265 143.152 44.1765 143.62 44.7405 143.956C45.3165 144.292 45.9645 144.46 46.6845 144.46ZM58.0172 139.222C59.1812 139.234 60.0692 139.492 60.6812 139.996C61.2932 140.488 61.5992 141.214 61.5992 142.174C61.5992 143.17 61.2752 143.932 60.6272 144.46C59.9792 144.988 59.0432 145.246 57.8192 145.234L54.3092 145.198V135.802H55.2092V139.186L58.0172 139.222ZM63.3272 135.802H64.2272V145.198H63.3272V135.802ZM57.7832 144.514C58.7432 144.526 59.4692 144.334 59.9612 143.938C60.4532 143.542 60.6992 142.954 60.6992 142.174C60.6992 141.418 60.4592 140.86 59.9792 140.5C59.4992 140.128 58.7672 139.93 57.7832 139.906L55.2092 139.888V144.478L57.7832 144.514ZM76.1005 140.716H68.0185C68.0425 141.448 68.2285 142.102 68.5765 142.678C68.9245 143.242 69.3925 143.68 69.9805 143.992C70.5805 144.304 71.2525 144.46 71.9965 144.46C72.6085 144.46 73.1725 144.352 73.6885 144.136C74.2165 143.908 74.6545 143.578 75.0025 143.146L75.5245 143.74C75.1165 144.232 74.6005 144.61 73.9765 144.874C73.3645 145.138 72.6985 145.27 71.9785 145.27C71.0425 145.27 70.2085 145.066 69.4765 144.658C68.7445 144.25 68.1685 143.686 67.7485 142.966C67.3405 142.246 67.1365 141.424 67.1365 140.5C67.1365 139.588 67.3285 138.772 67.7125 138.052C68.1085 137.32 68.6485 136.75 69.3325 136.342C70.0165 135.934 70.7845 135.73 71.6365 135.73C72.4885 135.73 73.2505 135.934 73.9225 136.342C74.6065 136.738 75.1405 137.296 75.5245 138.016C75.9205 138.736 76.1185 139.552 76.1185 140.464L76.1005 140.716ZM71.6365 136.522C70.9765 136.522 70.3825 136.672 69.8545 136.972C69.3265 137.26 68.9005 137.674 68.5765 138.214C68.2645 138.742 68.0845 139.342 68.0365 140.014H75.2365C75.2005 139.342 75.0205 138.742 74.6965 138.214C74.3725 137.686 73.9465 137.272 73.4185 136.972C72.8905 136.672 72.2965 136.522 71.6365 136.522ZM89.2443 140.356C90.6243 140.596 91.3143 141.37 91.3143 142.678C91.3143 143.494 91.0143 144.118 90.4143 144.55C89.8263 144.982 88.9383 145.198 87.7503 145.198H83.6823V135.802H87.6423C88.6863 135.802 89.5023 136.012 90.0903 136.432C90.6903 136.84 90.9903 137.428 90.9903 138.196C90.9903 138.748 90.8343 139.21 90.5223 139.582C90.2223 139.942 89.7963 140.2 89.2443 140.356ZM84.5643 140.086H87.5883C88.3923 140.086 89.0103 139.936 89.4423 139.636C89.8743 139.324 90.0903 138.88 90.0903 138.304C90.0903 137.716 89.8743 137.278 89.4423 136.99C89.0223 136.69 88.4043 136.54 87.5883 136.54H84.5643V140.086ZM87.7323 144.46C89.5203 144.46 90.4143 143.854 90.4143 142.642C90.4143 142.006 90.2103 141.538 89.8023 141.238C89.3943 140.938 88.7523 140.788 87.8763 140.788H84.5643V144.46H87.7323ZM97.6244 135.73C98.7884 135.73 99.6824 136.03 100.306 136.63C100.93 137.218 101.242 138.088 101.242 139.24V145.198H100.378V143.524C100.078 144.076 99.6404 144.508 99.0644 144.82C98.4884 145.12 97.7984 145.27 96.9944 145.27C95.9504 145.27 95.1224 145.024 94.5104 144.532C93.9104 144.04 93.6104 143.392 93.6104 142.588C93.6104 141.808 93.8864 141.178 94.4384 140.698C95.0024 140.206 95.8964 139.96 97.1204 139.96H100.342V139.204C100.342 138.328 100.102 137.662 99.6224 137.206C99.1544 136.75 98.4644 136.522 97.5524 136.522C96.9284 136.522 96.3284 136.63 95.7524 136.846C95.1884 137.062 94.7084 137.35 94.3124 137.71L93.8624 137.062C94.3304 136.642 94.8944 136.318 95.5544 136.09C96.2144 135.85 96.9044 135.73 97.6244 135.73ZM97.1204 144.532C97.9004 144.532 98.5604 144.352 99.1004 143.992C99.6524 143.632 100.066 143.11 100.342 142.426V140.662H97.1384C96.2144 140.662 95.5424 140.83 95.1224 141.166C94.7144 141.502 94.5104 141.964 94.5104 142.552C94.5104 143.164 94.7384 143.65 95.1944 144.01C95.6504 144.358 96.2924 144.532 97.1204 144.532ZM115.123 135.802V145.198H114.295V137.242L110.209 143.992H109.795L105.727 137.26V145.198H104.899V135.802H105.781L110.029 142.912L114.295 135.802H115.123ZM123.637 135.802H124.537V140.086H130.909V135.802H131.809V145.198H130.909V140.878H124.537V145.198H123.637V135.802ZM143.706 140.716H135.624C135.648 141.448 135.834 142.102 136.182 142.678C136.53 143.242 136.998 143.68 137.586 143.992C138.186 144.304 138.858 144.46 139.602 144.46C140.214 144.46 140.778 144.352 141.294 144.136C141.822 143.908 142.26 143.578 142.608 143.146L143.13 143.74C142.722 144.232 142.206 144.61 141.582 144.874C140.97 145.138 140.304 145.27 139.584 145.27C138.648 145.27 137.814 145.066 137.082 144.658C136.35 144.25 135.774 143.686 135.354 142.966C134.946 142.246 134.742 141.424 134.742 140.5C134.742 139.588 134.934 138.772 135.318 138.052C135.714 137.32 136.254 136.75 136.938 136.342C137.622 135.934 138.39 135.73 139.242 135.73C140.094 135.73 140.856 135.934 141.528 136.342C142.212 136.738 142.746 137.296 143.13 138.016C143.526 138.736 143.724 139.552 143.724 140.464L143.706 140.716ZM139.242 136.522C138.582 136.522 137.988 136.672 137.46 136.972C136.932 137.26 136.506 137.674 136.182 138.214C135.87 138.742 135.69 139.342 135.642 140.014H142.842C142.806 139.342 142.626 138.742 142.302 138.214C141.978 137.686 141.552 137.272 141.024 136.972C140.496 136.672 139.902 136.522 139.242 136.522ZM150.409 145.27C149.521 145.27 148.717 145.066 147.997 144.658C147.289 144.25 146.731 143.686 146.323 142.966C145.915 142.234 145.711 141.412 145.711 140.5C145.711 139.588 145.915 138.772 146.323 138.052C146.731 137.32 147.289 136.75 147.997 136.342C148.717 135.934 149.521 135.73 150.409 135.73C151.297 135.73 152.095 135.934 152.803 136.342C153.523 136.75 154.087 137.32 154.495 138.052C154.903 138.772 155.107 139.588 155.107 140.5C155.107 141.412 154.903 142.234 154.495 142.966C154.087 143.686 153.523 144.25 152.803 144.658C152.095 145.066 151.297 145.27 150.409 145.27ZM150.409 144.46C151.129 144.46 151.771 144.292 152.335 143.956C152.911 143.62 153.361 143.152 153.685 142.552C154.021 141.952 154.189 141.268 154.189 140.5C154.189 139.732 154.021 139.048 153.685 138.448C153.361 137.848 152.911 137.38 152.335 137.044C151.771 136.708 151.129 136.54 150.409 136.54C149.689 136.54 149.041 136.708 148.465 137.044C147.901 137.38 147.451 137.848 147.115 138.448C146.791 139.048 146.629 139.732 146.629 140.5C146.629 141.268 146.791 141.952 147.115 142.552C147.451 143.152 147.901 143.62 148.465 143.956C149.041 144.292 149.689 144.46 150.409 144.46ZM162.394 135.946C163.27 135.946 164.044 136.144 164.716 136.54C165.4 136.924 165.934 137.464 166.318 138.16C166.702 138.856 166.894 139.66 166.894 140.572C166.894 141.484 166.696 142.3 166.3 143.02C165.916 143.728 165.37 144.286 164.662 144.694C163.966 145.09 163.168 145.288 162.268 145.288C161.236 145.288 160.354 145.036 159.622 144.532C158.902 144.028 158.35 143.314 157.966 142.39C157.594 141.466 157.408 140.386 157.408 139.15C157.408 137.746 157.576 136.582 157.912 135.658C158.26 134.734 158.776 134.008 159.46 133.48C160.156 132.94 161.044 132.538 162.124 132.274L166.282 131.266L166.426 132.112L162.466 133.048C161.494 133.276 160.702 133.612 160.09 134.056C159.49 134.488 159.04 135.082 158.74 135.838C158.44 136.594 158.284 137.56 158.272 138.736C158.584 137.872 159.106 137.194 159.838 136.702C160.57 136.198 161.422 135.946 162.394 135.946ZM162.286 144.514C162.994 144.514 163.63 144.346 164.194 144.01C164.758 143.674 165.196 143.212 165.508 142.624C165.82 142.024 165.976 141.346 165.976 140.59C165.976 139.834 165.82 139.168 165.508 138.592C165.196 138.004 164.758 137.554 164.194 137.242C163.642 136.918 163.006 136.756 162.286 136.756C161.566 136.756 160.924 136.918 160.36 137.242C159.796 137.554 159.358 138.004 159.046 138.592C158.734 139.168 158.578 139.834 158.578 140.59C158.578 141.346 158.734 142.024 159.046 142.624C159.358 143.212 159.796 143.674 160.36 144.01C160.924 144.346 161.566 144.514 162.286 144.514ZM175.402 145.198L172.18 141.004L168.958 145.198H167.932L171.658 140.356L168.13 135.802H169.156L172.18 139.708L175.204 135.802H176.212L172.684 140.356L176.464 145.198H175.402ZM182.155 145.27C181.267 145.27 180.463 145.066 179.743 144.658C179.035 144.25 178.477 143.686 178.069 142.966C177.661 142.234 177.457 141.412 177.457 140.5C177.457 139.588 177.661 138.772 178.069 138.052C178.477 137.32 179.035 136.75 179.743 136.342C180.463 135.934 181.267 135.73 182.155 135.73C183.043 135.73 183.841 135.934 184.549 136.342C185.269 136.75 185.833 137.32 186.241 138.052C186.649 138.772 186.853 139.588 186.853 140.5C186.853 141.412 186.649 142.234 186.241 142.966C185.833 143.686 185.269 144.25 184.549 144.658C183.841 145.066 183.043 145.27 182.155 145.27ZM182.155 144.46C182.875 144.46 183.517 144.292 184.081 143.956C184.657 143.62 185.107 143.152 185.431 142.552C185.767 141.952 185.935 141.268 185.935 140.5C185.935 139.732 185.767 139.048 185.431 138.448C185.107 137.848 184.657 137.38 184.081 137.044C183.517 136.708 182.875 136.54 182.155 136.54C181.435 136.54 180.787 136.708 180.211 137.044C179.647 137.38 179.197 137.848 178.861 138.448C178.537 139.048 178.375 139.732 178.375 140.5C178.375 141.268 178.537 141.952 178.861 142.552C179.197 143.152 179.647 143.62 180.211 143.956C180.787 144.292 181.435 144.46 182.155 144.46ZM198.587 144.406V147.538H197.741V145.198H188.849V147.538H187.985V144.406H188.543C189.179 144.37 189.611 143.878 189.839 142.93C190.079 141.97 190.247 140.626 190.343 138.898L190.469 135.802H197.075V144.406H198.587ZM191.171 138.952C191.111 140.38 190.991 141.568 190.811 142.516C190.631 143.464 190.307 144.094 189.839 144.406H196.175V136.612H191.279L191.171 138.952ZM201.245 135.802H202.145V143.812L208.841 135.802H209.633V145.198H208.733V137.188L202.037 145.198H201.245V135.802ZM223.738 135.802V145.198H222.91V137.242L218.824 143.992H218.41L214.342 137.26V145.198H213.514V135.802H214.396L218.644 142.912L222.91 135.802H223.738ZM231.374 145.27C230.486 145.27 229.682 145.066 228.962 144.658C228.254 144.25 227.696 143.686 227.288 142.966C226.88 142.234 226.676 141.412 226.676 140.5C226.676 139.588 226.88 138.772 227.288 138.052C227.696 137.32 228.254 136.75 228.962 136.342C229.682 135.934 230.486 135.73 231.374 135.73C232.262 135.73 233.06 135.934 233.768 136.342C234.488 136.75 235.052 137.32 235.46 138.052C235.868 138.772 236.072 139.588 236.072 140.5C236.072 141.412 235.868 142.234 235.46 142.966C235.052 143.686 234.488 144.25 233.768 144.658C233.06 145.066 232.262 145.27 231.374 145.27ZM231.374 144.46C232.094 144.46 232.736 144.292 233.3 143.956C233.876 143.62 234.326 143.152 234.65 142.552C234.986 141.952 235.154 141.268 235.154 140.5C235.154 139.732 234.986 139.048 234.65 138.448C234.326 137.848 233.876 137.38 233.3 137.044C232.736 136.708 232.094 136.54 231.374 136.54C230.654 136.54 230.006 136.708 229.43 137.044C228.866 137.38 228.416 137.848 228.08 138.448C227.756 139.048 227.594 139.732 227.594 140.5C227.594 141.268 227.756 141.952 228.08 142.552C228.416 143.152 228.866 143.62 229.43 143.956C230.006 144.292 230.654 144.46 231.374 144.46ZM247.784 140.302C248.48 140.434 249.014 140.698 249.386 141.094C249.77 141.478 249.962 141.952 249.962 142.516C249.962 143.068 249.776 143.554 249.404 143.974C249.044 144.394 248.552 144.718 247.928 144.946C247.304 145.174 246.626 145.288 245.894 145.288C245.222 145.288 244.562 145.186 243.914 144.982C243.278 144.766 242.72 144.46 242.24 144.064L242.6 143.398C243.02 143.758 243.518 144.034 244.094 144.226C244.682 144.418 245.276 144.514 245.876 144.514C246.764 144.514 247.514 144.328 248.126 143.956C248.738 143.572 249.044 143.068 249.044 142.444C249.044 141.892 248.786 141.46 248.27 141.148C247.766 140.824 247.082 140.662 246.218 140.662H244.706V139.978H246.182C246.938 139.978 247.556 139.828 248.036 139.528C248.528 139.228 248.774 138.826 248.774 138.322C248.774 137.734 248.504 137.284 247.964 136.972C247.436 136.648 246.758 136.486 245.93 136.486C244.874 136.486 243.878 136.756 242.942 137.296L242.672 136.576C243.728 135.988 244.85 135.694 246.038 135.694C247.082 135.694 247.952 135.922 248.648 136.378C249.344 136.822 249.692 137.428 249.692 138.196C249.692 138.688 249.518 139.12 249.17 139.492C248.822 139.864 248.36 140.134 247.784 140.302ZM256.214 135.73C257.378 135.73 258.272 136.03 258.896 136.63C259.52 137.218 259.832 138.088 259.832 139.24V145.198H258.968V143.524C258.668 144.076 258.23 144.508 257.654 144.82C257.078 145.12 256.388 145.27 255.584 145.27C254.54 145.27 253.712 145.024 253.1 144.532C252.5 144.04 252.2 143.392 252.2 142.588C252.2 141.808 252.476 141.178 253.028 140.698C253.592 140.206 254.486 139.96 255.71 139.96H258.932V139.204C258.932 138.328 258.692 137.662 258.212 137.206C257.744 136.75 257.054 136.522 256.142 136.522C255.518 136.522 254.918 136.63 254.342 136.846C253.778 137.062 253.298 137.35 252.902 137.71L252.452 137.062C252.92 136.642 253.484 136.318 254.144 136.09C254.804 135.85 255.494 135.73 256.214 135.73ZM255.71 144.532C256.49 144.532 257.15 144.352 257.69 143.992C258.242 143.632 258.656 143.11 258.932 142.426V140.662H255.728C254.804 140.662 254.132 140.83 253.712 141.166C253.304 141.502 253.1 141.964 253.1 142.552C253.1 143.164 253.328 143.65 253.784 144.01C254.24 144.358 254.882 144.532 255.71 144.532ZM271.697 135.802V145.198H270.797V136.612H264.389V145.198H263.489V135.802H271.697ZM279.327 145.27C278.439 145.27 277.635 145.066 276.915 144.658C276.207 144.25 275.649 143.686 275.241 142.966C274.833 142.234 274.629 141.412 274.629 140.5C274.629 139.588 274.833 138.772 275.241 138.052C275.649 137.32 276.207 136.75 276.915 136.342C277.635 135.934 278.439 135.73 279.327 135.73C280.215 135.73 281.013 135.934 281.721 136.342C282.441 136.75 283.005 137.32 283.413 138.052C283.821 138.772 284.025 139.588 284.025 140.5C284.025 141.412 283.821 142.234 283.413 142.966C283.005 143.686 282.441 144.25 281.721 144.658C281.013 145.066 280.215 145.27 279.327 145.27ZM279.327 144.46C280.047 144.46 280.689 144.292 281.253 143.956C281.829 143.62 282.279 143.152 282.603 142.552C282.939 141.952 283.107 141.268 283.107 140.5C283.107 139.732 282.939 139.048 282.603 138.448C282.279 137.848 281.829 137.38 281.253 137.044C280.689 136.708 280.047 136.54 279.327 136.54C278.607 136.54 277.959 136.708 277.383 137.044C276.819 137.38 276.369 137.848 276.033 138.448C275.709 139.048 275.547 139.732 275.547 140.5C275.547 141.268 275.709 141.952 276.033 142.552C276.369 143.152 276.819 143.62 277.383 143.956C277.959 144.292 278.607 144.46 279.327 144.46ZM297.18 135.802V145.198H296.352V137.242L292.266 143.992H291.852L287.784 137.26V145.198H286.956V135.802H287.838L292.086 142.912L296.352 135.802H297.18ZM301.071 135.802H301.971V140.086H308.343V135.802H309.243V145.198H308.343V140.878H301.971V145.198H301.071V135.802ZM313.13 135.802H314.03V143.812L320.726 135.802H321.518V145.198H320.618V137.188L313.922 145.198H313.13V135.802ZM331.681 136.612H328.009V145.198H327.109V136.612H323.437V135.802H331.681V136.612ZM337.37 139.222C338.534 139.234 339.422 139.492 340.034 139.996C340.646 140.488 340.952 141.214 340.952 142.174C340.952 143.17 340.628 143.932 339.98 144.46C339.332 144.988 338.39 145.246 337.154 145.234L333.608 145.198V135.802H334.508V139.186L337.37 139.222ZM337.136 144.514C338.084 144.526 338.804 144.334 339.296 143.938C339.788 143.542 340.034 142.954 340.034 142.174C340.034 141.418 339.794 140.86 339.314 140.5C338.834 140.128 338.108 139.93 337.136 139.906L334.508 139.888V144.478L337.136 144.514ZM343.255 145.27C343.051 145.27 342.871 145.198 342.715 145.054C342.571 144.898 342.499 144.712 342.499 144.496C342.499 144.28 342.571 144.1 342.715 143.956C342.871 143.812 343.051 143.74 343.255 143.74C343.459 143.74 343.633 143.812 343.777 143.956C343.933 144.1 344.011 144.28 344.011 144.496C344.011 144.712 343.933 144.898 343.777 145.054C343.633 145.198 343.459 145.27 343.255 145.27Z" fill="white"/>
<rect y="187.198" width="240.441" height="48.6031" rx="24.3015" fill="#9C0332"/>
<path d="M78.1726 204.9H79.4866V215.34L87.5506 204.9H88.7566V217.5H87.4426V207.078L79.3786 217.5H78.1726V204.9ZM99.3985 209.166H93.9805V217.5H92.7025V208.032H99.3985V209.166ZM106.123 207.96C107.011 207.96 107.815 208.164 108.535 208.572C109.255 208.968 109.819 209.532 110.227 210.264C110.635 210.996 110.839 211.83 110.839 212.766C110.839 213.714 110.635 214.554 110.227 215.286C109.819 216.018 109.255 216.588 108.535 216.996C107.827 217.392 107.023 217.59 106.123 217.59C105.355 217.59 104.659 217.434 104.035 217.122C103.423 216.798 102.919 216.33 102.523 215.718V220.992H101.245V208.032H102.469V209.904C102.853 209.28 103.357 208.8 103.981 208.464C104.617 208.128 105.331 207.96 106.123 207.96ZM106.033 216.456C106.693 216.456 107.293 216.306 107.833 216.006C108.373 215.694 108.793 215.256 109.093 214.692C109.405 214.128 109.561 213.486 109.561 212.766C109.561 212.046 109.405 211.41 109.093 210.858C108.793 210.294 108.373 209.856 107.833 209.544C107.293 209.232 106.693 209.076 106.033 209.076C105.361 209.076 104.755 209.232 104.215 209.544C103.687 209.856 103.267 210.294 102.955 210.858C102.655 211.41 102.505 212.046 102.505 212.766C102.505 213.486 102.655 214.128 102.955 214.692C103.267 215.256 103.687 215.694 104.215 216.006C104.755 216.306 105.361 216.456 106.033 216.456ZM116.791 207.96C118.027 207.96 118.975 208.272 119.635 208.896C120.295 209.508 120.625 210.42 120.625 211.632V217.5H119.401V216.024C119.113 216.516 118.687 216.9 118.123 217.176C117.571 217.452 116.911 217.59 116.143 217.59C115.087 217.59 114.247 217.338 113.623 216.834C112.999 216.33 112.687 215.664 112.687 214.836C112.687 214.032 112.975 213.384 113.551 212.892C114.139 212.4 115.069 212.154 116.341 212.154H119.347V211.578C119.347 210.762 119.119 210.144 118.663 209.724C118.207 209.292 117.541 209.076 116.665 209.076C116.065 209.076 115.489 209.178 114.937 209.382C114.385 209.574 113.911 209.844 113.515 210.192L112.939 209.238C113.419 208.83 113.995 208.518 114.667 208.302C115.339 208.074 116.047 207.96 116.791 207.96ZM116.341 216.582C117.061 216.582 117.679 216.42 118.195 216.096C118.711 215.76 119.095 215.28 119.347 214.656V213.108H116.377C114.757 213.108 113.947 213.672 113.947 214.8C113.947 215.352 114.157 215.79 114.577 216.114C114.997 216.426 115.585 216.582 116.341 216.582ZM130.687 209.166H127.105V217.5H125.827V209.166H122.245V208.032H130.687V209.166ZM136.603 211.38C137.791 211.392 138.691 211.656 139.303 212.172C139.927 212.688 140.239 213.432 140.239 214.404C140.239 215.412 139.903 216.186 139.231 216.726C138.571 217.266 137.611 217.53 136.351 217.518L132.535 217.5V208.032H133.813V211.344L136.603 211.38ZM136.279 216.546C137.155 216.558 137.815 216.384 138.259 216.024C138.715 215.652 138.943 215.112 138.943 214.404C138.943 213.708 138.721 213.192 138.277 212.856C137.833 212.52 137.167 212.346 136.279 212.334L133.813 212.298V216.51L136.279 216.546Z" fill="white"/>
</svg>
