<svg width="344" height="219" viewBox="0 0 344 219" fill="none" xmlns="http://www.w3.org/2000/svg">
<path d="M55.0596 19.9301C56.3609 20.3781 57.3742 21.0821 58.0996 22.0421C58.8462 22.9808 59.2196 24.0794 59.2196 25.3381C59.2196 26.7034 58.7716 27.8874 57.8756 28.8901C56.9796 29.8928 55.7636 30.6608 54.2276 31.1941C52.7129 31.7274 51.0489 31.9941 49.2356 31.9941C47.6996 31.9941 46.1636 31.8021 44.6276 31.4181C43.1129 31.0341 41.6729 30.4474 40.3076 29.6581L41.9076 25.9461C42.8889 26.5434 43.9662 27.0021 45.1396 27.3221C46.3342 27.6208 47.4969 27.7701 48.6276 27.7701C50.1636 27.7701 51.4329 27.4928 52.4356 26.9381C53.4596 26.3834 53.9716 25.6048 53.9716 24.6021C53.9716 23.7701 53.6196 23.1408 52.9156 22.7141C52.2329 22.2874 51.2942 22.0741 50.0996 22.0741H44.6276V18.1701H49.7156C50.7609 18.1701 51.5716 17.9568 52.1476 17.5301C52.7449 17.1034 53.0436 16.5168 53.0436 15.7701C53.0436 14.8954 52.6169 14.2128 51.7636 13.7221C50.9316 13.2314 49.8542 12.9861 48.5316 12.9861C47.5502 12.9861 46.5369 13.1248 45.4916 13.4021C44.4462 13.6581 43.4542 14.0528 42.5156 14.5861L40.9476 10.5541C43.3156 9.33811 45.8756 8.73011 48.6276 8.73011C50.3769 8.73011 51.9876 8.98611 53.4596 9.49811C54.9316 10.0101 56.1049 10.7568 56.9796 11.7381C57.8542 12.7194 58.2916 13.8608 58.2916 15.1621C58.2916 16.2288 58.0036 17.1781 57.4276 18.0101C56.8516 18.8421 56.0622 19.4821 55.0596 19.9301ZM69.6276 14.1381C72.2942 14.1381 74.3422 14.7781 75.7716 16.0581C77.2009 17.3168 77.9156 19.2261 77.9156 21.7861V31.6101H73.2436V29.4661C72.3049 31.0661 70.5556 31.8661 67.9956 31.8661C66.6729 31.8661 65.5209 31.6421 64.5396 31.1941C63.5796 30.7461 62.8436 30.1274 62.3316 29.3381C61.8196 28.5488 61.5636 27.6528 61.5636 26.6501C61.5636 25.0501 62.1609 23.7914 63.3556 22.8741C64.5716 21.9568 66.4382 21.4981 68.9556 21.4981H72.9236C72.9236 20.4101 72.5929 19.5781 71.9316 19.0021C71.2702 18.4048 70.2782 18.1061 68.9556 18.1061C68.0382 18.1061 67.1316 18.2554 66.2356 18.5541C65.3609 18.8314 64.6142 19.2154 63.9956 19.7061L62.2036 16.2181C63.1422 15.5568 64.2622 15.0448 65.5636 14.6821C66.8862 14.3194 68.2409 14.1381 69.6276 14.1381ZM69.2436 28.5061C70.0969 28.5061 70.8542 28.3141 71.5156 27.9301C72.1769 27.5248 72.6462 26.9381 72.9236 26.1701V24.4101H69.4996C67.4516 24.4101 66.4276 25.0821 66.4276 26.4261C66.4276 27.0661 66.6729 27.5781 67.1636 27.9621C67.6756 28.3248 68.3689 28.5061 69.2436 28.5061ZM99.3721 14.3941V31.6101H94.3801V18.4901H87.2121V31.6101H82.2521V14.3941H99.3721ZM112.222 31.8661C110.409 31.8661 108.777 31.4928 107.326 30.7461C105.897 29.9781 104.777 28.9221 103.966 27.5781C103.156 26.2341 102.75 24.7088 102.75 23.0021C102.75 21.2954 103.156 19.7701 103.966 18.4261C104.777 17.0821 105.897 16.0368 107.326 15.2901C108.777 14.5221 110.409 14.1381 112.222 14.1381C114.036 14.1381 115.657 14.5221 117.086 15.2901C118.516 16.0368 119.636 17.0821 120.446 18.4261C121.257 19.7701 121.662 21.2954 121.662 23.0021C121.662 24.7088 121.257 26.2341 120.446 27.5781C119.636 28.9221 118.516 29.9781 117.086 30.7461C115.657 31.4928 114.036 31.8661 112.222 31.8661ZM112.222 27.7701C113.502 27.7701 114.548 27.3434 115.358 26.4901C116.19 25.6154 116.606 24.4528 116.606 23.0021C116.606 21.5514 116.19 20.3994 115.358 19.5461C114.548 18.6714 113.502 18.2341 112.222 18.2341C110.942 18.2341 109.886 18.6714 109.054 19.5461C108.222 20.3994 107.806 21.5514 107.806 23.0021C107.806 24.4528 108.222 25.6154 109.054 26.4901C109.886 27.3434 110.942 27.7701 112.222 27.7701ZM141.896 31.6101V21.3061L136.744 29.9461H134.632L129.608 21.2741V31.6101H125.096V14.3941H130.312L135.816 24.3461L141.672 14.3941H146.344L146.408 31.6101H141.896ZM151.19 14.3941H156.15V21.1141H163.638V14.3941H168.63V31.6101H163.638V25.1781H156.15V31.6101H151.19V14.3941ZM173.408 14.3941H178.368V24.6341L186.752 14.3941H191.328V31.6101H186.368V21.3701L178.016 31.6101H173.408V14.3941ZM213.382 31.8661C211.547 31.8661 209.894 31.4928 208.422 30.7461C206.971 29.9781 205.83 28.9221 204.998 27.5781C204.187 26.2341 203.782 24.7088 203.782 23.0021C203.782 21.2954 204.187 19.7701 204.998 18.4261C205.83 17.0821 206.971 16.0368 208.422 15.2901C209.894 14.5221 211.547 14.1381 213.382 14.1381C215.195 14.1381 216.774 14.5221 218.118 15.2901C219.483 16.0368 220.475 17.1141 221.094 18.5221L217.222 20.6021C216.326 19.0234 215.035 18.2341 213.35 18.2341C212.048 18.2341 210.971 18.6608 210.118 19.5141C209.264 20.3674 208.838 21.5301 208.838 23.0021C208.838 24.4741 209.264 25.6368 210.118 26.4901C210.971 27.3434 212.048 27.7701 213.35 27.7701C215.056 27.7701 216.347 26.9808 217.222 25.4021L221.094 27.5141C220.475 28.8794 219.483 29.9461 218.118 30.7141C216.774 31.4821 215.195 31.8661 213.382 31.8661ZM240.389 14.3941V31.6101H235.397V18.4901H229.957L229.797 21.5301C229.712 23.7914 229.498 25.6688 229.157 27.1621C228.816 28.6554 228.261 29.8288 227.493 30.6821C226.725 31.5354 225.658 31.9621 224.293 31.9621C223.568 31.9621 222.704 31.8341 221.701 31.5781L221.957 27.4821C222.298 27.5248 222.544 27.5461 222.693 27.5461C223.44 27.5461 223.994 27.2794 224.357 26.7461C224.741 26.1914 224.997 25.4981 225.125 24.6661C225.253 23.8128 225.349 22.6928 225.413 21.3061L225.669 14.3941H240.389ZM253.254 31.8661C251.44 31.8661 249.808 31.4928 248.358 30.7461C246.928 29.9781 245.808 28.9221 244.998 27.5781C244.187 26.2341 243.782 24.7088 243.782 23.0021C243.782 21.2954 244.187 19.7701 244.998 18.4261C245.808 17.0821 246.928 16.0368 248.358 15.2901C249.808 14.5221 251.44 14.1381 253.254 14.1381C255.067 14.1381 256.688 14.5221 258.118 15.2901C259.547 16.0368 260.667 17.0821 261.478 18.4261C262.288 19.7701 262.694 21.2954 262.694 23.0021C262.694 24.7088 262.288 26.2341 261.478 27.5781C260.667 28.9221 259.547 29.9781 258.118 30.7461C256.688 31.4928 255.067 31.8661 253.254 31.8661ZM253.254 27.7701C254.534 27.7701 255.579 27.3434 256.39 26.4901C257.222 25.6154 257.638 24.4528 257.638 23.0021C257.638 21.5514 257.222 20.3994 256.39 19.5461C255.579 18.6714 254.534 18.2341 253.254 18.2341C251.974 18.2341 250.918 18.6714 250.086 19.5461C249.254 20.3994 248.838 21.5514 248.838 23.0021C248.838 24.4528 249.254 25.6154 250.086 26.4901C250.918 27.3434 251.974 27.7701 253.254 27.7701ZM279.279 22.6181C281.306 23.3008 282.319 24.6661 282.319 26.7141C282.319 28.2714 281.732 29.4768 280.559 30.3301C279.386 31.1834 277.636 31.6101 275.311 31.6101H266.127V14.3941H274.927C277.082 14.3941 278.767 14.7888 279.983 15.5781C281.199 16.3461 281.807 17.4341 281.807 18.8421C281.807 19.6954 281.583 20.4528 281.135 21.1141C280.708 21.7541 280.09 22.2554 279.279 22.6181ZM270.703 21.4661H274.479C276.228 21.4661 277.103 20.8474 277.103 19.6101C277.103 18.3941 276.228 17.7861 274.479 17.7861H270.703V21.4661ZM274.895 28.2181C276.73 28.2181 277.647 27.5888 277.647 26.3301C277.647 25.6688 277.434 25.1888 277.007 24.8901C276.58 24.5701 275.908 24.4101 274.991 24.4101H270.703V28.2181H274.895ZM292.721 14.1381C295.388 14.1381 297.436 14.7781 298.865 16.0581C300.295 17.3168 301.009 19.2261 301.009 21.7861V31.6101H296.337V29.4661C295.399 31.0661 293.649 31.8661 291.089 31.8661C289.767 31.8661 288.615 31.6421 287.633 31.1941C286.673 30.7461 285.937 30.1274 285.425 29.3381C284.913 28.5488 284.657 27.6528 284.657 26.6501C284.657 25.0501 285.255 23.7914 286.449 22.8741C287.665 21.9568 289.532 21.4981 292.049 21.4981H296.017C296.017 20.4101 295.687 19.5781 295.025 19.0021C294.364 18.4048 293.372 18.1061 292.049 18.1061C291.132 18.1061 290.225 18.2554 289.329 18.5541C288.455 18.8314 287.708 19.2154 287.089 19.7061L285.297 16.2181C286.236 15.5568 287.356 15.0448 288.657 14.6821C289.98 14.3194 291.335 14.1381 292.721 14.1381ZM292.337 28.5061C293.191 28.5061 293.948 28.3141 294.609 27.9301C295.271 27.5248 295.74 26.9381 296.017 26.1701V24.4101H292.593C290.545 24.4101 289.521 25.0821 289.521 26.4261C289.521 27.0661 289.767 27.5781 290.257 27.9621C290.769 28.3248 291.463 28.5061 292.337 28.5061Z" fill="white"/>
<path d="M26.1009 77.8101V87.6101H25.3869V78.4541H18.7509V87.6101H18.0369V77.8101H26.1009ZM33.0607 80.2461C33.742 80.2461 34.358 80.4048 34.9087 80.7221C35.4594 81.0394 35.8887 81.4781 36.1967 82.0381C36.514 82.5981 36.6727 83.2374 36.6727 83.9561C36.6727 84.6748 36.514 85.3188 36.1967 85.8881C35.8887 86.4481 35.4594 86.8868 34.9087 87.2041C34.358 87.5121 33.742 87.6661 33.0607 87.6661C32.4167 87.6661 31.8334 87.5168 31.3107 87.2181C30.788 86.9101 30.382 86.4854 30.0927 85.9441V90.3261H29.3927V80.3021H30.0647V82.0241C30.354 81.4641 30.76 81.0301 31.2827 80.7221C31.8147 80.4048 32.4074 80.2461 33.0607 80.2461ZM33.0187 87.0361C33.5787 87.0361 34.0827 86.9054 34.5307 86.6441C34.9787 86.3828 35.3287 86.0188 35.5807 85.5521C35.842 85.0854 35.9727 84.5534 35.9727 83.9561C35.9727 83.3588 35.842 82.8268 35.5807 82.3601C35.3287 81.8934 34.9787 81.5294 34.5307 81.2681C34.0827 81.0068 33.5787 80.8761 33.0187 80.8761C32.4587 80.8761 31.9547 81.0068 31.5067 81.2681C31.068 81.5294 30.718 81.8934 30.4567 82.3601C30.2047 82.8268 30.0787 83.3588 30.0787 83.9561C30.0787 84.5534 30.2047 85.0854 30.4567 85.5521C30.718 86.0188 31.068 86.3828 31.5067 86.6441C31.9547 86.9054 32.4587 87.0361 33.0187 87.0361ZM38.949 80.3021H39.649V86.5321L44.857 80.3021H45.473V87.6101H44.773V81.3801L39.565 87.6101H38.949V80.3021ZM52.0877 80.3021H52.7877V83.6341H57.7437V80.3021H58.4437V87.6101H57.7437V84.2501H52.7877V87.6101H52.0877V80.3021ZM63.8886 80.2461C64.7939 80.2461 65.4893 80.4794 65.9746 80.9461C66.4599 81.4034 66.7026 82.0801 66.7026 82.9761V87.6101H66.0306V86.3081C65.7973 86.7374 65.4566 87.0734 65.0086 87.3161C64.5606 87.5494 64.0239 87.6661 63.3986 87.6661C62.5866 87.6661 61.9426 87.4748 61.4666 87.0921C60.9999 86.7094 60.7666 86.2054 60.7666 85.5801C60.7666 84.9734 60.9813 84.4834 61.4106 84.1101C61.8493 83.7274 62.5446 83.5361 63.4966 83.5361H66.0026V82.9481C66.0026 82.2668 65.8159 81.7488 65.4426 81.3941C65.0786 81.0394 64.5419 80.8621 63.8326 80.8621C63.3473 80.8621 62.8806 80.9461 62.4326 81.1141C61.9939 81.2821 61.6206 81.5061 61.3126 81.7861L60.9626 81.2821C61.3266 80.9554 61.7653 80.7034 62.2786 80.5261C62.7919 80.3394 63.3286 80.2461 63.8886 80.2461ZM63.4966 87.0921C64.1033 87.0921 64.6166 86.9521 65.0366 86.6721C65.4659 86.3921 65.7879 85.9861 66.0026 85.4541V84.0821H63.5106C62.7919 84.0821 62.2693 84.2128 61.9426 84.4741C61.6253 84.7354 61.4666 85.0948 61.4666 85.5521C61.4666 86.0281 61.6439 86.4061 61.9986 86.6861C62.3533 86.9568 62.8526 87.0921 63.4966 87.0921ZM75.7487 84.2221H74.0267V87.6101H73.3267V84.2221H71.6187L69.1827 87.6101H68.3287L71.0587 83.8581L68.5527 80.3021H69.3227L71.6187 83.6201H73.3267V80.3021H74.0267V83.6201H75.7487L78.0447 80.3021H78.8147L76.3087 83.8581L79.0247 87.6101H78.1847L75.7487 84.2221ZM83.1249 80.2461C84.0303 80.2461 84.7256 80.4794 85.2109 80.9461C85.6963 81.4034 85.9389 82.0801 85.9389 82.9761V87.6101H85.2669V86.3081C85.0336 86.7374 84.6929 87.0734 84.2449 87.3161C83.7969 87.5494 83.2603 87.6661 82.6349 87.6661C81.8229 87.6661 81.1789 87.4748 80.7029 87.0921C80.2363 86.7094 80.0029 86.2054 80.0029 85.5801C80.0029 84.9734 80.2176 84.4834 80.6469 84.1101C81.0856 83.7274 81.7809 83.5361 82.7329 83.5361H85.2389V82.9481C85.2389 82.2668 85.0523 81.7488 84.6789 81.3941C84.3149 81.0394 83.7783 80.8621 83.0689 80.8621C82.5836 80.8621 82.1169 80.9461 81.6689 81.1141C81.2303 81.2821 80.8569 81.5061 80.5489 81.7861L80.1989 81.2821C80.5629 80.9554 81.0016 80.7034 81.5149 80.5261C82.0283 80.3394 82.5649 80.2461 83.1249 80.2461ZM82.7329 87.0921C83.3396 87.0921 83.8529 86.9521 84.2729 86.6721C84.7023 86.3921 85.0243 85.9861 85.2389 85.4541V84.0821H82.7469C82.0283 84.0821 81.5056 84.2128 81.1789 84.4741C80.8616 84.7354 80.7029 85.0948 80.7029 85.5521C80.7029 86.0281 80.8803 86.4061 81.2349 86.6861C81.5896 86.9568 82.0889 87.0921 82.7329 87.0921ZM93.669 80.9321H90.813V87.6101H90.113V80.9321H87.257V80.3021H93.669V80.9321ZM95.1678 80.3021H95.8678V86.5321L101.076 80.3021H101.692V87.6101H100.992V81.3801L95.7838 87.6101H95.1678V80.3021ZM104.711 80.3021H105.411V86.5321L110.619 80.3021H111.235V87.6101H110.535V81.3801L105.327 87.6101H104.711V80.3021ZM117.849 80.3021H118.549V83.6341H123.505V80.3021H124.205V87.6101H123.505V84.2501H118.549V87.6101H117.849V80.3021ZM129.65 80.2461C130.556 80.2461 131.251 80.4794 131.736 80.9461C132.222 81.4034 132.464 82.0801 132.464 82.9761V87.6101H131.792V86.3081C131.559 86.7374 131.218 87.0734 130.77 87.3161C130.322 87.5494 129.786 87.6661 129.16 87.6661C128.348 87.6661 127.704 87.4748 127.228 87.0921C126.762 86.7094 126.528 86.2054 126.528 85.5801C126.528 84.9734 126.743 84.4834 127.172 84.1101C127.611 83.7274 128.306 83.5361 129.258 83.5361H131.764V82.9481C131.764 82.2668 131.578 81.7488 131.204 81.3941C130.84 81.0394 130.304 80.8621 129.594 80.8621C129.109 80.8621 128.642 80.9461 128.194 81.1141C127.756 81.2821 127.382 81.5061 127.074 81.7861L126.724 81.2821C127.088 80.9554 127.527 80.7034 128.04 80.5261C128.554 80.3394 129.09 80.2461 129.65 80.2461ZM129.258 87.0921C129.865 87.0921 130.378 86.9521 130.798 86.6721C131.228 86.3921 131.55 85.9861 131.764 85.4541V84.0821H129.272C128.554 84.0821 128.031 84.2128 127.704 84.4741C127.387 84.7354 127.228 85.0948 127.228 85.5521C127.228 86.0281 127.406 86.4061 127.76 86.6861C128.115 86.9568 128.614 87.0921 129.258 87.0921ZM141.382 84.2221H139.604V87.6101H138.904V80.3021H139.604V83.6201H141.382L144.14 80.3021H144.91L141.942 83.8441L145.134 87.6101H144.294L141.382 84.2221ZM146.861 80.3021H147.561V83.6341H152.517V80.3021H153.217V87.6101H152.517V84.2501H147.561V87.6101H146.861V80.3021ZM159.152 87.6661C158.461 87.6661 157.836 87.5074 157.276 87.1901C156.725 86.8728 156.291 86.4341 155.974 85.8741C155.657 85.3048 155.498 84.6654 155.498 83.9561C155.498 83.2468 155.657 82.6121 155.974 82.0521C156.291 81.4828 156.725 81.0394 157.276 80.7221C157.836 80.4048 158.461 80.2461 159.152 80.2461C159.843 80.2461 160.463 80.4048 161.014 80.7221C161.574 81.0394 162.013 81.4828 162.33 82.0521C162.647 82.6121 162.806 83.2468 162.806 83.9561C162.806 84.6654 162.647 85.3048 162.33 85.8741C162.013 86.4341 161.574 86.8728 161.014 87.1901C160.463 87.5074 159.843 87.6661 159.152 87.6661ZM159.152 87.0361C159.712 87.0361 160.211 86.9054 160.65 86.6441C161.098 86.3828 161.448 86.0188 161.7 85.5521C161.961 85.0854 162.092 84.5534 162.092 83.9561C162.092 83.3588 161.961 82.8268 161.7 82.3601C161.448 81.8934 161.098 81.5294 160.65 81.2681C160.211 81.0068 159.712 80.8761 159.152 80.8761C158.592 80.8761 158.088 81.0068 157.64 81.2681C157.201 81.5294 156.851 81.8934 156.59 82.3601C156.338 82.8268 156.212 83.3588 156.212 83.9561C156.212 84.5534 156.338 85.0854 156.59 85.5521C156.851 86.0188 157.201 86.3828 157.64 86.6441C158.088 86.9054 158.592 87.0361 159.152 87.0361ZM171.47 80.3021V87.6101H170.77V80.9321H165.786V87.6101H165.086V80.3021H171.47ZM176.97 84.2221H175.192V87.6101H174.492V80.3021H175.192V83.6201H176.97L179.728 80.3021H180.498L177.53 83.8441L180.722 87.6101H179.882L176.97 84.2221ZM187.975 80.3021L184.223 88.6041C183.943 89.2481 183.617 89.7054 183.243 89.9761C182.879 90.2468 182.445 90.3821 181.941 90.3821C181.605 90.3821 181.288 90.3261 180.989 90.2141C180.7 90.1021 180.453 89.9388 180.247 89.7241L180.597 89.1921C180.971 89.5748 181.423 89.7661 181.955 89.7661C182.31 89.7661 182.613 89.6681 182.865 89.4721C183.117 89.2761 183.351 88.9401 183.565 88.4641L183.957 87.5821L180.667 80.3021H181.409L184.335 86.8401L187.261 80.3021H187.975ZM193.263 80.3021H193.963V86.5321L199.171 80.3021H199.787V87.6101H199.087V81.3801L193.879 87.6101H193.263V80.3021ZM207.804 80.9321H203.506V87.6101H202.806V80.3021H207.804V80.9321ZM212.983 80.2461C213.664 80.2461 214.28 80.4048 214.831 80.7221C215.381 81.0394 215.811 81.4781 216.119 82.0381C216.436 82.5981 216.595 83.2374 216.595 83.9561C216.595 84.6748 216.436 85.3188 216.119 85.8881C215.811 86.4481 215.381 86.8868 214.831 87.2041C214.28 87.5121 213.664 87.6661 212.983 87.6661C212.339 87.6661 211.755 87.5168 211.233 87.2181C210.71 86.9101 210.304 86.4854 210.015 85.9441V90.3261H209.315V80.3021H209.987V82.0241C210.276 81.4641 210.682 81.0301 211.205 80.7221C211.737 80.4048 212.329 80.2461 212.983 80.2461ZM212.941 87.0361C213.501 87.0361 214.005 86.9054 214.453 86.6441C214.901 86.3828 215.251 86.0188 215.503 85.5521C215.764 85.0854 215.895 84.5534 215.895 83.9561C215.895 83.3588 215.764 82.8268 215.503 82.3601C215.251 81.8934 214.901 81.5294 214.453 81.2681C214.005 81.0068 213.501 80.8761 212.941 80.8761C212.381 80.8761 211.877 81.0068 211.429 81.2681C210.99 81.5294 210.64 81.8934 210.379 82.3601C210.127 82.8268 210.001 83.3588 210.001 83.9561C210.001 84.5534 210.127 85.0854 210.379 85.5521C210.64 86.0188 210.99 86.3828 211.429 86.6441C211.877 86.9054 212.381 87.0361 212.941 87.0361ZM221.266 80.2461C222.171 80.2461 222.866 80.4794 223.352 80.9461C223.837 81.4034 224.08 82.0801 224.08 82.9761V87.6101H223.408V86.3081C223.174 86.7374 222.834 87.0734 222.386 87.3161C221.938 87.5494 221.401 87.6661 220.776 87.6661C219.964 87.6661 219.32 87.4748 218.844 87.0921C218.377 86.7094 218.144 86.2054 218.144 85.5801C218.144 84.9734 218.358 84.4834 218.788 84.1101C219.226 83.7274 219.922 83.5361 220.874 83.5361H223.38V82.9481C223.38 82.2668 223.193 81.7488 222.82 81.3941C222.456 81.0394 221.919 80.8621 221.21 80.8621C220.724 80.8621 220.258 80.9461 219.81 81.1141C219.371 81.2821 218.998 81.5061 218.69 81.7861L218.34 81.2821C218.704 80.9554 219.142 80.7034 219.656 80.5261C220.169 80.3394 220.706 80.2461 221.266 80.2461ZM220.874 87.0921C221.48 87.0921 221.994 86.9521 222.414 86.6721C222.843 86.3921 223.165 85.9861 223.38 85.4541V84.0821H220.888C220.169 84.0821 219.646 84.2128 219.32 84.4741C219.002 84.7354 218.844 85.0948 218.844 85.5521C218.844 86.0281 219.021 86.4061 219.376 86.6861C219.73 86.9568 220.23 87.0921 220.874 87.0921ZM231.81 80.9321H228.954V87.6101H228.254V80.9321H225.398V80.3021H231.81V80.9321ZM236.234 82.9621C237.14 82.9714 237.83 83.1721 238.306 83.5641C238.782 83.9468 239.02 84.5114 239.02 85.2581C239.02 86.0328 238.768 86.6254 238.264 87.0361C237.76 87.4468 237.028 87.6474 236.066 87.6381L233.308 87.6101V80.3021H234.008V82.9341L236.234 82.9621ZM236.052 87.0781C236.79 87.0874 237.35 86.9381 237.732 86.6301C238.115 86.3221 238.306 85.8648 238.306 85.2581C238.306 84.6701 238.12 84.2361 237.746 83.9561C237.373 83.6668 236.808 83.5128 236.052 83.4941L234.008 83.4801V87.0501L236.052 87.0781ZM240.812 86.4761C240.98 86.4761 241.12 86.5368 241.232 86.6581C241.344 86.7701 241.4 86.9054 241.4 87.0641C241.4 87.1574 241.386 87.2554 241.358 87.3581C241.339 87.4608 241.311 87.5774 241.274 87.7081L240.728 89.6121H240.224L240.686 87.6381C240.546 87.6008 240.434 87.5354 240.35 87.4421C240.266 87.3394 240.224 87.2134 240.224 87.0641C240.224 86.8961 240.28 86.7561 240.392 86.6441C240.504 86.5321 240.644 86.4761 240.812 86.4761ZM251.648 83.8441C252.721 84.0308 253.258 84.6328 253.258 85.6501C253.258 86.2848 253.025 86.7701 252.558 87.1061C252.101 87.4421 251.41 87.6101 250.486 87.6101H247.322V80.3021H250.402C251.214 80.3021 251.849 80.4654 252.306 80.7921C252.773 81.1094 253.006 81.5668 253.006 82.1641C253.006 82.5934 252.885 82.9528 252.642 83.2421C252.409 83.5221 252.077 83.7228 251.648 83.8441ZM248.008 83.6341H250.36C250.985 83.6341 251.466 83.5174 251.802 83.2841C252.138 83.0414 252.306 82.6961 252.306 82.2481C252.306 81.7908 252.138 81.4501 251.802 81.2261C251.475 80.9928 250.995 80.8761 250.36 80.8761H248.008V83.6341ZM250.472 87.0361C251.863 87.0361 252.558 86.5648 252.558 85.6221C252.558 85.1274 252.399 84.7634 252.082 84.5301C251.765 84.2968 251.265 84.1801 250.584 84.1801H248.008V87.0361H250.472ZM258.628 82.9621C259.533 82.9714 260.224 83.1721 260.7 83.5641C261.176 83.9468 261.414 84.5114 261.414 85.2581C261.414 86.0328 261.162 86.6254 260.658 87.0361C260.154 87.4468 259.426 87.6474 258.474 87.6381L255.744 87.6101V80.3021H256.444V82.9341L258.628 82.9621ZM262.758 80.3021H263.458V87.6101H262.758V80.3021ZM258.446 87.0781C259.193 87.0874 259.757 86.9381 260.14 86.6301C260.523 86.3221 260.714 85.8648 260.714 85.2581C260.714 84.6701 260.527 84.2361 260.154 83.9561C259.781 83.6668 259.211 83.5128 258.446 83.4941L256.444 83.4801V87.0501L258.446 87.0781ZM276.008 80.3021L272.256 88.6041C271.976 89.2481 271.65 89.7054 271.276 89.9761C270.912 90.2468 270.478 90.3821 269.974 90.3821C269.638 90.3821 269.321 90.3261 269.022 90.2141C268.733 90.1021 268.486 89.9388 268.28 89.7241L268.63 89.1921C269.004 89.5748 269.456 89.7661 269.988 89.7661C270.343 89.7661 270.646 89.6681 270.898 89.4721C271.15 89.2761 271.384 88.9401 271.598 88.4641L271.99 87.5821L268.7 80.3021H269.442L272.368 86.8401L275.294 80.3021H276.008ZM282.027 83.8441C283.1 84.0308 283.637 84.6328 283.637 85.6501C283.637 86.2848 283.404 86.7701 282.937 87.1061C282.48 87.4421 281.789 87.6101 280.865 87.6101H277.701V80.3021H280.781C281.593 80.3021 282.228 80.4654 282.685 80.7921C283.152 81.1094 283.385 81.5668 283.385 82.1641C283.385 82.5934 283.264 82.9528 283.021 83.2421C282.788 83.5221 282.456 83.7228 282.027 83.8441ZM278.387 83.6341H280.739C281.364 83.6341 281.845 83.5174 282.181 83.2841C282.517 83.0414 282.685 82.6961 282.685 82.2481C282.685 81.7908 282.517 81.4501 282.181 81.2261C281.854 80.9928 281.374 80.8761 280.739 80.8761H278.387V83.6341ZM280.851 87.0361C282.242 87.0361 282.937 86.5648 282.937 85.6221C282.937 85.1274 282.778 84.7634 282.461 84.5301C282.144 84.2968 281.644 84.1801 280.963 84.1801H278.387V87.0361H280.851ZM286.123 80.3021H286.823V86.5321L292.031 80.3021H292.647V87.6101H291.947V81.3801L286.739 87.6101H286.123V80.3021ZM302.54 86.9941V89.4301H301.882V87.6101H294.966V89.4301H294.294V86.9941H294.728C295.222 86.9661 295.558 86.5834 295.736 85.8461C295.922 85.0994 296.053 84.0541 296.128 82.7101L296.226 80.3021H301.364V86.9941H302.54ZM296.772 82.7521C296.725 83.8628 296.632 84.7868 296.492 85.5241C296.352 86.2614 296.1 86.7514 295.736 86.9941H300.664V80.9321H296.856L296.772 82.7521ZM304.607 80.3021H305.307V86.5321L310.515 80.3021H311.131V87.6101H310.431V81.3801L305.223 87.6101H304.607V80.3021ZM319.036 80.9321H316.18V87.6101H315.48V80.9321H312.624V80.3021H319.036V80.9321ZM326.423 84.1241H320.137C320.156 84.6934 320.3 85.2021 320.571 85.6501C320.842 86.0888 321.206 86.4294 321.663 86.6721C322.13 86.9148 322.652 87.0361 323.231 87.0361C323.707 87.0361 324.146 86.9521 324.547 86.7841C324.958 86.6068 325.298 86.3501 325.569 86.0141L325.975 86.4761C325.658 86.8588 325.256 87.1528 324.771 87.3581C324.295 87.5634 323.777 87.6661 323.217 87.6661C322.489 87.6661 321.84 87.5074 321.271 87.1901C320.702 86.8728 320.254 86.4341 319.927 85.8741C319.61 85.3141 319.451 84.6748 319.451 83.9561C319.451 83.2468 319.6 82.6121 319.899 82.0521C320.207 81.4828 320.627 81.0394 321.159 80.7221C321.691 80.4048 322.288 80.2461 322.951 80.2461C323.614 80.2461 324.206 80.4048 324.729 80.7221C325.261 81.0301 325.676 81.4641 325.975 82.0241C326.283 82.5841 326.437 83.2188 326.437 83.9281L326.423 84.1241ZM322.951 80.8621C322.438 80.8621 321.976 80.9788 321.565 81.2121C321.154 81.4361 320.823 81.7581 320.571 82.1781C320.328 82.5888 320.188 83.0554 320.151 83.5781H325.751C325.723 83.0554 325.583 82.5888 325.331 82.1781C325.079 81.7674 324.748 81.4454 324.337 81.2121C323.926 80.9788 323.464 80.8621 322.951 80.8621ZM21.7019 102.302H22.4019V105.634H27.3579V102.302H28.0579V109.61H27.3579V106.25H22.4019V109.61H21.7019V102.302ZM37.3108 106.124H31.0248C31.0435 106.693 31.1882 107.202 31.4588 107.65C31.7295 108.089 32.0935 108.429 32.5508 108.672C33.0175 108.915 33.5402 109.036 34.1188 109.036C34.5948 109.036 35.0335 108.952 35.4348 108.784C35.8455 108.607 36.1862 108.35 36.4568 108.014L36.8628 108.476C36.5455 108.859 36.1442 109.153 35.6588 109.358C35.1828 109.563 34.6648 109.666 34.1048 109.666C33.3768 109.666 32.7282 109.507 32.1588 109.19C31.5895 108.873 31.1415 108.434 30.8148 107.874C30.4975 107.314 30.3388 106.675 30.3388 105.956C30.3388 105.247 30.4882 104.612 30.7868 104.052C31.0948 103.483 31.5148 103.039 32.0468 102.722C32.5788 102.405 33.1762 102.246 33.8388 102.246C34.5015 102.246 35.0942 102.405 35.6168 102.722C36.1488 103.03 36.5642 103.464 36.8628 104.024C37.1708 104.584 37.3248 105.219 37.3248 105.928L37.3108 106.124ZM33.8388 102.862C33.3255 102.862 32.8635 102.979 32.4528 103.212C32.0422 103.436 31.7108 103.758 31.4588 104.178C31.2162 104.589 31.0762 105.055 31.0388 105.578H36.6388C36.6108 105.055 36.4708 104.589 36.2188 104.178C35.9668 103.767 35.6355 103.445 35.2248 103.212C34.8142 102.979 34.3522 102.862 33.8388 102.862ZM42.5661 109.666C41.8568 109.666 41.2221 109.507 40.6621 109.19C40.1021 108.873 39.6634 108.434 39.3461 107.874C39.0288 107.305 38.8701 106.665 38.8701 105.956C38.8701 105.237 39.0288 104.598 39.3461 104.038C39.6634 103.469 40.1021 103.03 40.6621 102.722C41.2221 102.405 41.8568 102.246 42.5661 102.246C43.1541 102.246 43.6861 102.363 44.1621 102.596C44.6474 102.82 45.0394 103.151 45.3381 103.59L44.8201 103.968C44.5588 103.604 44.2321 103.333 43.8401 103.156C43.4574 102.969 43.0328 102.876 42.5661 102.876C41.9968 102.876 41.4834 103.007 41.0261 103.268C40.5781 103.52 40.2234 103.879 39.9621 104.346C39.7101 104.813 39.5841 105.349 39.5841 105.956C39.5841 106.563 39.7101 107.099 39.9621 107.566C40.2234 108.033 40.5781 108.397 41.0261 108.658C41.4834 108.91 41.9968 109.036 42.5661 109.036C43.0328 109.036 43.4574 108.947 43.8401 108.77C44.2321 108.583 44.5588 108.308 44.8201 107.944L45.3381 108.322C45.0394 108.761 44.6474 109.097 44.1621 109.33C43.6861 109.554 43.1541 109.666 42.5661 109.666ZM49.8831 106.222H48.1051V109.61H47.4051V102.302H48.1051V105.62H49.8831L52.6411 102.302H53.4111L50.4431 105.844L53.6351 109.61H52.7951L49.8831 106.222ZM58.0143 109.666C57.3237 109.666 56.6983 109.507 56.1383 109.19C55.5877 108.873 55.1537 108.434 54.8363 107.874C54.519 107.305 54.3603 106.665 54.3603 105.956C54.3603 105.247 54.519 104.612 54.8363 104.052C55.1537 103.483 55.5877 103.039 56.1383 102.722C56.6983 102.405 57.3237 102.246 58.0143 102.246C58.705 102.246 59.3257 102.405 59.8763 102.722C60.4363 103.039 60.875 103.483 61.1923 104.052C61.5097 104.612 61.6683 105.247 61.6683 105.956C61.6683 106.665 61.5097 107.305 61.1923 107.874C60.875 108.434 60.4363 108.873 59.8763 109.19C59.3257 109.507 58.705 109.666 58.0143 109.666ZM58.0143 109.036C58.5743 109.036 59.0737 108.905 59.5123 108.644C59.9603 108.383 60.3103 108.019 60.5623 107.552C60.8237 107.085 60.9543 106.553 60.9543 105.956C60.9543 105.359 60.8237 104.827 60.5623 104.36C60.3103 103.893 59.9603 103.529 59.5123 103.268C59.0737 103.007 58.5743 102.876 58.0143 102.876C57.4543 102.876 56.9503 103.007 56.5023 103.268C56.0637 103.529 55.7137 103.893 55.4523 104.36C55.2003 104.827 55.0743 105.359 55.0743 105.956C55.0743 106.553 55.2003 107.085 55.4523 107.552C55.7137 108.019 56.0637 108.383 56.5023 108.644C56.9503 108.905 57.4543 109.036 58.0143 109.036ZM69.6327 102.302V109.61H68.9327V102.932H65.1247L65.0267 104.878C64.9707 105.886 64.8867 106.731 64.7747 107.412C64.6627 108.093 64.4714 108.644 64.2007 109.064C63.93 109.484 63.5567 109.694 63.0807 109.694C62.9407 109.694 62.74 109.661 62.4787 109.596L62.5487 108.994C62.698 109.031 62.81 109.05 62.8847 109.05C63.2767 109.05 63.5754 108.859 63.7807 108.476C63.986 108.093 64.126 107.617 64.2007 107.048C64.2754 106.479 64.336 105.737 64.3827 104.822L64.5087 102.302H69.6327ZM75.583 104.962C76.4884 104.971 77.179 105.172 77.655 105.564C78.131 105.947 78.369 106.511 78.369 107.258C78.369 108.033 78.117 108.625 77.613 109.036C77.109 109.447 76.3764 109.647 75.415 109.638L72.657 109.61V102.302H73.357V104.934L75.583 104.962ZM75.401 109.078C76.1384 109.087 76.6984 108.938 77.081 108.63C77.4637 108.322 77.655 107.865 77.655 107.258C77.655 106.67 77.4684 106.236 77.095 105.956C76.7217 105.667 76.157 105.513 75.401 105.494L73.357 105.48V109.05L75.401 109.078ZM82.8733 106.222H81.0953V109.61H80.3953V102.302H81.0953V105.62H82.8733L85.6313 102.302H86.4013L83.4333 105.844L86.6253 109.61H85.7853L82.8733 106.222ZM91.0046 109.666C90.3139 109.666 89.6886 109.507 89.1286 109.19C88.5779 108.873 88.1439 108.434 87.8266 107.874C87.5092 107.305 87.3506 106.665 87.3506 105.956C87.3506 105.247 87.5092 104.612 87.8266 104.052C88.1439 103.483 88.5779 103.039 89.1286 102.722C89.6886 102.405 90.3139 102.246 91.0046 102.246C91.6952 102.246 92.3159 102.405 92.8666 102.722C93.4266 103.039 93.8652 103.483 94.1826 104.052C94.4999 104.612 94.6586 105.247 94.6586 105.956C94.6586 106.665 94.4999 107.305 94.1826 107.874C93.8652 108.434 93.4266 108.873 92.8666 109.19C92.3159 109.507 91.6952 109.666 91.0046 109.666ZM91.0046 109.036C91.5646 109.036 92.0639 108.905 92.5026 108.644C92.9506 108.383 93.3006 108.019 93.5526 107.552C93.8139 107.085 93.9446 106.553 93.9446 105.956C93.9446 105.359 93.8139 104.827 93.5526 104.36C93.3006 103.893 92.9506 103.529 92.5026 103.268C92.0639 103.007 91.5646 102.876 91.0046 102.876C90.4446 102.876 89.9406 103.007 89.4926 103.268C89.0539 103.529 88.7039 103.893 88.4426 104.36C88.1906 104.827 88.0646 105.359 88.0646 105.956C88.0646 106.553 88.1906 107.085 88.4426 107.552C88.7039 108.019 89.0539 108.383 89.4926 108.644C89.9406 108.905 90.4446 109.036 91.0046 109.036ZM103.488 109.666C102.779 109.666 102.144 109.507 101.584 109.19C101.024 108.873 100.585 108.434 100.268 107.874C99.9506 107.305 99.792 106.665 99.792 105.956C99.792 105.237 99.9506 104.598 100.268 104.038C100.585 103.469 101.024 103.03 101.584 102.722C102.144 102.405 102.779 102.246 103.488 102.246C104.076 102.246 104.608 102.363 105.084 102.596C105.569 102.82 105.961 103.151 106.26 103.59L105.742 103.968C105.481 103.604 105.154 103.333 104.762 103.156C104.379 102.969 103.955 102.876 103.488 102.876C102.919 102.876 102.405 103.007 101.948 103.268C101.5 103.52 101.145 103.879 100.884 104.346C100.632 104.813 100.506 105.349 100.506 105.956C100.506 106.563 100.632 107.099 100.884 107.566C101.145 108.033 101.5 108.397 101.948 108.658C102.405 108.91 102.919 109.036 103.488 109.036C103.955 109.036 104.379 108.947 104.762 108.77C105.154 108.583 105.481 108.308 105.742 107.944L106.26 108.322C105.961 108.761 105.569 109.097 105.084 109.33C104.608 109.554 104.076 109.666 103.488 109.666ZM113.738 102.302V109.61H113.038V102.932H109.23L109.132 104.878C109.076 105.886 108.992 106.731 108.88 107.412C108.768 108.093 108.577 108.644 108.306 109.064C108.035 109.484 107.662 109.694 107.186 109.694C107.046 109.694 106.845 109.661 106.584 109.596L106.654 108.994C106.803 109.031 106.915 109.05 106.99 109.05C107.382 109.05 107.681 108.859 107.886 108.476C108.091 108.093 108.231 107.617 108.306 107.048C108.381 106.479 108.441 105.737 108.488 104.822L108.614 102.302H113.738ZM119.674 109.666C118.984 109.666 118.358 109.507 117.798 109.19C117.248 108.873 116.814 108.434 116.496 107.874C116.179 107.305 116.02 106.665 116.02 105.956C116.02 105.247 116.179 104.612 116.496 104.052C116.814 103.483 117.248 103.039 117.798 102.722C118.358 102.405 118.984 102.246 119.674 102.246C120.365 102.246 120.986 102.405 121.536 102.722C122.096 103.039 122.535 103.483 122.852 104.052C123.17 104.612 123.328 105.247 123.328 105.956C123.328 106.665 123.17 107.305 122.852 107.874C122.535 108.434 122.096 108.873 121.536 109.19C120.986 109.507 120.365 109.666 119.674 109.666ZM119.674 109.036C120.234 109.036 120.734 108.905 121.172 108.644C121.62 108.383 121.97 108.019 122.222 107.552C122.484 107.085 122.614 106.553 122.614 105.956C122.614 105.359 122.484 104.827 122.222 104.36C121.97 103.893 121.62 103.529 121.172 103.268C120.734 103.007 120.234 102.876 119.674 102.876C119.114 102.876 118.61 103.007 118.162 103.268C117.724 103.529 117.374 103.893 117.112 104.36C116.86 104.827 116.734 105.359 116.734 105.956C116.734 106.553 116.86 107.085 117.112 107.552C117.374 108.019 117.724 108.383 118.162 108.644C118.61 108.905 119.114 109.036 119.674 109.036ZM129.934 105.844C131.008 106.031 131.544 106.633 131.544 107.65C131.544 108.285 131.311 108.77 130.844 109.106C130.387 109.442 129.696 109.61 128.772 109.61H125.608V102.302H128.688C129.5 102.302 130.135 102.465 130.592 102.792C131.059 103.109 131.292 103.567 131.292 104.164C131.292 104.593 131.171 104.953 130.928 105.242C130.695 105.522 130.364 105.723 129.934 105.844ZM126.294 105.634H128.646C129.272 105.634 129.752 105.517 130.088 105.284C130.424 105.041 130.592 104.696 130.592 104.248C130.592 103.791 130.424 103.45 130.088 103.226C129.762 102.993 129.281 102.876 128.646 102.876H126.294V105.634ZM128.758 109.036C130.149 109.036 130.844 108.565 130.844 107.622C130.844 107.127 130.686 106.763 130.368 106.53C130.051 106.297 129.552 106.18 128.87 106.18H126.294V109.036H128.758ZM133.918 108.476C134.086 108.476 134.226 108.537 134.338 108.658C134.45 108.77 134.506 108.905 134.506 109.064C134.506 109.157 134.492 109.255 134.464 109.358C134.445 109.461 134.417 109.577 134.38 109.708L133.834 111.612H133.33L133.792 109.638C133.652 109.601 133.54 109.535 133.456 109.442C133.372 109.339 133.33 109.213 133.33 109.064C133.33 108.896 133.386 108.756 133.498 108.644C133.61 108.532 133.75 108.476 133.918 108.476ZM142.907 106.222H141.129V109.61H140.429V102.302H141.129V105.62H142.907L145.665 102.302H146.435L143.467 105.844L146.659 109.61H145.819L142.907 106.222ZM151.038 109.666C150.347 109.666 149.722 109.507 149.162 109.19C148.611 108.873 148.177 108.434 147.86 107.874C147.542 107.305 147.384 106.665 147.384 105.956C147.384 105.247 147.542 104.612 147.86 104.052C148.177 103.483 148.611 103.039 149.162 102.722C149.722 102.405 150.347 102.246 151.038 102.246C151.728 102.246 152.349 102.405 152.9 102.722C153.46 103.039 153.898 103.483 154.216 104.052C154.533 104.612 154.692 105.247 154.692 105.956C154.692 106.665 154.533 107.305 154.216 107.874C153.898 108.434 153.46 108.873 152.9 109.19C152.349 109.507 151.728 109.666 151.038 109.666ZM151.038 109.036C151.598 109.036 152.097 108.905 152.536 108.644C152.984 108.383 153.334 108.019 153.586 107.552C153.847 107.085 153.978 106.553 153.978 105.956C153.978 105.359 153.847 104.827 153.586 104.36C153.334 103.893 152.984 103.529 152.536 103.268C152.097 103.007 151.598 102.876 151.038 102.876C150.478 102.876 149.974 103.007 149.526 103.268C149.087 103.529 148.737 103.893 148.476 104.36C148.224 104.827 148.098 105.359 148.098 105.956C148.098 106.553 148.224 107.085 148.476 107.552C148.737 108.019 149.087 108.383 149.526 108.644C149.974 108.905 150.478 109.036 151.038 109.036ZM161.584 102.932H158.728V109.61H158.028V102.932H155.172V102.302H161.584V102.932ZM165.653 109.666C164.962 109.666 164.337 109.507 163.777 109.19C163.226 108.873 162.792 108.434 162.475 107.874C162.158 107.305 161.999 106.665 161.999 105.956C161.999 105.247 162.158 104.612 162.475 104.052C162.792 103.483 163.226 103.039 163.777 102.722C164.337 102.405 164.962 102.246 165.653 102.246C166.344 102.246 166.964 102.405 167.515 102.722C168.075 103.039 168.514 103.483 168.831 104.052C169.148 104.612 169.307 105.247 169.307 105.956C169.307 106.665 169.148 107.305 168.831 107.874C168.514 108.434 168.075 108.873 167.515 109.19C166.964 109.507 166.344 109.666 165.653 109.666ZM165.653 109.036C166.213 109.036 166.712 108.905 167.151 108.644C167.599 108.383 167.949 108.019 168.201 107.552C168.462 107.085 168.593 106.553 168.593 105.956C168.593 105.359 168.462 104.827 168.201 104.36C167.949 103.893 167.599 103.529 167.151 103.268C166.712 103.007 166.213 102.876 165.653 102.876C165.093 102.876 164.589 103.007 164.141 103.268C163.702 103.529 163.352 103.893 163.091 104.36C162.839 104.827 162.713 105.359 162.713 105.956C162.713 106.553 162.839 107.085 163.091 107.552C163.352 108.019 163.702 108.383 164.141 108.644C164.589 108.905 165.093 109.036 165.653 109.036ZM175.269 102.246C175.95 102.246 176.566 102.405 177.117 102.722C177.667 103.039 178.097 103.478 178.405 104.038C178.722 104.598 178.881 105.237 178.881 105.956C178.881 106.675 178.722 107.319 178.405 107.888C178.097 108.448 177.667 108.887 177.117 109.204C176.566 109.512 175.95 109.666 175.269 109.666C174.625 109.666 174.041 109.517 173.519 109.218C172.996 108.91 172.59 108.485 172.301 107.944V112.326H171.601V102.302H172.273V104.024C172.562 103.464 172.968 103.03 173.491 102.722C174.023 102.405 174.615 102.246 175.269 102.246ZM175.227 109.036C175.787 109.036 176.291 108.905 176.739 108.644C177.187 108.383 177.537 108.019 177.789 107.552C178.05 107.085 178.181 106.553 178.181 105.956C178.181 105.359 178.05 104.827 177.789 104.36C177.537 103.893 177.187 103.529 176.739 103.268C176.291 103.007 175.787 102.876 175.227 102.876C174.667 102.876 174.163 103.007 173.715 103.268C173.276 103.529 172.926 103.893 172.665 104.36C172.413 104.827 172.287 105.359 172.287 105.956C172.287 106.553 172.413 107.085 172.665 107.552C172.926 108.019 173.276 108.383 173.715 108.644C174.163 108.905 174.667 109.036 175.227 109.036ZM184.041 104.962C184.946 104.971 185.637 105.172 186.113 105.564C186.589 105.947 186.827 106.511 186.827 107.258C186.827 108.033 186.575 108.625 186.071 109.036C185.567 109.447 184.839 109.647 183.887 109.638L181.157 109.61V102.302H181.857V104.934L184.041 104.962ZM188.171 102.302H188.871V109.61H188.171V102.302ZM183.859 109.078C184.606 109.087 185.17 108.938 185.553 108.63C185.936 108.322 186.127 107.865 186.127 107.258C186.127 106.67 185.94 106.236 185.567 105.956C185.194 105.667 184.624 105.513 183.859 105.494L181.857 105.48V109.05L183.859 109.078ZM198.106 106.124H191.82C191.838 106.693 191.983 107.202 192.254 107.65C192.524 108.089 192.888 108.429 193.346 108.672C193.812 108.915 194.335 109.036 194.914 109.036C195.39 109.036 195.828 108.952 196.23 108.784C196.64 108.607 196.981 108.35 197.252 108.014L197.658 108.476C197.34 108.859 196.939 109.153 196.454 109.358C195.978 109.563 195.46 109.666 194.9 109.666C194.172 109.666 193.523 109.507 192.954 109.19C192.384 108.873 191.936 108.434 191.61 107.874C191.292 107.314 191.134 106.675 191.134 105.956C191.134 105.247 191.283 104.612 191.582 104.052C191.89 103.483 192.31 103.039 192.842 102.722C193.374 102.405 193.971 102.246 194.634 102.246C195.296 102.246 195.889 102.405 196.412 102.722C196.944 103.03 197.359 103.464 197.658 104.024C197.966 104.584 198.12 105.219 198.12 105.928L198.106 106.124ZM194.634 102.862C194.12 102.862 193.658 102.979 193.248 103.212C192.837 103.436 192.506 103.758 192.254 104.178C192.011 104.589 191.871 105.055 191.834 105.578H197.434C197.406 105.055 197.266 104.589 197.014 104.178C196.762 103.767 196.43 103.445 196.02 103.212C195.609 102.979 195.147 102.862 194.634 102.862ZM208.329 105.844C209.402 106.031 209.939 106.633 209.939 107.65C209.939 108.285 209.705 108.77 209.239 109.106C208.781 109.442 208.091 109.61 207.167 109.61H204.003V102.302H207.083C207.895 102.302 208.529 102.465 208.987 102.792C209.453 103.109 209.687 103.567 209.687 104.164C209.687 104.593 209.565 104.953 209.323 105.242C209.089 105.522 208.758 105.723 208.329 105.844ZM204.689 105.634H207.041C207.666 105.634 208.147 105.517 208.483 105.284C208.819 105.041 208.987 104.696 208.987 104.248C208.987 103.791 208.819 103.45 208.483 103.226C208.156 102.993 207.675 102.876 207.041 102.876H204.689V105.634ZM207.153 109.036C208.543 109.036 209.239 108.565 209.239 107.622C209.239 107.127 209.08 106.763 208.763 106.53C208.445 106.297 207.946 106.18 207.265 106.18H204.689V109.036H207.153ZM214.847 102.246C215.752 102.246 216.447 102.479 216.933 102.946C217.418 103.403 217.661 104.08 217.661 104.976V109.61H216.989V108.308C216.755 108.737 216.415 109.073 215.967 109.316C215.519 109.549 214.982 109.666 214.357 109.666C213.545 109.666 212.901 109.475 212.425 109.092C211.958 108.709 211.725 108.205 211.725 107.58C211.725 106.973 211.939 106.483 212.369 106.11C212.807 105.727 213.503 105.536 214.455 105.536H216.961V104.948C216.961 104.267 216.774 103.749 216.401 103.394C216.037 103.039 215.5 102.862 214.791 102.862C214.305 102.862 213.839 102.946 213.391 103.114C212.952 103.282 212.579 103.506 212.271 103.786L211.921 103.282C212.285 102.955 212.723 102.703 213.237 102.526C213.75 102.339 214.287 102.246 214.847 102.246ZM214.455 109.092C215.061 109.092 215.575 108.952 215.995 108.672C216.424 108.392 216.746 107.986 216.961 107.454V106.082H214.469C213.75 106.082 213.227 106.213 212.901 106.474C212.583 106.735 212.425 107.095 212.425 107.552C212.425 108.028 212.602 108.406 212.957 108.686C213.311 108.957 213.811 109.092 214.455 109.092ZM228.457 102.302V109.61H227.813V103.422L224.635 108.672H224.313L221.149 103.436V109.61H220.505V102.302H221.191L224.495 107.832L227.813 102.302H228.457ZM235.079 102.302H235.779V105.634H240.735V102.302H241.435V109.61H240.735V106.25H235.779V109.61H235.079V102.302ZM250.688 106.124H244.402C244.42 106.693 244.565 107.202 244.836 107.65C245.106 108.089 245.47 108.429 245.928 108.672C246.394 108.915 246.917 109.036 247.496 109.036C247.972 109.036 248.41 108.952 248.812 108.784C249.222 108.607 249.563 108.35 249.834 108.014L250.24 108.476C249.922 108.859 249.521 109.153 249.036 109.358C248.56 109.563 248.042 109.666 247.482 109.666C246.754 109.666 246.105 109.507 245.536 109.19C244.966 108.873 244.518 108.434 244.192 107.874C243.874 107.314 243.716 106.675 243.716 105.956C243.716 105.247 243.865 104.612 244.164 104.052C244.472 103.483 244.892 103.039 245.424 102.722C245.956 102.405 246.553 102.246 247.216 102.246C247.878 102.246 248.471 102.405 248.994 102.722C249.526 103.03 249.941 103.464 250.24 104.024C250.548 104.584 250.702 105.219 250.702 105.928L250.688 106.124ZM247.216 102.862C246.702 102.862 246.24 102.979 245.83 103.212C245.419 103.436 245.088 103.758 244.836 104.178C244.593 104.589 244.453 105.055 244.416 105.578H250.016C249.988 105.055 249.848 104.589 249.596 104.178C249.344 103.767 249.012 103.445 248.602 103.212C248.191 102.979 247.729 102.862 247.216 102.862ZM255.901 109.666C255.21 109.666 254.585 109.507 254.025 109.19C253.474 108.873 253.04 108.434 252.723 107.874C252.406 107.305 252.247 106.665 252.247 105.956C252.247 105.247 252.406 104.612 252.723 104.052C253.04 103.483 253.474 103.039 254.025 102.722C254.585 102.405 255.21 102.246 255.901 102.246C256.592 102.246 257.212 102.405 257.763 102.722C258.323 103.039 258.762 103.483 259.079 104.052C259.396 104.612 259.555 105.247 259.555 105.956C259.555 106.665 259.396 107.305 259.079 107.874C258.762 108.434 258.323 108.873 257.763 109.19C257.212 109.507 256.592 109.666 255.901 109.666ZM255.901 109.036C256.461 109.036 256.96 108.905 257.399 108.644C257.847 108.383 258.197 108.019 258.449 107.552C258.71 107.085 258.841 106.553 258.841 105.956C258.841 105.359 258.71 104.827 258.449 104.36C258.197 103.893 257.847 103.529 257.399 103.268C256.96 103.007 256.461 102.876 255.901 102.876C255.341 102.876 254.837 103.007 254.389 103.268C253.95 103.529 253.6 103.893 253.339 104.36C253.087 104.827 252.961 105.359 252.961 105.956C252.961 106.553 253.087 107.085 253.339 107.552C253.6 108.019 253.95 108.383 254.389 108.644C254.837 108.905 255.341 109.036 255.901 109.036ZM265.223 102.414C265.904 102.414 266.506 102.568 267.029 102.876C267.561 103.175 267.976 103.595 268.275 104.136C268.573 104.677 268.723 105.303 268.723 106.012C268.723 106.721 268.569 107.356 268.261 107.916C267.962 108.467 267.537 108.901 266.987 109.218C266.445 109.526 265.825 109.68 265.125 109.68C264.322 109.68 263.636 109.484 263.067 109.092C262.507 108.7 262.077 108.145 261.779 107.426C261.489 106.707 261.345 105.867 261.345 104.906C261.345 103.814 261.475 102.909 261.737 102.19C262.007 101.471 262.409 100.907 262.941 100.496C263.482 100.076 264.173 99.7634 265.013 99.5581L268.247 98.7741L268.359 99.4321L265.279 100.16C264.523 100.337 263.907 100.599 263.431 100.944C262.964 101.28 262.614 101.742 262.381 102.33C262.147 102.918 262.026 103.669 262.017 104.584C262.259 103.912 262.665 103.385 263.235 103.002C263.804 102.61 264.467 102.414 265.223 102.414ZM265.139 109.078C265.689 109.078 266.184 108.947 266.623 108.686C267.061 108.425 267.402 108.065 267.645 107.608C267.887 107.141 268.009 106.614 268.009 106.026C268.009 105.438 267.887 104.92 267.645 104.472C267.402 104.015 267.061 103.665 266.623 103.422C266.193 103.17 265.699 103.044 265.139 103.044C264.579 103.044 264.079 103.17 263.641 103.422C263.202 103.665 262.861 104.015 262.619 104.472C262.376 104.92 262.255 105.438 262.255 106.026C262.255 106.614 262.376 107.141 262.619 107.608C262.861 108.065 263.202 108.425 263.641 108.686C264.079 108.947 264.579 109.078 265.139 109.078ZM275.34 109.61L272.834 106.348L270.328 109.61H269.53L272.428 105.844L269.684 102.302H270.482L272.834 105.34L275.186 102.302H275.97L273.226 105.844L276.166 109.61H275.34ZM280.592 109.666C279.902 109.666 279.276 109.507 278.716 109.19C278.166 108.873 277.732 108.434 277.414 107.874C277.097 107.305 276.938 106.665 276.938 105.956C276.938 105.247 277.097 104.612 277.414 104.052C277.732 103.483 278.166 103.039 278.716 102.722C279.276 102.405 279.902 102.246 280.592 102.246C281.283 102.246 281.904 102.405 282.454 102.722C283.014 103.039 283.453 103.483 283.77 104.052C284.088 104.612 284.246 105.247 284.246 105.956C284.246 106.665 284.088 107.305 283.77 107.874C283.453 108.434 283.014 108.873 282.454 109.19C281.904 109.507 281.283 109.666 280.592 109.666ZM280.592 109.036C281.152 109.036 281.652 108.905 282.09 108.644C282.538 108.383 282.888 108.019 283.14 107.552C283.402 107.085 283.532 106.553 283.532 105.956C283.532 105.359 283.402 104.827 283.14 104.36C282.888 103.893 282.538 103.529 282.09 103.268C281.652 103.007 281.152 102.876 280.592 102.876C280.032 102.876 279.528 103.007 279.08 103.268C278.642 103.529 278.292 103.893 278.03 104.36C277.778 104.827 277.652 105.359 277.652 105.956C277.652 106.553 277.778 107.085 278.03 107.552C278.292 108.019 278.642 108.383 279.08 108.644C279.528 108.905 280.032 109.036 280.592 109.036ZM293.373 108.994V111.43H292.715V109.61H285.799V111.43H285.127V108.994H285.561C286.055 108.966 286.391 108.583 286.569 107.846C286.755 107.099 286.886 106.054 286.961 104.71L287.059 102.302H292.197V108.994H293.373ZM287.605 104.752C287.558 105.863 287.465 106.787 287.325 107.524C287.185 108.261 286.933 108.751 286.569 108.994H291.497V102.932H287.689L287.605 104.752ZM295.44 102.302H296.14V108.532L301.348 102.302H301.964V109.61H301.264V103.38L296.056 109.61H295.44V102.302ZM312.935 102.302V109.61H312.291V103.422L309.113 108.672H308.791L305.627 103.436V109.61H304.983V102.302H305.669L308.973 107.832L312.291 102.302H312.935ZM318.874 109.666C318.183 109.666 317.558 109.507 316.998 109.19C316.447 108.873 316.013 108.434 315.696 107.874C315.378 107.305 315.22 106.665 315.22 105.956C315.22 105.247 315.378 104.612 315.696 104.052C316.013 103.483 316.447 103.039 316.998 102.722C317.558 102.405 318.183 102.246 318.874 102.246C319.564 102.246 320.185 102.405 320.736 102.722C321.296 103.039 321.734 103.483 322.052 104.052C322.369 104.612 322.528 105.247 322.528 105.956C322.528 106.665 322.369 107.305 322.052 107.874C321.734 108.434 321.296 108.873 320.736 109.19C320.185 109.507 319.564 109.666 318.874 109.666ZM318.874 109.036C319.434 109.036 319.933 108.905 320.372 108.644C320.82 108.383 321.17 108.019 321.422 107.552C321.683 107.085 321.814 106.553 321.814 105.956C321.814 105.359 321.683 104.827 321.422 104.36C321.17 103.893 320.82 103.529 320.372 103.268C319.933 103.007 319.434 102.876 318.874 102.876C318.314 102.876 317.81 103.007 317.362 103.268C316.923 103.529 316.573 103.893 316.312 104.36C316.06 104.827 315.934 105.359 315.934 105.956C315.934 106.553 316.06 107.085 316.312 107.552C316.573 108.019 316.923 108.383 317.362 108.644C317.81 108.905 318.314 109.036 318.874 109.036ZM136.287 127.802C136.828 127.905 137.243 128.11 137.533 128.418C137.831 128.717 137.981 129.085 137.981 129.524C137.981 129.953 137.836 130.331 137.547 130.658C137.267 130.985 136.884 131.237 136.399 131.414C135.913 131.591 135.386 131.68 134.817 131.68C134.294 131.68 133.781 131.601 133.277 131.442C132.782 131.274 132.348 131.036 131.975 130.728L132.255 130.21C132.581 130.49 132.969 130.705 133.417 130.854C133.874 131.003 134.336 131.078 134.803 131.078C135.493 131.078 136.077 130.933 136.553 130.644C137.029 130.345 137.267 129.953 137.267 129.468C137.267 129.039 137.066 128.703 136.665 128.46C136.273 128.208 135.741 128.082 135.069 128.082H133.893V127.55H135.041C135.629 127.55 136.109 127.433 136.483 127.2C136.865 126.967 137.057 126.654 137.057 126.262C137.057 125.805 136.847 125.455 136.427 125.212C136.016 124.96 135.489 124.834 134.845 124.834C134.023 124.834 133.249 125.044 132.521 125.464L132.311 124.904C133.132 124.447 134.005 124.218 134.929 124.218C135.741 124.218 136.417 124.395 136.959 124.75C137.5 125.095 137.771 125.567 137.771 126.164C137.771 126.547 137.635 126.883 137.365 127.172C137.094 127.461 136.735 127.671 136.287 127.802ZM142.844 124.246C143.749 124.246 144.444 124.479 144.93 124.946C145.415 125.403 145.658 126.08 145.658 126.976V131.61H144.986V130.308C144.752 130.737 144.412 131.073 143.964 131.316C143.516 131.549 142.979 131.666 142.354 131.666C141.542 131.666 140.898 131.475 140.422 131.092C139.955 130.709 139.722 130.205 139.722 129.58C139.722 128.973 139.936 128.483 140.366 128.11C140.804 127.727 141.5 127.536 142.452 127.536H144.958V126.948C144.958 126.267 144.771 125.749 144.398 125.394C144.034 125.039 143.497 124.862 142.788 124.862C142.302 124.862 141.836 124.946 141.388 125.114C140.949 125.282 140.576 125.506 140.268 125.786L139.918 125.282C140.282 124.955 140.72 124.703 141.234 124.526C141.747 124.339 142.284 124.246 142.844 124.246ZM142.452 131.092C143.058 131.092 143.572 130.952 143.992 130.672C144.421 130.392 144.743 129.986 144.958 129.454V128.082H142.466C141.747 128.082 141.224 128.213 140.898 128.474C140.58 128.735 140.422 129.095 140.422 129.552C140.422 130.028 140.599 130.406 140.954 130.686C141.308 130.957 141.808 131.092 142.452 131.092ZM154.886 124.302V131.61H154.186V124.932H149.202V131.61H148.502V124.302H154.886ZM160.82 131.666C160.129 131.666 159.504 131.507 158.944 131.19C158.393 130.873 157.959 130.434 157.642 129.874C157.325 129.305 157.166 128.665 157.166 127.956C157.166 127.247 157.325 126.612 157.642 126.052C157.959 125.483 158.393 125.039 158.944 124.722C159.504 124.405 160.129 124.246 160.82 124.246C161.511 124.246 162.131 124.405 162.682 124.722C163.242 125.039 163.681 125.483 163.998 126.052C164.315 126.612 164.474 127.247 164.474 127.956C164.474 128.665 164.315 129.305 163.998 129.874C163.681 130.434 163.242 130.873 162.682 131.19C162.131 131.507 161.511 131.666 160.82 131.666ZM160.82 131.036C161.38 131.036 161.879 130.905 162.318 130.644C162.766 130.383 163.116 130.019 163.368 129.552C163.629 129.085 163.76 128.553 163.76 127.956C163.76 127.359 163.629 126.827 163.368 126.36C163.116 125.893 162.766 125.529 162.318 125.268C161.879 125.007 161.38 124.876 160.82 124.876C160.26 124.876 159.756 125.007 159.308 125.268C158.869 125.529 158.519 125.893 158.258 126.36C158.006 126.827 157.88 127.359 157.88 127.956C157.88 128.553 158.006 129.085 158.258 129.552C158.519 130.019 158.869 130.383 159.308 130.644C159.756 130.905 160.26 131.036 160.82 131.036ZM174.706 124.302V131.61H174.062V125.422L170.884 130.672H170.562L167.398 125.436V131.61H166.754V124.302H167.44L170.744 129.832L174.062 124.302H174.706ZM177.732 124.302H178.432V127.634H183.388V124.302H184.088V131.61H183.388V128.25H178.432V131.61H177.732V124.302ZM187.111 124.302H187.811V130.532L193.019 124.302H193.635V131.61H192.935V125.38L187.727 131.61H187.111V124.302ZM201.54 124.932H198.684V131.61H197.984V124.932H195.128V124.302H201.54V124.932ZM205.965 126.962C206.87 126.971 207.561 127.172 208.037 127.564C208.513 127.947 208.751 128.511 208.751 129.258C208.751 130.033 208.499 130.625 207.995 131.036C207.491 131.447 206.758 131.647 205.797 131.638L203.039 131.61V124.302H203.739V126.934L205.965 126.962ZM205.783 131.078C206.52 131.087 207.08 130.938 207.463 130.63C207.846 130.322 208.037 129.865 208.037 129.258C208.037 128.67 207.85 128.236 207.477 127.956C207.104 127.667 206.539 127.513 205.783 127.494L203.739 127.48V131.05L205.783 131.078ZM210.542 131.666C210.383 131.666 210.243 131.61 210.122 131.498C210.01 131.377 209.954 131.232 209.954 131.064C209.954 130.896 210.01 130.756 210.122 130.644C210.243 130.532 210.383 130.476 210.542 130.476C210.701 130.476 210.836 130.532 210.948 130.644C211.069 130.756 211.13 130.896 211.13 131.064C211.13 131.232 211.069 131.377 210.948 131.498C210.836 131.61 210.701 131.666 210.542 131.666Z" fill="white"/>
<rect x="54.7109" y="169.61" width="234.063" height="48.6031" rx="24.3015" fill="#9C0332"/>
<path d="M130.866 187.312H132.18V197.752L140.244 187.312H141.45V199.912H140.136V189.49L132.072 199.912H130.866V187.312ZM152.092 191.578H146.674V199.912H145.396V190.444H152.092V191.578ZM158.817 190.372C159.705 190.372 160.509 190.576 161.229 190.984C161.949 191.38 162.513 191.944 162.921 192.676C163.329 193.408 163.533 194.242 163.533 195.178C163.533 196.126 163.329 196.966 162.921 197.698C162.513 198.43 161.949 199 161.229 199.408C160.521 199.804 159.717 200.002 158.817 200.002C158.049 200.002 157.353 199.846 156.729 199.534C156.117 199.21 155.613 198.742 155.217 198.13V203.404H153.939V190.444H155.163V192.316C155.547 191.692 156.051 191.212 156.675 190.876C157.311 190.54 158.025 190.372 158.817 190.372ZM158.727 198.868C159.387 198.868 159.987 198.718 160.527 198.418C161.067 198.106 161.487 197.668 161.787 197.104C162.099 196.54 162.255 195.898 162.255 195.178C162.255 194.458 162.099 193.822 161.787 193.27C161.487 192.706 161.067 192.268 160.527 191.956C159.987 191.644 159.387 191.488 158.727 191.488C158.055 191.488 157.449 191.644 156.909 191.956C156.381 192.268 155.961 192.706 155.649 193.27C155.349 193.822 155.199 194.458 155.199 195.178C155.199 195.898 155.349 196.54 155.649 197.104C155.961 197.668 156.381 198.106 156.909 198.418C157.449 198.718 158.055 198.868 158.727 198.868ZM169.484 190.372C170.72 190.372 171.668 190.684 172.328 191.308C172.988 191.92 173.318 192.832 173.318 194.044V199.912H172.094V198.436C171.806 198.928 171.38 199.312 170.816 199.588C170.264 199.864 169.604 200.002 168.836 200.002C167.78 200.002 166.94 199.75 166.316 199.246C165.692 198.742 165.38 198.076 165.38 197.248C165.38 196.444 165.668 195.796 166.244 195.304C166.832 194.812 167.762 194.566 169.034 194.566H172.04V193.99C172.04 193.174 171.812 192.556 171.356 192.136C170.9 191.704 170.234 191.488 169.358 191.488C168.758 191.488 168.182 191.59 167.63 191.794C167.078 191.986 166.604 192.256 166.208 192.604L165.632 191.65C166.112 191.242 166.688 190.93 167.36 190.714C168.032 190.486 168.74 190.372 169.484 190.372ZM169.034 198.994C169.754 198.994 170.372 198.832 170.888 198.508C171.404 198.172 171.788 197.692 172.04 197.068V195.52H169.07C167.45 195.52 166.64 196.084 166.64 197.212C166.64 197.764 166.85 198.202 167.27 198.526C167.69 198.838 168.278 198.994 169.034 198.994ZM183.381 191.578H179.799V199.912H178.521V191.578H174.939V190.444H183.381V191.578ZM189.296 193.792C190.484 193.804 191.384 194.068 191.996 194.584C192.62 195.1 192.932 195.844 192.932 196.816C192.932 197.824 192.596 198.598 191.924 199.138C191.264 199.678 190.304 199.942 189.044 199.93L185.228 199.912V190.444H186.506V193.756L189.296 193.792ZM188.972 198.958C189.848 198.97 190.508 198.796 190.952 198.436C191.408 198.064 191.636 197.524 191.636 196.816C191.636 196.12 191.414 195.604 190.97 195.268C190.526 194.932 189.86 194.758 188.972 194.746L186.506 194.71V198.922L188.972 198.958ZM195.137 187.312H196.649L196.379 196.132H195.389L195.137 187.312ZM195.893 200.002C195.629 200.002 195.401 199.912 195.209 199.732C195.029 199.54 194.939 199.318 194.939 199.066C194.939 198.802 195.029 198.586 195.209 198.418C195.389 198.238 195.617 198.148 195.893 198.148C196.157 198.148 196.379 198.238 196.559 198.418C196.739 198.586 196.829 198.802 196.829 199.066C196.829 199.318 196.739 199.54 196.559 199.732C196.379 199.912 196.157 200.002 195.893 200.002Z" fill="white"/>
</svg>
